SplineFontDB: 3.2
FontName: GmerlinIcons
FullName: GmerlinIcons
FamilyName: GmerlinIcons
Weight: Medium
Copyright: Created by Burkhard Plaum,,, with FontForge 2.0 (http://fontforge.sf.net)
Version: 001.000
ItalicAngle: 0
UnderlinePosition: -204
UnderlineWidth: 102
Ascent: 1638
Descent: 410
InvalidEm: 0
sfntRevision: 0x00010000
LayerCount: 2
Layer: 0 1 "Back" 1
Layer: 1 1 "Zeichenebene" 0
XUID: [1021 750 618336623 4618231]
FSType: 0
OS2Version: 4
OS2_WeightWidthSlopeOnly: 0
OS2_UseTypoMetrics: 1
CreationTime: 1426149391
ModificationTime: 1697383665
PfmFamily: 17
TTFWeight: 500
TTFWidth: 5
LineGap: 184
VLineGap: 0
Panose: 2 0 6 3 0 0 0 0 0 0
OS2TypoAscent: 1638
OS2TypoAOffset: 0
OS2TypoDescent: -410
OS2TypoDOffset: 0
OS2TypoLinegap: 184
OS2WinAscent: 2048
OS2WinAOffset: 0
OS2WinDescent: 411
OS2WinDOffset: 0
HheadAscent: 2048
HheadAOffset: 0
HheadDescent: -411
HheadDOffset: 0
OS2SubXSize: 1331
OS2SubYSize: 1433
OS2SubXOff: 0
OS2SubYOff: 286
OS2SupXSize: 1331
OS2SupYSize: 1433
OS2SupXOff: 0
OS2SupYOff: 983
OS2StrikeYSize: 102
OS2StrikeYPos: 530
OS2Vendor: 'PfEd'
OS2CodePages: 00000001.00000000
OS2UnicodeRanges: 00000003.00000000.00000000.00000000
MarkAttachClasses: 1
DEI: 91125
ShortTable: cvt  2
  68
  1297
EndShort
ShortTable: maxp 16
  1
  0
  103
  323
  11
  0
  0
  2
  0
  1
  1
  0
  64
  46
  0
  0
EndShort
LangName: 1033 "" "" "" "FontForge 2.0 : GmerlinIcons : 27-12-2017"
GaspTable: 1 65535 2 0
Encoding: UnicodeBmp
UnicodeInterp: none
NameList: Adobe Glyph List
DisplaySize: -24
AntiAlias: 1
FitToEm: 1
WinInfo: 48 48 14
BeginChars: 65539 124

StartChar: .notdef
Encoding: 65536 -1 0
Width: 748
Flags: W
LayerCount: 2
Fore
SplineSet
68 0 m 1,0,-1
 68 1365 l 1,1,-1
 612 1365 l 1,2,-1
 612 0 l 1,3,-1
 68 0 l 1,0,-1
136 68 m 1,4,-1
 544 68 l 1,5,-1
 544 1297 l 1,6,-1
 136 1297 l 1,7,-1
 136 68 l 1,4,-1
EndSplineSet
Validated: 1
EndChar

StartChar: exclam
Encoding: 33 33 4
Width: 2048
Flags: W
LayerCount: 2
Fore
SplineSet
304 101 m 1,0,-1
 456 257 l 1,1,-1
 576 137 l 1,2,-1
 424 -19 l 1,3,-1
 304 101 l 1,0,-1
940 -231 m 1,4,-1
 940 21 l 1,5,-1
 1108 21 l 1,6,-1
 1108 -231 l 1,7,-1
 940 -231 l 1,4,-1
1024 1217 m 128,-1,9
 1236 1217 1236 1217 1386 1067 c 128,-1,10
 1536 917 1536 917 1536 705 c 128,-1,11
 1536 493 1536 493 1386 343 c 128,-1,12
 1236 193 1236 193 1024 193 c 128,-1,13
 812 193 812 193 662 343 c 128,-1,14
 512 493 512 493 512 705 c 128,-1,15
 512 917 512 917 662 1067 c 128,-1,8
 812 1217 812 1217 1024 1217 c 128,-1,9
1708 789 m 1,16,-1
 1964 789 l 1,17,-1
 1964 617 l 1,18,-1
 1708 617 l 1,19,-1
 1708 789 l 1,16,-1
1472 137 m 1,20,-1
 1592 253 l 1,21,-1
 1744 101 l 1,22,-1
 1624 -19 l 1,23,-1
 1472 137 l 1,20,-1
1744 1305 m 1,24,-1
 1592 1153 l 1,25,-1
 1472 1273 l 1,26,-1
 1624 1425 l 1,27,-1
 1744 1305 l 1,24,-1
1108 1637 m 1,28,-1
 1108 1385 l 1,29,-1
 940 1385 l 1,30,-1
 940 1637 l 1,31,-1
 1108 1637 l 1,28,-1
340 789 m 1,32,-1
 340 617 l 1,33,-1
 84 617 l 1,34,-1
 84 789 l 1,35,-1
 340 789 l 1,32,-1
576 1273 m 1,36,-1
 456 1153 l 1,37,-1
 304 1305 l 1,38,-1
 424 1425 l 1,39,-1
 576 1273 l 1,36,-1
EndSplineSet
Validated: 1
EndChar

StartChar: numbersign
Encoding: 35 35 5
Width: 1755
Flags: W
LayerCount: 2
Fore
SplineSet
1024 1134 m 2,0,-1
 1024 622 l 2,1,2
 1024 606 1024 606 1014 596 c 0,3,4
 1003 585 1003 585 987 585 c 2,5,-1
 622 585 l 2,6,7
 604 585 604 585 596 596 c 1,8,9
 585 604 585 604 585 622 c 2,10,-1
 585 695 l 2,11,12
 585 711 585 711 596 721 c 1,13,14
 605 731 605 731 622 731 c 2,15,-1
 878 731 l 1,16,-1
 878 1134 l 2,17,18
 878 1150 878 1150 888 1160 c 128,-1,19
 898 1170 898 1170 914 1170 c 2,20,-1
 987 1170 l 2,21,22
 1003 1170 1003 1170 1014 1160 c 1,23,24
 1024 1148 1024 1148 1024 1134 c 2,0,-1
1499 732 m 0,25,26
 1499 899 1499 899 1416 1044 c 1,27,28
 1333 1186 1333 1186 1190 1270 c 0,29,30
 1047 1353 1047 1353 878 1353 c 128,-1,31
 709 1353 709 1353 566 1270 c 0,32,33
 423 1186 423 1186 340 1044 c 0,34,35
 256 900 256 900 256 732 c 0,36,37
 256 561 256 561 340 420 c 1,38,39
 422 278 422 278 566 194 c 1,40,41
 708 110 708 110 878 110 c 128,-1,42
 1048 110 1048 110 1190 194 c 1,43,44
 1334 278 1334 278 1416 420 c 0,45,46
 1499 562 1499 562 1499 732 c 0,25,26
1755 732 m 0,47,48
 1755 494 1755 494 1638 291 c 1,49,50
 1519 88 1519 88 1318 -28 c 1,51,52
 1118 -146 1118 -146 878 -146 c 0,53,54
 639 -146 639 -146 437 -28 c 0,55,56
 235 89 235 89 118 291 c 0,57,58
 0 493 0 493 0 732 c 0,59,60
 0 970 0 970 118 1172 c 1,61,62
 234 1373 234 1373 437 1492 c 1,63,64
 640 1609 640 1609 878 1609 c 0,65,66
 1117 1609 1117 1609 1318 1492 c 0,67,68
 1520 1374 1520 1374 1638 1172 c 1,69,70
 1755 969 1755 969 1755 732 c 0,47,48
EndSplineSet
Validated: 1
EndChar

StartChar: dollar
Encoding: 36 36 6
Width: 1492
Flags: W
LayerCount: 2
Fore
SplineSet
1311 1419 m 0,0,1
 1344 1452 1344 1452 1383 1452 c 0,2,3
 1401 1452 1401 1452 1428 1442 c 1,4,5
 1493 1412 1493 1412 1493 1346 c 2,6,-1
 1493 489 l 2,7,8
 1493 446 1493 446 1462 416 c 0,9,10
 1298 252 1298 252 1067 252 c 128,-1,11
 836 252 836 252 672 416 c 0,12,13
 576 511 576 511 446 518 c 0,14,15
 442 518 442 518 435 518.5 c 128,-1,16
 428 519 428 519 424 519 c 0,17,18
 308 519 308 519 213 444 c 1,19,-1
 213 -43 l 2,20,21
 213 -87 213 -87 182 -119 c 1,22,23
 154 -150 154 -150 113 -150 c 2,24,-1
 109 -150 l 1,25,26
 65 -147 65 -147 33 -118 c 1,27,28
 0 -91 0 -91 0 -43 c 2,29,-1
 0 1346 l 2,30,31
 0 1389 0 1389 31 1419 c 0,32,33
 195 1583 195 1583 426 1583 c 128,-1,34
 657 1583 657 1583 821 1419 c 0,35,36
 923 1317 923 1317 1067 1317 c 0,37,38
 1210 1317 1210 1317 1311 1419 c 0,0,1
EndSplineSet
Validated: 1
EndChar

StartChar: percent
Encoding: 37 37 7
Width: 1901
Flags: W
LayerCount: 2
Fore
SplineSet
146 -146 m 1,0,-1
 1755 -146 l 1,1,-1
 1755 1024 l 1,2,-1
 146 1024 l 1,3,-1
 146 -146 l 1,0,-1
585 1243 m 2,4,-1
 585 1573 l 2,5,6
 585 1589 585 1589 575 1599 c 128,-1,7
 565 1609 565 1609 549 1609 c 2,8,-1
 475 1609 l 2,9,10
 459 1609 459 1609 449 1599 c 128,-1,11
 439 1589 439 1589 439 1573 c 2,12,-1
 439 1243 l 2,13,14
 439 1227 439 1227 449 1217 c 128,-1,15
 459 1207 459 1207 475 1207 c 2,16,-1
 549 1207 l 2,17,18
 565 1207 565 1207 575 1217 c 128,-1,19
 585 1227 585 1227 585 1243 c 2,4,-1
1463 1243 m 2,20,-1
 1463 1573 l 2,21,22
 1463 1589 1463 1589 1452 1599 c 1,23,24
 1443 1609 1443 1609 1426 1609 c 2,25,-1
 1353 1609 l 2,26,27
 1337 1609 1337 1609 1327 1599 c 128,-1,28
 1317 1589 1317 1589 1317 1573 c 2,29,-1
 1317 1243 l 2,30,31
 1317 1227 1317 1227 1327 1217 c 128,-1,32
 1337 1207 1337 1207 1353 1207 c 2,33,-1
 1426 1207 l 2,34,35
 1443 1207 1443 1207 1452 1217 c 1,36,37
 1463 1227 1463 1227 1463 1243 c 2,20,-1
1902 1317 m 2,38,-1
 1902 -146 l 2,39,40
 1902 -206 1902 -206 1858 -249 c 1,41,42
 1816 -293 1816 -293 1755 -293 c 2,43,-1
 146 -293 l 2,44,45
 87 -293 87 -293 44 -250 c 0,46,47
 0 -206 0 -206 0 -146 c 2,48,-1
 0 1317 l 2,49,50
 0 1376 0 1376 44 1420 c 0,51,52
 87 1463 87 1463 146 1463 c 2,53,-1
 293 1463 l 1,54,-1
 293 1573 l 2,55,56
 293 1647 293 1647 346 1702 c 1,57,58
 401 1755 401 1755 475 1755 c 2,59,-1
 549 1755 l 2,60,61
 623 1755 623 1755 678 1702 c 1,62,63
 731 1647 731 1647 731 1573 c 2,64,-1
 731 1463 l 1,65,-1
 1170 1463 l 1,66,-1
 1170 1573 l 2,67,68
 1170 1648 1170 1648 1224 1702 c 1,69,70
 1279 1755 1279 1755 1353 1755 c 2,71,-1
 1426 1755 l 2,72,73
 1500 1755 1500 1755 1555 1702 c 1,74,75
 1609 1648 1609 1648 1609 1573 c 2,76,-1
 1609 1463 l 1,77,-1
 1755 1463 l 2,78,79
 1813 1463 1813 1463 1858 1420 c 1,80,81
 1902 1374 1902 1374 1902 1317 c 2,38,-1
EndSplineSet
Validated: 1
EndChar

StartChar: parenleft
Encoding: 40 40 8
Width: 1454
Flags: W
LayerCount: 2
Fore
SplineSet
717 1209 m 1,0,-1
 717 -73 l 1,1,-1
 0 568 l 1,2,-1
 717 1209 l 1,0,-1
1452 1209 m 1,3,-1
 1452 -73 l 1,4,-1
 735 568 l 1,5,-1
 1452 1209 l 1,3,-1
EndSplineSet
Validated: 1
EndChar

StartChar: parenright
Encoding: 41 41 9
Width: 1454
Flags: W
LayerCount: 2
Fore
SplineSet
735 1209 m 1,0,-1
 1452 568 l 1,1,-1
 735 -73 l 1,2,-1
 735 1209 l 1,0,-1
0 1209 m 1,3,-1
 717 568 l 1,4,-1
 0 -73 l 1,5,-1
 0 1209 l 1,3,-1
EndSplineSet
Validated: 1
EndChar

StartChar: asterisk
Encoding: 42 42 10
Width: 2048
Flags: W
LayerCount: 2
Fore
SplineSet
1024 1303 m 0,0,1
 792 1303 792 1303 588 1223 c 0,2,3
 385 1143 385 1143 266 1008 c 1,4,5
 146 870 146 870 145 717 c 0,6,7
 145 589 145 589 227 473 c 0,8,9
 310 356 310 356 459 272 c 1,10,-1
 557 215 l 1,11,-1
 526 104 l 1,12,13
 499 3 499 3 446 -90 c 1,14,15
 618 -19 618 -19 762 104 c 1,16,-1
 811 147 l 1,17,-1
 874 141 l 1,18,19
 950 131 950 131 1024 131 c 0,20,21
 1256 131 1256 131 1460 211 c 0,22,23
 1663 291 1663 291 1782 426 c 0,24,25
 1902 562 1902 562 1903 716 c 1,26,-1
 1903 720 l 2,27,28
 1903 874 1903 874 1782 1008 c 0,29,30
 1658 1144 1658 1144 1460 1223 c 0,31,32
 1261 1303 1261 1303 1024 1303 c 0,0,1
2048 717 m 256,33,34
 2048 519 2048 519 1911 350 c 128,-1,35
 1774 181 1774 181 1538 84 c 1,36,37
 1303 -14 1303 -14 1024 -14 c 0,38,39
 949 -14 949 -14 858 -6 c 1,40,41
 634 -205 634 -205 332 -283 c 1,42,43
 276 -296 276 -296 203 -307 c 1,44,-1
 197 -307 l 2,45,46
 181 -307 181 -307 166 -295 c 0,47,48
 151 -282 151 -282 147 -264 c 1,49,-1
 147 -262 l 1,50,51
 143 -258 143 -258 148 -248 c 1,52,53
 151 -238 151 -238 150 -238 c 0,54,55
 146 -238 146 -238 154 -227 c 2,56,-1
 178 -197 l 2,57,58
 184 -189 184 -189 213 -158 c 2,59,-1
 254 -113 l 1,60,61
 274 -89 274 -89 288 -68 c 1,62,63
 305 -45 305 -45 326 -10 c 1,64,65
 344 23 344 23 356 57 c 2,66,-1
 387 143 l 1,67,68
 208 245 208 245 104 395 c 1,69,70
 1 546 1 546 0 717 c 1,71,72
 0 915 0 915 137 1084 c 0,73,74
 274 1252 274 1252 510 1350 c 0,75,76
 745 1448 745 1448 1024 1448 c 128,-1,77
 1303 1448 1303 1448 1538 1350 c 0,78,79
 1774 1252 1774 1252 1911 1084 c 0,80,81
 2048 915 2048 915 2048 717 c 256,33,34
EndSplineSet
Validated: 1
EndChar

StartChar: plus
Encoding: 43 43 11
Width: 2048
Flags: W
LayerCount: 2
Fore
SplineSet
2036 1196 m 1,0,1
 2048 980 2048 980 2048 768 c 128,-1,2
 2048 556 2048 556 2036 340 c 1,3,4
 2036 205 2036 205 1950 110 c 0,5,6
 1865 16 1865 16 1740 16 c 1,7,8
 1442 0 1442 0 1024 0 c 128,-1,9
 606 0 606 0 308 16 c 1,10,11
 183 16 183 16 98 110 c 0,12,13
 12 205 12 205 12 340 c 1,14,15
 0 556 0 556 0 768 c 0,16,17
 0 917 0 917 16 1196 c 1,18,19
 16 1332 16 1332 100 1426 c 128,-1,20
 184 1520 184 1520 308 1520 c 1,21,22
 592 1536 592 1536 988 1536 c 2,23,-1
 1024 1536 l 1,24,-1
 1060 1536 l 2,25,26
 1456 1536 1456 1536 1740 1520 c 1,27,28
 1865 1520 1865 1520 1950 1426 c 0,29,30
 2036 1331 2036 1331 2036 1196 c 1,0,1
828 376 m 1,31,-1
 1408 768 l 1,32,-1
 828 1164 l 1,33,-1
 828 376 l 1,31,-1
EndSplineSet
Validated: 1
EndChar

StartChar: comma
Encoding: 44 44 12
Width: 1925
Flags: W
LayerCount: 2
Fore
SplineSet
1507 262 m 1,0,1
 1925 115 1925 115 1925 12 c 2,2,-1
 1925 -205 l 1,3,-1
 0 -205 l 1,4,-1
 0 12 l 2,5,6
 0 114 0 114 418 262 c 1,7,8
 611 332 611 332 680 404 c 1,9,10
 750 474 750 474 750 598 c 0,11,12
 750 645 750 645 704 698 c 1,13,14
 658 756 658 756 639 848 c 1,15,16
 635 873 635 873 620 885 c 1,17,18
 608 896 608 896 592 901 c 0,19,20
 577 906 577 906 564 936 c 0,21,22
 550 966 550 966 545 1024 c 1,23,24
 545 1058 545 1058 555 1078 c 0,25,26
 566 1098 566 1098 573 1102 c 1,27,-1
 582 1110 l 1,28,29
 567 1201 567 1201 557 1290 c 0,30,31
 557 1293 557 1293 556.5 1298.5 c 128,-1,32
 556 1304 556 1304 556 1307 c 0,33,34
 556 1408 556 1408 641 1520 c 1,35,36
 733 1638 733 1638 962 1638 c 128,-1,37
 1191 1638 1191 1638 1286 1520 c 1,38,39
 1369 1415 1369 1415 1369 1315 c 0,40,41
 1369 1298 1369 1298 1368 1290 c 2,42,-1
 1343 1110 l 1,43,44
 1380 1094 1380 1094 1380 1024 c 1,45,46
 1376 968 1376 968 1362 936 c 0,47,48
 1349 906 1349 906 1334 901 c 0,49,50
 1317 896 1317 896 1304 884 c 0,51,52
 1290 872 1290 872 1286 848 c 0,53,54
 1269 750 1269 750 1223 696 c 1,55,56
 1176 643 1176 643 1176 598 c 0,57,58
 1176 474 1176 474 1248 404 c 1,59,60
 1317 333 1317 333 1507 262 c 1,0,1
EndSplineSet
Validated: 1
EndChar

StartChar: hyphen
Encoding: 45 45 13
Width: 2048
Flags: W
LayerCount: 2
Fore
SplineSet
2048 -184 m 1,0,-1
 1589 -184 l 1,1,-1
 1589 123 l 2,2,3
 1589 233 1589 233 1528 289 c 1,4,5
 1467 343 1467 343 1212 471 c 1,6,7
 1294 532 1294 532 1294 643 c 0,8,9
 1294 676 1294 676 1268 710 c 0,10,11
 1241 746 1241 746 1229 815 c 1,12,13
 1225 831 1225 831 1200 848 c 1,14,15
 1176 863 1176 863 1171 934 c 1,16,17
 1171 983 1171 983 1196 995 c 1,18,19
 1185 1060 1185 1060 1180 1118 c 0,20,21
 1179 1124 1179 1124 1179 1137 c 0,22,23
 1179 1206 1179 1206 1227 1278 c 0,24,25
 1282 1360 1282 1360 1422 1360 c 0,26,27
 1561 1360 1561 1360 1618 1278 c 0,28,29
 1668 1205 1668 1205 1668 1137 c 0,30,31
 1668 1124 1668 1124 1667 1118 c 2,32,-1
 1651 995 l 1,33,34
 1675 983 1675 983 1675 939 c 2,35,-1
 1675 934 l 1,36,37
 1670 862 1670 862 1646 848 c 1,38,39
 1622 830 1622 830 1618 815 c 1,40,41
 1606 746 1606 746 1579 710 c 1,42,43
 1552 677 1552 677 1552 643 c 0,44,45
 1552 557 1552 557 1595 508 c 128,-1,46
 1638 459 1638 459 1753 410 c 1,47,48
 1982 316 1982 316 2019 246 c 1,49,50
 2031 230 2031 230 2038 121 c 0,51,52
 2041 69 2041 69 2048 -86 c 1,53,-1
 2048 -184 l 1,0,-1
1049 352 m 1,54,55
 1421 191 1421 191 1421 99 c 2,56,-1
 1421 98 l 1,57,-1
 1421 -184 l 1,58,-1
 0 -184 l 1,59,-1
 0 193 l 2,60,61
 0 283 0 283 172 352 c 1,62,63
 328 418 328 418 385 484 c 1,64,65
 442 548 442 548 442 664 c 0,66,67
 442 704 442 704 404 754 c 0,68,69
 366 803 366 803 352 893 c 1,70,71
 348 912 348 912 316 938 c 0,72,73
 283 964 283 964 274 1053 c 1,74,75
 274 1082 274 1082 280 1100 c 1,76,77
 288 1119 288 1119 295 1126 c 1,78,-1
 303 1130 l 1,79,80
 288 1245 288 1245 283 1298 c 0,81,82
 283 1301 283 1301 282.5 1307.5 c 128,-1,83
 282 1314 282 1314 282 1317 c 0,84,85
 282 1409 282 1409 350 1509 c 1,86,87
 426 1618 426 1618 610 1618 c 0,88,89
 795 1618 795 1618 870 1510 c 0,90,91
 939 1411 939 1411 939 1317 c 0,92,93
 939 1314 939 1314 938.5 1307.5 c 128,-1,94
 938 1301 938 1301 938 1298 c 2,95,-1
 918 1130 l 1,96,97
 946 1114 946 1114 946 1059 c 2,98,-1
 946 1053 l 1,99,100
 939 964 939 964 905 938 c 0,101,102
 873 913 873 913 868 893 c 1,103,104
 856 804 856 804 817 754 c 256,105,106
 778 704 778 704 778 664 c 0,107,108
 778 548 778 548 836 484 c 1,109,110
 893 418 893 418 1049 352 c 1,54,55
EndSplineSet
Validated: 1
EndChar

StartChar: period
Encoding: 46 46 14
Width: 2048
Flags: W
LayerCount: 2
Fore
SplineSet
1434 1212 m 1,0,-1
 1434 926 l 1,1,-1
 410 926 l 1,2,-1
 410 741 l 1,3,-1
 0 1069 l 1,4,-1
 410 1417 l 1,5,-1
 410 1212 l 1,6,-1
 1434 1212 l 1,0,-1
2048 352 m 1,7,-1
 1638 25 l 1,8,-1
 1638 209 l 1,9,-1
 614 209 l 1,10,-1
 614 496 l 1,11,-1
 1638 496 l 1,12,-1
 1638 700 l 1,13,-1
 2048 352 l 1,7,-1
EndSplineSet
Validated: 1
EndChar

StartChar: slash
Encoding: 47 47 15
Width: 1024
Flags: W
LayerCount: 2
Fore
SplineSet
1018 933 m 0,0,1
 1000 896 1000 896 960 896 c 2,2,-1
 768 896 l 1,3,-1
 768 32 l 2,4,5
 768 18 768 18 759 9 c 128,-1,6
 750 0 750 0 736 0 c 2,7,-1
 32 0 l 2,8,9
 10 0 10 0 3 18 c 0,10,11
 -5 38 -5 38 7 53 c 2,12,-1
 167 245 l 2,13,14
 176 256 176 256 192 256 c 2,15,-1
 512 256 l 1,16,-1
 512 896 l 1,17,-1
 320 896 l 2,18,19
 280 896 280 896 262 933 c 1,20,21
 256 948 256 948 256 961 c 0,22,23
 256 982 256 982 271 1001 c 2,24,-1
 591 1385 l 2,25,26
 609 1407 609 1407 640 1407 c 128,-1,27
 671 1407 671 1407 689 1385 c 2,28,-1
 1009 1001 l 2,29,30
 1025 982 1025 982 1025 961 c 0,31,32
 1025 947 1025 947 1018 933 c 0,0,1
EndSplineSet
Validated: 1
EndChar

StartChar: zero
Encoding: 48 48 16
Width: 2194
Flags: W
LayerCount: 2
Fore
SplineSet
1097 802 m 128,-1,1
 1233 802 1233 802 1330 705 c 0,2,3
 1426 609 1426 609 1426 473 c 128,-1,4
 1426 337 1426 337 1330 241 c 0,5,6
 1233 144 1233 144 1097 144 c 128,-1,7
 961 144 961 144 864 241 c 0,8,9
 768 337 768 337 768 473 c 128,-1,10
 768 609 768 609 864 705 c 0,11,0
 961 802 961 802 1097 802 c 128,-1,1
1902 1278 m 2,12,13
 2024 1278 2024 1278 2108 1192 c 1,14,15
 2194 1107 2194 1107 2194 985 c 2,16,-1
 2194 -39 l 2,17,18
 2194 -162 2194 -162 2108 -245 c 1,19,20
 2025 -331 2025 -331 1902 -331 c 2,21,-1
 293 -331 l 2,22,23
 171 -331 171 -331 86 -245 c 1,24,25
 0 -161 0 -161 0 -39 c 2,26,-1
 0 985 l 2,27,28
 0 1107 0 1107 86 1192 c 0,29,30
 172 1278 172 1278 293 1278 c 2,31,-1
 549 1278 l 1,32,-1
 607 1433 l 1,33,34
 631 1491 631 1491 686 1529 c 1,35,36
 743 1570 743 1570 805 1570 c 2,37,-1
 1390 1570 l 2,38,39
 1452 1570 1452 1570 1508 1529 c 1,40,41
 1565 1491 1565 1491 1587 1433 c 2,42,-1
 1646 1278 l 1,43,-1
 1902 1278 l 2,12,13
1098 -39 m 0,44,45
 1309 -39 1309 -39 1459 111 c 0,46,47
 1609 262 1609 262 1609 473 c 0,48,49
 1609 685 1609 685 1459 835 c 128,-1,50
 1309 985 1309 985 1098 985 c 0,51,52
 886 985 886 985 736 835 c 0,53,54
 585 685 585 685 585 473 c 0,55,56
 585 262 585 262 736 111 c 0,57,58
 886 -39 886 -39 1098 -39 c 0,44,45
EndSplineSet
Validated: 1
EndChar

StartChar: one
Encoding: 49 49 17
Width: 1792
Flags: W
LayerCount: 2
Fore
SplineSet
1620 1514 m 2,0,1
 1688 1514 1688 1514 1740 1462 c 128,-1,2
 1792 1410 1792 1410 1792 1342 c 2,3,-1
 1792 214 l 2,4,5
 1792 146 1792 146 1740 94 c 128,-1,6
 1688 42 1688 42 1620 42 c 2,7,-1
 1068 42 l 1,8,-1
 1236 -150 l 1,9,-1
 1236 -278 l 1,10,-1
 556 -278 l 1,11,-1
 556 -150 l 1,12,-1
 724 42 l 1,13,-1
 172 42 l 2,14,15
 104 42 104 42 52 94 c 128,-1,16
 0 146 0 146 0 214 c 2,17,-1
 0 1342 l 2,18,19
 0 1410 0 1410 52 1462 c 128,-1,20
 104 1514 104 1514 172 1514 c 2,21,-1
 1620 1514 l 2,0,1
1620 362 m 1,22,-1
 1620 1342 l 1,23,-1
 172 1342 l 1,24,-1
 172 362 l 1,25,-1
 1620 362 l 1,22,-1
EndSplineSet
Validated: 1
EndChar

StartChar: two
Encoding: 50 50 18
Width: 2194
Flags: W
LayerCount: 2
Fore
SplineSet
439 -123 m 2,0,-1
 439 23 l 2,1,2
 439 53 439 53 417 74 c 0,3,4
 395 96 395 96 366 96 c 2,5,-1
 219 96 l 2,6,7
 189 96 189 96 168 74 c 1,8,9
 146 53 146 53 146 23 c 2,10,-1
 146 -123 l 2,11,12
 146 -153 146 -153 168 -174 c 0,13,14
 190 -196 190 -196 219 -196 c 2,15,-1
 366 -196 l 2,16,17
 396 -196 396 -196 418 -174 c 0,18,19
 439 -153 439 -153 439 -123 c 2,0,-1
439 316 m 2,20,-1
 439 462 l 2,21,22
 439 492 439 492 417 514 c 1,23,24
 394 535 394 535 366 535 c 2,25,-1
 219 535 l 2,26,27
 189 535 189 535 168 514 c 0,28,29
 146 492 146 492 146 462 c 2,30,-1
 146 316 l 2,31,32
 146 286 146 286 168 264 c 0,33,34
 190 243 190 243 219 243 c 2,35,-1
 366 243 l 2,36,37
 396 243 396 243 418 264 c 1,38,39
 439 286 439 286 439 316 c 2,20,-1
439 755 m 2,40,-1
 439 901 l 2,41,42
 439 931 439 931 417 952 c 0,43,44
 395 974 395 974 366 974 c 2,45,-1
 219 974 l 2,46,47
 189 974 189 974 168 952 c 1,48,49
 146 931 146 931 146 901 c 2,50,-1
 146 755 l 2,51,52
 146 725 146 725 168 703 c 128,-1,53
 190 681 190 681 219 681 c 2,54,-1
 366 681 l 2,55,56
 396 681 396 681 418 703 c 1,57,58
 439 726 439 726 439 755 c 2,40,-1
1609 -123 m 2,59,-1
 1609 462 l 2,60,61
 1609 492 1609 492 1588 514 c 1,62,63
 1566 535 1566 535 1536 535 c 2,64,-1
 658 535 l 2,65,66
 628 535 628 535 606 514 c 1,67,68
 585 492 585 492 585 462 c 2,69,-1
 585 -123 l 2,70,71
 585 -153 585 -153 607 -174 c 0,72,73
 629 -196 629 -196 658 -196 c 2,74,-1
 1536 -196 l 2,75,76
 1566 -196 1566 -196 1588 -174 c 0,77,78
 1609 -153 1609 -153 1609 -123 c 2,59,-1
439 1193 m 2,79,-1
 439 1340 l 2,80,81
 439 1370 439 1370 417 1392 c 1,82,83
 394 1413 394 1413 366 1413 c 2,84,-1
 219 1413 l 2,85,86
 189 1413 189 1413 168 1391 c 0,87,88
 146 1369 146 1369 146 1340 c 2,89,-1
 146 1193 l 2,90,91
 146 1163 146 1163 168 1142 c 0,92,93
 190 1120 190 1120 219 1120 c 2,94,-1
 366 1120 l 2,95,96
 396 1120 396 1120 418 1142 c 0,97,98
 439 1163 439 1163 439 1193 c 2,79,-1
2048 -123 m 2,99,-1
 2048 23 l 2,100,101
 2048 53 2048 53 2026 74 c 1,102,103
 2005 96 2005 96 1975 96 c 2,104,-1
 1829 96 l 2,105,106
 1799 96 1799 96 1777 74 c 0,107,108
 1755 53 1755 53 1755 23 c 2,109,-1
 1755 -123 l 2,110,111
 1755 -153 1755 -153 1777 -174 c 0,112,113
 1799 -196 1799 -196 1829 -196 c 2,114,-1
 1975 -196 l 2,115,116
 2005 -196 2005 -196 2026 -174 c 1,117,118
 2048 -153 2048 -153 2048 -123 c 2,99,-1
1609 755 m 2,119,-1
 1609 1340 l 2,120,121
 1609 1370 1609 1370 1588 1392 c 1,122,123
 1566 1413 1566 1413 1536 1413 c 2,124,-1
 658 1413 l 2,125,126
 628 1413 628 1413 606 1391 c 1,127,128
 585 1368 585 1368 585 1340 c 2,129,-1
 585 755 l 2,130,131
 585 725 585 725 607 703 c 128,-1,132
 629 681 629 681 658 681 c 2,133,-1
 1536 681 l 2,134,135
 1566 681 1566 681 1588 703 c 1,136,137
 1609 726 1609 726 1609 755 c 2,119,-1
2048 316 m 2,138,-1
 2048 462 l 2,139,140
 2048 492 2048 492 2026 514 c 0,141,142
 2005 535 2005 535 1975 535 c 2,143,-1
 1829 535 l 2,144,145
 1800 535 1800 535 1777 514 c 1,146,147
 1755 492 1755 492 1755 462 c 2,148,-1
 1755 316 l 2,149,150
 1755 286 1755 286 1777 264 c 1,151,152
 1800 243 1800 243 1829 243 c 2,153,-1
 1975 243 l 2,154,155
 2005 243 2005 243 2026 264 c 0,156,157
 2048 286 2048 286 2048 316 c 2,138,-1
2048 755 m 2,158,-1
 2048 901 l 2,159,160
 2048 931 2048 931 2026 952 c 1,161,162
 2005 974 2005 974 1975 974 c 2,163,-1
 1829 974 l 2,164,165
 1799 974 1799 974 1777 952 c 0,166,167
 1755 931 1755 931 1755 901 c 2,168,-1
 1755 755 l 2,169,170
 1755 725 1755 725 1777 703 c 128,-1,171
 1799 681 1799 681 1829 681 c 2,172,-1
 1975 681 l 2,173,174
 2005 681 2005 681 2026 703 c 0,175,176
 2048 725 2048 725 2048 755 c 2,158,-1
2048 1193 m 2,177,-1
 2048 1340 l 2,178,179
 2048 1370 2048 1370 2026 1392 c 0,180,181
 2005 1413 2005 1413 1975 1413 c 2,182,-1
 1829 1413 l 2,183,184
 1799 1413 1799 1413 1777 1391 c 128,-1,185
 1755 1369 1755 1369 1755 1340 c 2,186,-1
 1755 1193 l 2,187,188
 1755 1163 1755 1163 1777 1142 c 0,189,190
 1799 1120 1799 1120 1829 1120 c 2,191,-1
 1975 1120 l 2,192,193
 2005 1120 2005 1120 2026 1142 c 1,194,195
 2048 1163 2048 1163 2048 1193 c 2,177,-1
2194 1376 m 2,196,-1
 2194 -160 l 2,197,198
 2194 -235 2194 -235 2140 -289 c 1,199,200
 2088 -343 2088 -343 2011 -343 c 2,201,-1
 183 -343 l 2,202,203
 108 -343 108 -343 54 -289 c 128,-1,204
 0 -235 0 -235 0 -160 c 2,205,-1
 0 1376 l 2,206,207
 0 1451 0 1451 54 1505 c 1,208,209
 106 1559 106 1559 183 1559 c 2,210,-1
 2011 1559 l 2,211,212
 2086 1559 2086 1559 2140 1505 c 128,-1,213
 2194 1451 2194 1451 2194 1376 c 2,196,-1
EndSplineSet
Validated: 1
EndChar

StartChar: three
Encoding: 51 51 19
Width: 1755
Flags: W
LayerCount: 2
Fore
SplineSet
1755 1449 m 2,0,-1
 1755 169 l 2,1,2
 1755 112 1755 112 1716 68 c 1,3,4
 1679 24 1679 24 1618 -2 c 0,5,6
 1560 -26 1560 -26 1500 -38 c 0,7,8
 1442 -50 1442 -50 1390 -50 c 0,9,10
 1337 -50 1337 -50 1280 -38 c 0,11,12
 1221 -26 1221 -26 1162 -2 c 1,13,14
 1101 24 1101 24 1063 68 c 0,15,16
 1024 112 1024 112 1024 170 c 0,17,18
 1024 227 1024 227 1063 272 c 1,19,20
 1103 316 1103 316 1162 340 c 1,21,22
 1219 365 1219 365 1280 377 c 0,23,24
 1337 389 1337 389 1390 389 c 0,25,26
 1510 389 1510 389 1609 344 c 1,27,-1
 1609 958 l 1,28,-1
 731 687 l 1,29,-1
 731 -123 l 2,30,31
 731 -180 731 -180 692 -224 c 1,32,33
 655 -268 655 -268 594 -294 c 0,34,35
 539 -318 539 -318 476 -331 c 0,36,37
 417 -343 417 -343 366 -343 c 0,38,39
 313 -343 313 -343 256 -331 c 0,40,41
 195 -319 195 -319 138 -294 c 0,42,43
 77 -268 77 -268 39 -224 c 0,44,45
 0 -180 0 -180 0 -123 c 128,-1,46
 0 -66 0 -66 39 -22 c 0,47,48
 77 22 77 22 138 48 c 1,49,50
 197 72 197 72 256 84 c 0,51,52
 313 96 313 96 366 96 c 0,53,54
 485 96 485 96 585 52 c 1,55,-1
 585 1157 l 2,56,57
 585 1193 585 1193 607 1222 c 0,58,59
 631 1252 631 1252 663 1262 c 2,60,-1
 1614 1555 l 2,61,62
 1630 1560 1630 1560 1646 1559 c 1,63,64
 1690 1559 1690 1559 1724 1527 c 1,65,66
 1755 1494 1755 1494 1755 1449 c 2,0,-1
EndSplineSet
Validated: 1
EndChar

StartChar: four
Encoding: 52 52 20
Width: 2048
Flags: W
LayerCount: 2
Fore
SplineSet
196 661 m 2,0,1
 155 661 155 661 126 689 c 0,2,3
 96 718 96 718 96 759 c 128,-1,4
 96 800 96 800 126 829 c 0,5,6
 155 857 155 857 196 857 c 2,7,-1
 780 857 l 1,8,-1
 780 661 l 1,9,-1
 196 661 l 2,0,1
196 1053 m 2,10,11
 155 1053 155 1053 126 1081 c 0,12,13
 96 1110 96 1110 96 1149 c 128,-1,14
 96 1188 96 1188 126 1217 c 0,15,16
 155 1245 155 1245 196 1245 c 2,17,-1
 1616 1245 l 1,18,-1
 780 1053 l 1,19,-1
 196 1053 l 2,10,11
196 1441 m 2,20,21
 156 1441 156 1441 126 1471 c 128,-1,22
 96 1501 96 1501 96 1541 c 0,23,24
 96 1580 96 1580 126 1609 c 0,25,26
 155 1637 155 1637 196 1637 c 2,27,-1
 1656 1637 l 2,28,29
 1700 1637 1700 1637 1728 1609 c 128,-1,30
 1756 1581 1756 1581 1756 1541 c 0,31,32
 1756 1500 1756 1500 1728 1471 c 0,33,34
 1700 1441 1700 1441 1656 1441 c 2,35,-1
 196 1441 l 2,20,21
196 273 m 2,36,37
 155 273 155 273 126 301 c 0,38,39
 96 330 96 330 96 369 c 128,-1,40
 96 408 96 408 126 437 c 0,41,42
 155 465 155 465 196 465 c 2,43,-1
 780 465 l 1,44,-1
 780 273 l 1,45,-1
 196 273 l 2,36,37
1760 1013 m 2,46,47
 1779 1017 1779 1017 1800 1017 c 0,48,49
 1856 1017 1856 1017 1896 983 c 0,50,51
 1952 936 1952 936 1952 857 c 2,52,-1
 1952 17 l 1,53,-1
 1948 17 l 1,54,55
 1943 -81 1943 -81 1874 -147 c 0,56,57
 1803 -215 1803 -215 1708 -215 c 0,58,59
 1604 -215 1604 -215 1534 -145 c 128,-1,60
 1464 -75 1464 -75 1464 27 c 0,61,62
 1464 130 1464 130 1534 201 c 0,63,64
 1604 273 1604 273 1708 273 c 0,65,66
 1730 273 1730 273 1756 265 c 1,67,-1
 1756 661 l 1,68,-1
 1172 549 l 1,69,-1
 1172 -131 l 1,70,-1
 1168 -131 l 1,71,72
 1172 -152 1172 -152 1172 -167 c 0,73,74
 1172 -267 1172 -267 1100 -339 c 128,-1,75
 1028 -411 1028 -411 926 -411 c 128,-1,76
 824 -411 824 -411 754 -339 c 0,77,78
 684 -268 684 -268 684 -167 c 128,-1,79
 684 -66 684 -66 754 5 c 0,80,81
 824 77 824 77 928 77 c 0,82,83
 955 77 955 77 976 73 c 1,84,-1
 976 661 l 2,85,86
 976 740 976 740 1032 811 c 0,87,88
 1086 880 1086 880 1168 897 c 2,89,-1
 1760 1013 l 2,46,47
96 -21 m 128,-1,91
 96 20 96 20 126 49 c 0,92,93
 155 77 155 77 196 77 c 2,94,-1
 560 77 l 1,95,96
 504 -13 504 -13 492 -119 c 1,97,-1
 196 -119 l 2,98,99
 155 -119 155 -119 126 -91 c 0,100,90
 96 -62 96 -62 96 -21 c 128,-1,91
EndSplineSet
Validated: 1
EndChar

StartChar: five
Encoding: 53 53 21
Width: 1820
Flags: W
LayerCount: 2
Fore
SplineSet
910 459 m 0,0,1
 846 459 846 459 798 507.5 c 128,-1,2
 750 556 750 556 750 621 c 0,3,4
 750 691 750 691 796 738 c 128,-1,5
 842 785 842 785 910 785 c 0,6,7
 981 785 981 785 1028.5 738 c 128,-1,8
 1076 691 1076 691 1076 621 c 0,9,10
 1076 555 1076 555 1028 507 c 128,-1,11
 980 459 980 459 910 459 c 0,0,1
910 704 m 0,12,13
 874 704 874 704 852 681 c 128,-1,14
 830 658 830 658 830 621 c 128,-1,15
 830 584 830 584 852 561.5 c 128,-1,16
 874 539 874 539 910 539 c 0,17,18
 948 539 948 539 972 561.5 c 128,-1,19
 996 584 996 584 996 621 c 128,-1,20
 996 658 996 658 972 681 c 128,-1,21
 948 704 948 704 910 704 c 0,12,13
908 1494 m 0,22,23
 1086 1494 1086 1494 1248.5 1425 c 128,-1,24
 1411 1356 1411 1356 1528 1239 c 128,-1,25
 1645 1122 1645 1122 1714.5 960.5 c 128,-1,26
 1784 799 1784 799 1784 621 c 128,-1,27
 1784 443 1784 443 1714.5 281 c 128,-1,28
 1645 119 1645 119 1528 2 c 128,-1,29
 1411 -115 1411 -115 1248.5 -184 c 128,-1,30
 1086 -253 1086 -253 908 -253 c 128,-1,31
 730 -253 730 -253 568.5 -184 c 128,-1,32
 407 -115 407 -115 290.5 2 c 128,-1,33
 174 119 174 119 105 281 c 128,-1,34
 36 443 36 443 36 621 c 0,35,36
 36 763 36 763 80 896.5 c 128,-1,37
 124 1030 124 1030 204.5 1137 c 128,-1,38
 285 1244 285 1244 392.5 1325 c 128,-1,39
 500 1406 500 1406 633 1450 c 128,-1,40
 766 1494 766 1494 908 1494 c 0,22,23
274 134 m 1,41,42
 283 120 283 120 293.5 107.5 c 128,-1,43
 304 95 304 95 321.5 76.5 c 128,-1,44
 339 58 339 58 344 52 c 0,45,46
 410 -16 410 -16 516 -77 c 1,47,-1
 714 296 l 1,48,49
 800 242 800 242 910 242 c 0,50,51
 1070 242 1070 242 1180 352 c 128,-1,52
 1290 462 1290 462 1290 621 c 0,53,54
 1290 774 1290 774 1184 885 c 1,55,-1
 1542 1112 l 1,56,57
 1516 1151 1516 1151 1476 1186 c 1,58,59
 1405 1257 1405 1257 1300 1321 c 1,60,-1
 1104 947 l 1,61,62
 1019 999 1019 999 910 999 c 0,63,64
 753 999 753 999 643.5 889 c 128,-1,65
 534 779 534 779 534 621 c 0,66,67
 534 467 534 467 632 361 c 1,68,-1
 274 134 l 1,41,42
EndSplineSet
Validated: 1
EndChar

StartChar: six
Encoding: 54 54 22
Width: 2048
Flags: W
LayerCount: 2
Fore
SplineSet
516 381 m 1,0,-1
 389 253 l 1,1,2
 209 395 209 395 104.5 592.5 c 128,-1,3
 0 790 0 790 0 1021 c 256,4,5
 0 1252 0 1252 105 1449 c 128,-1,6
 210 1646 210 1646 389 1789 c 1,7,-1
 516 1661 l 1,8,9
 365 1544 365 1544 277.5 1378.5 c 128,-1,10
 190 1213 190 1213 190 1021 c 256,11,12
 190 829 190 829 277.5 663.5 c 128,-1,13
 365 498 365 498 516 381 c 1,0,-1
1280 1021 m 0,14,15
 1280 936 1280 936 1232 872 c 128,-1,16
 1184 808 1184 808 1109 781 c 1,17,-1
 1109 -89 l 1,18,-1
 939 -89 l 1,19,-1
 939 781 l 1,20,21
 864 807 864 807 816 871.5 c 128,-1,22
 768 936 768 936 768 1021 c 0,23,24
 768 1074 768 1074 788.5 1120 c 128,-1,25
 809 1166 809 1166 843.5 1201 c 128,-1,26
 878 1236 878 1236 924.5 1256.5 c 128,-1,27
 971 1277 971 1277 1024 1277 c 256,28,29
 1077 1277 1077 1277 1123.5 1256.5 c 128,-1,30
 1170 1236 1170 1236 1204.5 1201 c 128,-1,31
 1239 1166 1239 1166 1259.5 1120 c 128,-1,32
 1280 1074 1280 1074 1280 1021 c 0,14,15
572 1021 m 256,33,34
 572 905 572 905 624.5 806.5 c 128,-1,35
 677 708 677 708 768 637 c 1,36,-1
 642 509 l 1,37,38
 523 603 523 603 452.5 734.5 c 128,-1,39
 382 866 382 866 382 1021 c 256,40,41
 382 1175 382 1175 452.5 1307 c 128,-1,42
 523 1439 523 1439 642 1533 c 1,43,-1
 768 1405 l 1,44,45
 677 1334 677 1334 624.5 1235.5 c 128,-1,46
 572 1137 572 1137 572 1021 c 256,33,34
1659 1789 m 1,47,48
 1839 1647 1839 1647 1943.5 1449.5 c 128,-1,49
 2048 1252 2048 1252 2048 1021 c 256,50,51
 2048 790 2048 790 1943.5 592.5 c 128,-1,52
 1839 395 1839 395 1659 253 c 1,53,-1
 1532 381 l 1,54,55
 1684 498 1684 498 1771 663.5 c 128,-1,56
 1858 829 1858 829 1858 1021 c 256,57,58
 1858 1213 1858 1213 1770.5 1378.5 c 128,-1,59
 1683 1544 1683 1544 1532 1661 c 1,60,-1
 1659 1789 l 1,47,48
1406 1533 m 1,61,62
 1525 1439 1525 1439 1595.5 1307.5 c 128,-1,63
 1666 1176 1666 1176 1666 1021 c 256,64,65
 1666 866 1666 866 1595.5 734.5 c 128,-1,66
 1525 603 1525 603 1406 509 c 1,67,-1
 1280 637 l 1,68,69
 1371 708 1371 708 1423.5 806.5 c 128,-1,70
 1476 905 1476 905 1476 1021 c 256,71,72
 1476 1136 1476 1136 1423.5 1235 c 128,-1,73
 1371 1334 1371 1334 1280 1405 c 1,74,-1
 1406 1533 l 1,61,62
EndSplineSet
Validated: 1
EndChar

StartChar: seven
Encoding: 55 55 23
Width: 1792
Flags: W
LayerCount: 2
Fore
SplineSet
1344 746 m 128,-1,1
 1264 746 1264 746 1208 802 c 128,-1,2
 1152 858 1152 858 1152 938 c 128,-1,3
 1152 1018 1152 1018 1208 1074 c 128,-1,4
 1264 1130 1264 1130 1344 1130 c 128,-1,5
 1424 1130 1424 1130 1480 1074 c 128,-1,6
 1536 1018 1536 1018 1536 938 c 128,-1,7
 1536 858 1536 858 1480 802 c 128,-1,0
 1424 746 1424 746 1344 746 c 128,-1,1
1680 1386 m 2,8,9
 1728 1386 1728 1386 1760 1354 c 128,-1,10
 1792 1322 1792 1322 1792 1274 c 2,11,-1
 1792 -38 l 2,12,13
 1792 -86 1792 -86 1760 -118 c 128,-1,14
 1728 -150 1728 -150 1680 -150 c 2,15,-1
 112 -150 l 2,16,17
 64 -150 64 -150 32 -118 c 128,-1,18
 0 -86 0 -86 0 -38 c 2,19,-1
 0 1274 l 2,20,21
 0 1322 0 1322 32 1354 c 128,-1,22
 64 1386 64 1386 112 1386 c 2,23,-1
 1680 1386 l 2,8,9
1268 594 m 1,24,-1
 1664 170 l 1,25,-1
 1664 1210 l 2,26,27
 1664 1258 1664 1258 1612 1258 c 2,28,-1
 180 1258 l 2,29,30
 136 1258 136 1258 128 1210 c 1,31,-1
 128 170 l 1,32,-1
 632 778 l 1,33,34
 664 810 664 810 700 810 c 0,35,36
 744 810 744 810 768 782 c 1,37,-1
 984 546 l 1,38,-1
 1000 530 l 1,39,40
 1023 514 1023 514 1044 514 c 0,41,42
 1063 514 1063 514 1092 534 c 1,43,-1
 1164 598 l 1,44,45
 1193 618 1193 618 1216 618 c 0,46,47
 1248 618 1248 618 1268 594 c 1,24,-1
EndSplineSet
Validated: 1
EndChar

StartChar: eight
Encoding: 56 56 24
Width: 2048
Flags: W
LayerCount: 2
Fore
SplineSet
1108 358 m 1,0,-1
 980 358 l 1,1,-1
 980 698 l 1,2,-1
 852 698 l 1,3,-1
 852 786 l 1,4,-1
 1024 870 l 1,5,-1
 1108 870 l 1,6,-1
 1108 358 l 1,0,-1
1452 186 m 1,7,-1
 1452 530 l 1,8,-1
 1620 530 l 1,9,-1
 1620 18 l 1,10,-1
 596 18 l 1,11,-1
 596 -238 l 1,12,-1
 256 102 l 1,13,-1
 596 442 l 1,14,-1
 596 186 l 1,15,-1
 1452 186 l 1,7,-1
596 1042 m 1,16,-1
 596 698 l 1,17,-1
 428 698 l 1,18,-1
 428 1210 l 1,19,-1
 1452 1210 l 1,20,-1
 1452 1466 l 1,21,-1
 1792 1126 l 1,22,-1
 1452 786 l 1,23,-1
 1452 1042 l 1,24,-1
 596 1042 l 1,16,-1
EndSplineSet
Validated: 1
EndChar

StartChar: nine
Encoding: 57 57 25
Width: 1384
Flags: W
LayerCount: 2
Fore
SplineSet
1378 1049 m 1,0,1
 1383 1036 1383 1036 1383 1005 c 2,2,-1
 1383 -166 l 2,3,4
 1383 -216 1383 -216 1354 -252 c 1,5,6
 1326 -291 1326 -291 1282 -291 c 2,7,-1
 116 -291 l 2,8,9
 73 -291 73 -291 37 -252 c 0,10,11
 1 -214 1 -214 1 -166 c 2,12,-1
 1 1442 l 2,13,14
 1 1486 1 1486 37 1519 c 0,15,16
 74 1553 74 1553 116 1553 c 2,17,-1
 884 1553 l 2,18,19
 912 1553 912 1553 927 1543 c 1,20,21
 959 1526 959 1526 961 1524 c 2,22,-1
 1359 1082 l 1,23,24
 1373 1070 1373 1070 1378 1049 c 1,0,1
927 1327 m 1,25,-1
 927 1025 l 1,26,-1
 1206 1025 l 1,27,-1
 927 1327 l 1,25,-1
154 -137 m 1,28,-1
 1230 -137 l 1,29,-1
 1230 871 l 1,30,-1
 908 871 l 2,31,32
 857 871 857 871 814 912 c 1,33,34
 774 952 774 952 774 1005 c 2,35,-1
 774 1399 l 1,36,-1
 154 1399 l 1,37,-1
 154 -137 l 1,28,-1
EndSplineSet
Validated: 1
EndChar

StartChar: colon
Encoding: 58 58 26
Width: 2048
Flags: W
LayerCount: 2
Fore
SplineSet
1436 1792 m 2,0,1
 1480 1792 1480 1792 1512 1760 c 128,-1,2
 1544 1728 1544 1728 1544 1684 c 2,3,-1
 1544 -224 l 2,4,5
 1544 -248 1544 -248 1524 -254 c 128,-1,6
 1504 -260 1504 -260 1492 -248 c 2,7,-1
 1044 212 l 2,8,9
 1036 220 1036 220 1024 220 c 128,-1,10
 1012 220 1012 220 1004 212 c 2,11,-1
 556 -248 l 2,12,13
 544 -260 544 -260 524 -254 c 128,-1,14
 504 -248 504 -248 504 -224 c 2,15,-1
 504 1684 l 2,16,17
 504 1728 504 1728 536 1760 c 128,-1,18
 568 1792 568 1792 612 1792 c 2,19,-1
 1436 1792 l 2,0,1
EndSplineSet
Validated: 1
EndChar

StartChar: semicolon
Encoding: 59 59 27
Width: 2048
Flags: W
LayerCount: 2
Fore
SplineSet
908 1692 m 0,0,1
 748 1532 748 1532 748 1304 c 128,-1,2
 748 1076 748 1076 908 916 c 128,-1,3
 1068 756 1068 756 1296 756 c 1,4,-1
 1296 -216 l 2,5,6
 1296 -240 1296 -240 1274 -252 c 0,7,8
 1251 -264 1251 -264 1232 -248 c 2,9,-1
 824 100 l 1,10,11
 796 119 796 119 772 100 c 2,12,-1
 360 -248 l 1,13,14
 344 -264 344 -264 320 -252 c 128,-1,15
 296 -240 296 -240 296 -216 c 2,16,-1
 296 1628 l 2,17,18
 296 1696 296 1696 346 1744 c 0,19,20
 395 1792 395 1792 464 1792 c 2,21,-1
 1044 1792 l 1,22,23
 967 1751 967 1751 908 1692 c 0,0,1
1618 1624 m 128,-1,25
 1752 1492 1752 1492 1752 1304 c 128,-1,26
 1752 1116 1752 1116 1618 984 c 128,-1,27
 1484 852 1484 852 1296 852 c 128,-1,28
 1108 852 1108 852 976 984 c 128,-1,29
 844 1116 844 1116 844 1304 c 128,-1,30
 844 1492 844 1492 976 1624 c 128,-1,31
 1108 1756 1108 1756 1296 1756 c 128,-1,24
 1484 1756 1484 1756 1618 1624 c 128,-1,25
1520 1080 m 128,-1,33
 1612 1172 1612 1172 1612 1304 c 128,-1,34
 1612 1436 1612 1436 1520 1528 c 128,-1,35
 1428 1620 1428 1620 1296 1620 c 128,-1,36
 1164 1620 1164 1620 1072 1528 c 128,-1,37
 980 1436 980 1436 980 1304 c 128,-1,38
 980 1172 980 1172 1072 1080 c 128,-1,39
 1164 988 1164 988 1296 988 c 128,-1,32
 1428 988 1428 988 1520 1080 c 128,-1,33
1380 1388 m 1,40,-1
 1484 1388 l 2,41,42
 1516 1388 1516 1388 1540 1362 c 256,43,44
 1564 1336 1564 1336 1564 1302 c 256,45,46
 1564 1268 1564 1268 1540 1244 c 128,-1,47
 1516 1220 1516 1220 1484 1220 c 2,48,-1
 1380 1220 l 1,49,-1
 1380 1120 l 2,50,51
 1380 1084 1380 1084 1356 1060 c 128,-1,52
 1332 1036 1332 1036 1298 1036 c 128,-1,53
 1264 1036 1264 1036 1240 1060 c 128,-1,54
 1216 1084 1216 1084 1216 1120 c 2,55,-1
 1216 1220 l 1,56,-1
 1112 1220 l 2,57,58
 1076 1220 1076 1220 1052 1244 c 128,-1,59
 1028 1268 1028 1268 1028 1302 c 256,60,61
 1028 1336 1028 1336 1052 1362 c 256,62,63
 1076 1388 1076 1388 1112 1388 c 2,64,-1
 1216 1388 l 1,65,-1
 1216 1488 l 2,66,67
 1216 1524 1216 1524 1240 1548 c 128,-1,68
 1264 1572 1264 1572 1298 1572 c 128,-1,69
 1332 1572 1332 1572 1356 1548 c 128,-1,70
 1380 1524 1380 1524 1380 1488 c 2,71,-1
 1380 1388 l 1,40,-1
EndSplineSet
Validated: 1
EndChar

StartChar: equal
Encoding: 61 61 28
Width: 1638
Flags: W
LayerCount: 2
Fore
SplineSet
0 819 m 128,-1,1
 0 985 0 985 65 1137 c 128,-1,2
 130 1289 130 1289 239.5 1398.5 c 128,-1,3
 349 1508 349 1508 501 1573 c 128,-1,4
 653 1638 653 1638 819 1638 c 128,-1,5
 985 1638 985 1638 1137 1573 c 128,-1,6
 1289 1508 1289 1508 1398.5 1398.5 c 128,-1,7
 1508 1289 1508 1289 1573 1137 c 128,-1,8
 1638 985 1638 985 1638 819 c 128,-1,9
 1638 653 1638 653 1573 501 c 128,-1,10
 1508 349 1508 349 1398.5 239.5 c 128,-1,11
 1289 130 1289 130 1137 65 c 128,-1,12
 985 0 985 0 819 0 c 128,-1,13
 653 0 653 0 501 65 c 128,-1,14
 349 130 349 130 239.5 239.5 c 128,-1,15
 130 349 130 349 65 501 c 128,-1,0
 0 653 0 653 0 819 c 128,-1,1
819 164 m 1,16,-1
 819 1475 l 1,17,18
 641 1475 641 1475 490 1387 c 128,-1,19
 339 1299 339 1299 251.5 1148 c 128,-1,20
 164 997 164 997 164 819 c 0,21,22
 164 686 164 686 216 564.5 c 128,-1,23
 268 443 268 443 355.5 355.5 c 128,-1,24
 443 268 443 268 564.5 216 c 128,-1,25
 686 164 686 164 819 164 c 1,16,-1
EndSplineSet
Validated: 1
EndChar

StartChar: question
Encoding: 63 63 29
Width: 1638
Flags: W
LayerCount: 2
Fore
SplineSet
1295 801 m 0,0,1
 1244 830 1244 830 1185 830 c 0,2,3
 1127 830 1127 830 1075 800.5 c 128,-1,4
 1023 771 1023 771 993 719 c 0,5,6
 964 668 964 668 964 609 c 0,7,8
 964 551 964 551 993.5 499 c 128,-1,9
 1023 447 1023 447 1075 417 c 0,10,11
 1126 388 1126 388 1185 388 c 0,12,13
 1243 388 1243 388 1295 417.5 c 128,-1,14
 1347 447 1347 447 1377 499 c 0,15,16
 1406 550 1406 550 1406 609 c 0,17,18
 1406 667 1406 667 1376.5 719 c 128,-1,19
 1347 771 1347 771 1295 801 c 0,0,1
561 419 m 0,20,21
 614 449 614 449 643.5 501 c 128,-1,22
 673 553 673 553 673 612 c 0,23,24
 673 670 673 670 645 720 c 0,25,26
 615 773 615 773 563 802.5 c 128,-1,27
 511 832 511 832 451 832 c 0,28,29
 393 832 393 832 343 804 c 0,30,31
 290 774 290 774 260.5 722 c 128,-1,32
 231 670 231 670 231 611 c 0,33,34
 231 554 231 554 260 502 c 0,35,36
 290 449 290 449 341.5 419.5 c 128,-1,37
 393 390 393 390 452 390 c 0,38,39
 509 390 509 390 561 419 c 0,20,21
598 1241 m 128,-1,41
 598 1150 598 1150 663 1085 c 128,-1,42
 728 1020 728 1020 819 1020 c 128,-1,43
 910 1020 910 1020 975 1085 c 128,-1,44
 1040 1150 1040 1150 1040 1241 c 128,-1,45
 1040 1332 1040 1332 975 1397 c 128,-1,46
 910 1462 910 1462 819 1462 c 128,-1,47
 728 1462 728 1462 663 1397 c 128,-1,40
 598 1332 598 1332 598 1241 c 128,-1,41
0 819 m 128,-1,49
 0 985 0 985 65 1137 c 128,-1,50
 130 1289 130 1289 239.5 1398.5 c 128,-1,51
 349 1508 349 1508 501 1573 c 128,-1,52
 653 1638 653 1638 819 1638 c 128,-1,53
 985 1638 985 1638 1137 1573 c 128,-1,54
 1289 1508 1289 1508 1398.5 1398.5 c 128,-1,55
 1508 1289 1508 1289 1573 1137 c 128,-1,56
 1638 985 1638 985 1638 819 c 128,-1,57
 1638 653 1638 653 1573 501 c 128,-1,58
 1508 349 1508 349 1398.5 239.5 c 128,-1,59
 1289 130 1289 130 1137 65 c 128,-1,60
 985 0 985 0 819 0 c 128,-1,61
 653 0 653 0 501 65 c 128,-1,62
 349 130 349 130 239.5 239.5 c 128,-1,63
 130 349 130 349 65 501 c 128,-1,48
 0 653 0 653 0 819 c 128,-1,49
EndSplineSet
Validated: 1
EndChar

StartChar: at
Encoding: 64 64 30
Width: 2048
Flags: W
LayerCount: 2
Fore
SplineSet
1196 186 m 1,0,-1
 1196 1042 l 1,1,-1
 852 1042 l 1,2,-1
 852 870 l 1,3,-1
 1024 870 l 1,4,-1
 1024 186 l 1,5,-1
 1196 186 l 1,0,-1
1620 1382 m 2,6,7
 1688 1382 1688 1382 1740 1330 c 128,-1,8
 1792 1278 1792 1278 1792 1210 c 2,9,-1
 1792 18 l 2,10,11
 1792 -50 1792 -50 1740 -102 c 128,-1,12
 1688 -154 1688 -154 1620 -154 c 2,13,-1
 428 -154 l 2,14,15
 360 -154 360 -154 308 -102 c 128,-1,16
 256 -50 256 -50 256 18 c 2,17,-1
 256 1210 l 2,18,19
 256 1278 256 1278 308 1330 c 128,-1,20
 360 1382 360 1382 428 1382 c 2,21,-1
 1620 1382 l 2,6,7
EndSplineSet
Validated: 1
EndChar

StartChar: A
Encoding: 65 65 31
Width: 1024
Flags: W
LayerCount: 2
Fore
SplineSet
0 1209 m 1,0,-1
 1024 568 l 1,1,-1
 0 -73 l 1,2,-1
 0 1209 l 1,0,-1
EndSplineSet
Validated: 1
EndChar

StartChar: B
Encoding: 66 66 32
Width: 1280
Flags: W
LayerCount: 2
Fore
SplineSet
965 1209 m 1,0,-1
 1280 1209 l 1,1,-1
 1280 -73 l 1,2,-1
 965 -73 l 1,3,-1
 965 496 l 1,4,-1
 0 -73 l 1,5,-1
 0 1209 l 1,6,-1
 965 640 l 1,7,-1
 965 1209 l 1,0,-1
EndSplineSet
Validated: 1
EndChar

StartChar: C
Encoding: 67 67 33
Width: 1280
Flags: W
LayerCount: 2
Fore
SplineSet
0 1209 m 1,0,-1
 315 1209 l 1,1,-1
 315 640 l 1,2,-1
 1280 1209 l 1,3,-1
 1280 -73 l 1,4,-1
 315 496 l 1,5,-1
 315 -73 l 1,6,-1
 0 -73 l 1,7,-1
 0 1209 l 1,0,-1
EndSplineSet
Validated: 1
EndChar

StartChar: D
Encoding: 68 68 34
Width: 1024
Flags: W
LayerCount: 2
Fore
SplineSet
0 -73 m 1,0,-1
 0 1209 l 1,1,-1
 315 1209 l 1,2,-1
 315 -73 l 1,3,-1
 0 -73 l 1,0,-1
709 -73 m 1,4,-1
 709 1209 l 1,5,-1
 1024 1209 l 1,6,-1
 1024 -73 l 1,7,-1
 709 -73 l 1,4,-1
EndSplineSet
Validated: 1
EndChar

StartChar: E
Encoding: 69 69 35
Width: 1536
Flags: W
LayerCount: 2
Fore
SplineSet
1364 1336 m 2,0,1
 1432 1336 1432 1336 1484 1284 c 128,-1,2
 1536 1232 1536 1232 1536 1164 c 2,3,-1
 1536 -28 l 2,4,5
 1536 -96 1536 -96 1484 -148 c 128,-1,6
 1432 -200 1432 -200 1364 -200 c 2,7,-1
 172 -200 l 2,8,9
 104 -200 104 -200 52 -148 c 128,-1,10
 0 -96 0 -96 0 -28 c 2,11,-1
 0 1164 l 2,12,13
 0 1232 0 1232 52 1284 c 128,-1,14
 104 1336 104 1336 172 1336 c 2,15,-1
 1364 1336 l 2,0,1
EndSplineSet
Validated: 1
EndChar

StartChar: F
Encoding: 70 70 36
Width: 1638
Flags: W
LayerCount: 2
Fore
SplineSet
0 819 m 128,-1,1
 0 985 0 985 65 1137 c 128,-1,2
 130 1289 130 1289 239.5 1398.5 c 128,-1,3
 349 1508 349 1508 501 1573 c 128,-1,4
 653 1638 653 1638 819 1638 c 128,-1,5
 985 1638 985 1638 1137 1573 c 128,-1,6
 1289 1508 1289 1508 1398.5 1398.5 c 128,-1,7
 1508 1289 1508 1289 1573 1137 c 128,-1,8
 1638 985 1638 985 1638 819 c 128,-1,9
 1638 653 1638 653 1573 501 c 128,-1,10
 1508 349 1508 349 1398.5 239.5 c 128,-1,11
 1289 130 1289 130 1137 65 c 128,-1,12
 985 0 985 0 819 0 c 128,-1,13
 653 0 653 0 501 65 c 128,-1,14
 349 130 349 130 239.5 239.5 c 128,-1,15
 130 349 130 349 65 501 c 128,-1,0
 0 653 0 653 0 819 c 128,-1,1
EndSplineSet
Validated: 1
EndChar

StartChar: G
Encoding: 71 71 37
Width: 1536
Flags: W
LayerCount: 2
Fore
SplineSet
1126 1126 m 1,0,-1
 1126 410 l 1,1,-1
 410 410 l 1,2,-1
 410 1126 l 1,3,-1
 1126 1126 l 1,0,-1
1364 1364 m 1,4,-1
 172 1364 l 1,5,-1
 172 172 l 1,6,-1
 1364 172 l 1,7,-1
 1364 1364 l 1,4,-1
1364 1536 m 2,8,9
 1432 1536 1432 1536 1484 1484 c 128,-1,10
 1536 1432 1536 1432 1536 1364 c 2,11,-1
 1536 172 l 2,12,13
 1536 104 1536 104 1484 52 c 128,-1,14
 1432 0 1432 0 1364 0 c 2,15,-1
 172 0 l 2,16,17
 104 0 104 0 52 52 c 128,-1,18
 0 104 0 104 0 172 c 2,19,-1
 0 1364 l 2,20,21
 0 1432 0 1432 52 1484 c 128,-1,22
 104 1536 104 1536 172 1536 c 2,23,-1
 1364 1536 l 2,8,9
EndSplineSet
Validated: 1
EndChar

StartChar: H
Encoding: 72 72 38
Width: 1406
Flags: W
LayerCount: 2
Fore
SplineSet
973 1147 m 1,0,-1
 1372 727 l 1,1,2
 1409 690 1409 690 1409 635 c 0,3,4
 1409 584 1409 584 1372 547 c 1,5,-1
 973 123 l 1,6,7
 936 86 936 86 886 86 c 128,-1,8
 836 86 836 86 800 123 c 0,9,10
 764 161 764 161 764 215 c 0,11,12
 764 270 764 270 801 307 c 1,13,-1
 991 506 l 1,14,-1
 125 506 l 2,15,16
 74 506 74 506 37 545 c 0,17,18
 0 583 0 583 0 635 c 0,19,20
 0 686 0 686 36 725 c 128,-1,21
 72 764 72 764 125 764 c 2,22,-1
 991 764 l 1,23,-1
 797 963 l 2,24,25
 760 1000 760 1000 760 1055 c 128,-1,26
 760 1110 760 1110 796 1147 c 128,-1,27
 832 1184 832 1184 884 1184 c 128,-1,28
 936 1184 936 1184 973 1147 c 1,0,-1
EndSplineSet
Validated: 1
EndChar

StartChar: I
Encoding: 73 73 39
Width: 1406
Flags: W
LayerCount: 2
Fore
SplineSet
436 1147 m 1,0,1
 473 1184 473 1184 525 1184 c 128,-1,2
 577 1184 577 1184 613 1147 c 128,-1,3
 649 1110 649 1110 649 1055 c 128,-1,4
 649 1000 649 1000 612 963 c 2,5,-1
 418 764 l 1,6,-1
 1284 764 l 2,7,8
 1337 764 1337 764 1373 725 c 128,-1,9
 1409 686 1409 686 1409 635 c 0,10,11
 1409 583 1409 583 1372 545 c 0,12,13
 1334 506 1334 506 1284 506 c 2,14,-1
 418 506 l 1,15,-1
 608 307 l 1,16,17
 645 270 645 270 645 215 c 128,-1,18
 645 160 645 160 609 123 c 128,-1,19
 573 86 573 86 523 86 c 128,-1,20
 473 86 473 86 436 123 c 1,21,-1
 37 547 l 1,22,23
 0 584 0 584 0 635 c 0,24,25
 0 690 0 690 37 727 c 1,26,-1
 436 1147 l 1,0,1
EndSplineSet
Validated: 1
EndChar

StartChar: J
Encoding: 74 74 40
Width: 1406
Flags: W
LayerCount: 2
Fore
SplineSet
192 366 m 1,0,1
 156 402 156 402 156 456 c 0,2,3
 156 509 156 509 192 544 c 0,4,5
 230 580 230 580 284 580 c 128,-1,6
 338 580 338 580 376 542 c 2,7,-1
 576 348 l 1,8,-1
 576 1214 l 2,9,10
 576 1269 576 1269 614 1304 c 0,11,12
 653 1340 653 1340 704 1340 c 0,13,14
 754 1340 754 1340 794 1302 c 128,-1,15
 834 1264 834 1264 834 1214 c 2,16,-1
 834 348 l 1,17,-1
 1032 538 l 1,18,19
 1070 576 1070 576 1124 576 c 128,-1,20
 1178 576 1178 576 1216 540 c 128,-1,21
 1254 504 1254 504 1254 454 c 128,-1,22
 1254 404 1254 404 1216 366 c 1,23,-1
 792 -32 l 1,24,25
 754 -70 754 -70 704 -70 c 0,26,27
 650 -70 650 -70 612 -32 c 1,28,-1
 192 366 l 1,0,1
EndSplineSet
Validated: 1
EndChar

StartChar: K
Encoding: 75 75 41
Width: 1406
Flags: W
LayerCount: 2
Fore
SplineSet
192 904 m 1,0,-1
 612 1302 l 1,1,2
 650 1340 650 1340 704 1340 c 0,3,4
 754 1340 754 1340 792 1302 c 1,5,-1
 1216 904 l 1,6,7
 1254 866 1254 866 1254 816 c 128,-1,8
 1254 766 1254 766 1216 730 c 128,-1,9
 1178 694 1178 694 1124 694 c 128,-1,10
 1070 694 1070 694 1032 732 c 1,11,-1
 834 922 l 1,12,-1
 834 56 l 2,13,14
 834 6 834 6 794 -32 c 128,-1,15
 754 -70 754 -70 704 -70 c 0,16,17
 653 -70 653 -70 614 -34 c 0,18,19
 576 1 576 1 576 56 c 2,20,-1
 576 922 l 1,21,-1
 376 728 l 2,22,23
 338 690 338 690 284 690 c 128,-1,24
 230 690 230 690 192 726 c 0,25,26
 156 761 156 761 156 814 c 0,27,28
 156 868 156 868 192 904 c 1,0,-1
EndSplineSet
Validated: 1
EndChar

StartChar: L
Encoding: 76 76 42
Width: 1152
Flags: W
LayerCount: 2
Fore
SplineSet
0 840 m 2,0,1
 0 872 0 872 24 894 c 0,2,3
 47 916 47 916 80 916 c 0,4,5
 112 916 112 916 134 894 c 128,-1,6
 156 872 156 872 156 840 c 2,7,-1
 156 784 l 2,8,9
 156 620 156 620 280 496 c 128,-1,10
 404 372 404 372 576 372 c 128,-1,11
 748 372 748 372 872 496 c 128,-1,12
 996 620 996 620 996 784 c 2,13,-1
 996 840 l 2,14,15
 996 872 996 872 1018 894 c 128,-1,16
 1040 916 1040 916 1072 916 c 0,17,18
 1105 916 1105 916 1128 894 c 0,19,20
 1152 872 1152 872 1152 840 c 2,21,-1
 1152 784 l 2,22,23
 1152 589 1152 589 1030 438 c 0,24,25
 909 288 909 288 720 240 c 1,26,-1
 712 240 l 1,27,-1
 704 236 l 1,28,29
 668 224 668 224 656 184 c 1,30,-1
 656 -48 l 2,31,32
 656 -80 656 -80 632 -104 c 128,-1,33
 608 -128 608 -128 576 -128 c 128,-1,34
 544 -128 544 -128 520 -104 c 128,-1,35
 496 -80 496 -80 496 -48 c 2,36,-1
 496 184 l 1,37,38
 484 224 484 224 448 236 c 1,39,-1
 440 240 l 1,40,-1
 432 240 l 1,41,42
 243 288 243 288 122 438 c 0,43,44
 0 589 0 589 0 784 c 2,45,-1
 0 840 l 2,0,1
268 1360 m 2,46,47
 268 1488 268 1488 358 1576 c 0,48,49
 447 1664 447 1664 576 1664 c 0,50,51
 704 1664 704 1664 796 1574 c 128,-1,52
 888 1484 888 1484 888 1360 c 2,53,-1
 888 784 l 2,54,55
 888 661 888 661 796 572 c 0,56,57
 705 484 705 484 576 484 c 128,-1,58
 447 484 447 484 358 572 c 0,59,60
 268 660 268 660 268 784 c 2,61,-1
 268 1360 l 2,46,47
EndSplineSet
Validated: 1
EndChar

StartChar: M
Encoding: 77 77 43
Width: 1901
Flags: W
LayerCount: 2
Fore
SplineSet
1755 256 m 2,0,-1
 1755 1061 l 2,1,2
 1755 1108 1755 1108 1723 1138 c 1,3,4
 1692 1170 1692 1170 1646 1170 c 2,5,-1
 841 1170 l 2,6,7
 795 1170 795 1170 763 1202 c 128,-1,8
 731 1234 731 1234 731 1280 c 2,9,-1
 731 1353 l 2,10,11
 731 1399 731 1399 699 1431 c 128,-1,12
 667 1463 667 1463 622 1463 c 2,13,-1
 256 1463 l 2,14,15
 210 1463 210 1463 178 1431 c 128,-1,16
 146 1399 146 1399 146 1353 c 2,17,-1
 146 256 l 2,18,19
 146 210 146 210 178 178 c 128,-1,20
 210 146 210 146 256 146 c 2,21,-1
 1646 146 l 2,22,23
 1690 146 1690 146 1724 178 c 1,24,25
 1755 211 1755 211 1755 256 c 2,0,-1
1902 1061 m 2,26,-1
 1902 256 l 2,27,28
 1902 151 1902 151 1826 76 c 1,29,30
 1751 0 1751 0 1646 0 c 2,31,-1
 256 0 l 2,32,33
 151 0 151 0 76 76 c 1,34,35
 0 151 0 151 0 256 c 2,36,-1
 0 1353 l 2,37,38
 0 1458 0 1458 76 1534 c 0,39,40
 151 1609 151 1609 256 1609 c 2,41,-1
 622 1609 l 2,42,43
 727 1609 727 1609 802 1534 c 0,44,45
 878 1458 878 1458 878 1353 c 2,46,-1
 878 1317 l 1,47,-1
 1646 1317 l 2,48,49
 1751 1317 1751 1317 1826 1242 c 0,50,51
 1902 1166 1902 1166 1902 1061 c 2,26,-1
EndSplineSet
Validated: 1
EndChar

StartChar: N
Encoding: 78 78 44
Width: 2194
Flags: W
LayerCount: 2
Fore
SplineSet
2035 691 m 0,0,1
 2035 731 2035 731 1975 731 c 2,2,-1
 731 731 l 2,3,4
 684 731 684 731 634 706 c 1,5,6
 583 683 583 683 552 647 c 1,7,-1
 216 232 l 2,8,9
 195 205 195 205 195 186 c 0,10,11
 195 146 195 146 256 146 c 2,12,-1
 1499 146 l 2,13,14
 1546 146 1546 146 1598 172 c 1,15,16
 1649 196 1649 196 1679 232 c 2,17,-1
 2015 647 l 2,18,19
 2035 673 2035 673 2035 691 c 0,0,1
731 878 m 2,20,-1
 1609 878 l 1,21,-1
 1609 1061 l 2,22,23
 1609 1108 1609 1108 1577 1138 c 1,24,25
 1546 1170 1546 1170 1499 1170 c 2,26,-1
 841 1170 l 2,27,28
 795 1170 795 1170 763 1202 c 128,-1,29
 731 1234 731 1234 731 1280 c 2,30,-1
 731 1353 l 2,31,32
 731 1399 731 1399 699 1431 c 128,-1,33
 667 1463 667 1463 622 1463 c 2,34,-1
 256 1463 l 2,35,36
 210 1463 210 1463 178 1431 c 128,-1,37
 146 1399 146 1399 146 1353 c 2,38,-1
 146 378 l 1,39,-1
 439 738 l 2,40,41
 488 799 488 799 571 838 c 1,42,43
 652 878 652 878 731 878 c 2,20,-1
2182 691 m 0,44,45
 2182 621 2182 621 2129 554 c 1,46,-1
 1792 139 l 2,47,48
 1743 78 1743 78 1660 39 c 0,49,50
 1576 0 1576 0 1499 0 c 2,51,-1
 256 0 l 2,52,53
 151 0 151 0 76 76 c 1,54,55
 0 151 0 151 0 256 c 2,56,-1
 0 1353 l 2,57,58
 0 1458 0 1458 76 1534 c 0,59,60
 151 1609 151 1609 256 1609 c 2,61,-1
 622 1609 l 2,62,63
 727 1609 727 1609 802 1534 c 0,64,65
 878 1458 878 1458 878 1353 c 2,66,-1
 878 1317 l 1,67,-1
 1499 1317 l 2,68,69
 1604 1317 1604 1317 1680 1242 c 1,70,71
 1755 1165 1755 1165 1755 1061 c 2,72,-1
 1755 878 l 1,73,-1
 1975 878 l 2,74,75
 2038 878 2038 878 2088 850 c 0,76,77
 2140 821 2140 821 2165 769 c 1,78,79
 2182 730 2182 730 2182 691 c 0,44,45
EndSplineSet
Validated: 1
EndChar

StartChar: O
Encoding: 79 79 45
Width: 1901
Flags: W
LayerCount: 2
Fore
SplineSet
1902 1061 m 2,0,-1
 1902 256 l 2,1,2
 1902 151 1902 151 1826 76 c 1,3,4
 1751 0 1751 0 1646 0 c 2,5,-1
 256 0 l 2,6,7
 151 0 151 0 76 76 c 1,8,9
 0 151 0 151 0 256 c 2,10,-1
 0 1353 l 2,11,12
 0 1458 0 1458 76 1534 c 0,13,14
 151 1609 151 1609 256 1609 c 2,15,-1
 622 1609 l 2,16,17
 727 1609 727 1609 802 1534 c 0,18,19
 878 1458 878 1458 878 1353 c 2,20,-1
 878 1317 l 1,21,-1
 1646 1317 l 2,22,23
 1751 1317 1751 1317 1826 1242 c 0,24,25
 1902 1166 1902 1166 1902 1061 c 2,0,-1
EndSplineSet
Validated: 1
EndChar

StartChar: P
Encoding: 80 80 46
Width: 2194
Flags: W
LayerCount: 2
Fore
SplineSet
2147 667 m 128,-1,1
 2147 633 2147 633 2112 592 c 2,2,-1
 1728 139 l 2,3,4
 1680 82 1680 82 1590 40 c 1,5,6
 1501 0 1501 0 1426 0 c 2,7,-1
 183 0 l 2,8,9
 144 0 144 0 114 15 c 0,10,11
 83 30 83 30 83 64 c 256,12,13
 83 98 83 98 119 139 c 2,14,-1
 503 592 l 2,15,16
 553 651 553 651 640 690 c 1,17,18
 728 731 728 731 805 731 c 2,19,-1
 2048 731 l 2,20,21
 2087 731 2087 731 2117 716 c 128,-1,0
 2147 701 2147 701 2147 667 c 128,-1,1
1755 1061 m 2,22,-1
 1755 878 l 1,23,-1
 805 878 l 2,24,25
 698 878 698 878 580 824 c 0,26,27
 462 769 462 769 392 687 c 2,28,-1
 7 234 l 1,29,-1
 1 227 l 1,30,31
 1 235 1 235 0 242 c 1,32,-1
 0 256 l 1,33,-1
 0 1353 l 2,34,35
 0 1458 0 1458 76 1534 c 0,36,37
 151 1609 151 1609 256 1609 c 2,38,-1
 622 1609 l 2,39,40
 727 1609 727 1609 802 1534 c 0,41,42
 878 1458 878 1458 878 1353 c 2,43,-1
 878 1317 l 1,44,-1
 1499 1317 l 2,45,46
 1604 1317 1604 1317 1680 1242 c 1,47,48
 1755 1165 1755 1165 1755 1061 c 2,22,-1
EndSplineSet
Validated: 1
EndChar

StartChar: Q
Encoding: 81 81 47
Width: 1664
Flags: W
LayerCount: 2
Fore
SplineSet
1600 960 m 2,0,1
 1628 960 1628 960 1646 942 c 128,-1,2
 1664 924 1664 924 1664 900 c 2,3,-1
 1664 60 l 2,4,5
 1664 36 1664 36 1646 18 c 128,-1,6
 1628 0 1628 0 1600 0 c 2,7,-1
 64 0 l 2,8,9
 36 0 36 0 18 18 c 128,-1,10
 0 36 0 36 0 60 c 2,11,-1
 0 900 l 2,12,13
 0 953 0 953 52 960 c 1,14,15
 41 967 41 967 36 988 c 2,16,-1
 0 1168 l 2,17,18
 -2 1180 -2 1180 -2 1185 c 0,19,20
 -2 1226 -2 1226 52 1240 c 1,21,-1
 1532 1536 l 2,22,23
 1544 1539 1544 1539 1553 1539 c 0,24,25
 1590 1539 1590 1539 1604 1488 c 1,26,-1
 1640 1304 l 2,27,28
 1643 1292 1643 1292 1643 1283 c 0,29,30
 1643 1246 1643 1246 1592 1232 c 1,31,-1
 224 960 l 1,32,-1
 1600 960 l 2,0,1
1028 184 m 1,33,-1
 948 416 l 1,34,-1
 1152 560 l 1,35,-1
 904 560 l 1,36,-1
 824 792 l 1,37,-1
 748 560 l 1,38,-1
 496 560 l 1,39,-1
 700 416 l 1,40,-1
 624 184 l 1,41,-1
 824 328 l 1,42,-1
 1028 184 l 1,33,-1
EndSplineSet
Validated: 1
EndChar

StartChar: R
Encoding: 82 82 48
Width: 1792
Flags: W
LayerCount: 2
Fore
SplineSet
1352 1067 m 2,0,1
 1278 1067 1278 1067 1214 1042 c 1,2,3
 1148 1014 1148 1014 1086 952 c 1,4,5
 1020 889 1020 889 984 847 c 0,6,7
 951 809 951 809 872 700 c 1,8,9
 779 577 779 577 736 526 c 0,10,11
 686 466 686 466 598 383 c 0,12,13
 507 297 507 297 406 258 c 1,14,15
 302 219 302 219 188 219 c 2,16,-1
 0 219 l 1,17,-1
 0 471 l 1,18,-1
 188 471 l 2,19,20
 263 471 263 471 326 498 c 0,21,22
 385 523 385 523 460 598 c 1,23,24
 534 674 534 674 558 706 c 0,25,26
 584 739 584 739 672 856 c 0,27,28
 756 968 756 968 806 1026 c 0,29,30
 853 1080 853 1080 944 1165 c 0,31,32
 1030 1245 1030 1245 1132 1284 c 1,33,34
 1233 1321 1233 1321 1352 1321 c 2,35,-1
 1468 1321 l 1,36,-1
 1468 1536 l 1,37,-1
 1792 1212 l 1,38,-1
 1468 877 l 1,39,-1
 1468 1067 l 1,40,-1
 1352 1067 l 2,0,1
483 920 m 1,41,42
 344 1059 344 1059 188 1065 c 1,43,-1
 0 1065 l 1,44,-1
 0 1317 l 1,45,-1
 188 1317 l 2,46,47
 434 1317 434 1317 639 1124 c 1,48,49
 601 1080 601 1080 528 981 c 0,50,51
 526 977 526 977 518.5 966 c 128,-1,52
 511 955 511 955 506 948 c 0,53,54
 489 926 489 926 483 920 c 1,41,42
1468 471 m 1,55,-1
 1468 659 l 1,56,-1
 1792 324 l 1,57,-1
 1468 0 l 1,58,-1
 1468 215 l 1,59,-1
 1352 215 l 2,60,61
 1096 215 1096 215 885 428 c 1,62,63
 907 450 907 450 1012 592 c 1,64,65
 1020 605 1020 605 1026 612 c 0,66,67
 1036 626 1036 626 1040 629 c 1,68,69
 1183 472 1183 472 1352 471 c 1,70,-1
 1468 471 l 1,55,-1
EndSplineSet
Validated: 1
EndChar

StartChar: S
Encoding: 83 83 49
Width: 2048
Flags: W
LayerCount: 2
Fore
SplineSet
1452 186 m 1,0,-1
 1452 530 l 1,1,-1
 1620 530 l 1,2,-1
 1620 18 l 1,3,-1
 596 18 l 1,4,-1
 596 -238 l 1,5,-1
 256 102 l 1,6,-1
 596 442 l 1,7,-1
 596 186 l 1,8,-1
 1452 186 l 1,0,-1
596 1042 m 1,9,-1
 596 698 l 1,10,-1
 428 698 l 1,11,-1
 428 1210 l 1,12,-1
 1452 1210 l 1,13,-1
 1452 1466 l 1,14,-1
 1792 1126 l 1,15,-1
 1452 786 l 1,16,-1
 1452 1042 l 1,17,-1
 596 1042 l 1,9,-1
EndSplineSet
Validated: 1
EndChar

StartChar: T
Encoding: 84 84 50
Width: 2048
Flags: W
LayerCount: 2
Fore
SplineSet
2048 329 m 2,0,-1
 2048 -37 l 2,1,2
 2048 -84 2048 -84 2016 -114 c 1,3,4
 1985 -146 1985 -146 1938 -146 c 2,5,-1
 1573 -146 l 2,6,7
 1527 -146 1527 -146 1495 -114 c 128,-1,8
 1463 -82 1463 -82 1463 -37 c 2,9,-1
 1463 329 l 2,10,11
 1463 375 1463 375 1495 407 c 128,-1,12
 1527 439 1527 439 1573 439 c 2,13,-1
 1682 439 l 1,14,-1
 1682 658 l 1,15,-1
 1097 658 l 1,16,-1
 1097 439 l 1,17,-1
 1207 439 l 2,18,19
 1253 439 1253 439 1285 407 c 128,-1,20
 1317 375 1317 375 1317 329 c 2,21,-1
 1317 -37 l 2,22,23
 1317 -84 1317 -84 1285 -114 c 1,24,25
 1254 -146 1254 -146 1207 -146 c 2,26,-1
 841 -146 l 2,27,28
 795 -146 795 -146 763 -114 c 128,-1,29
 731 -82 731 -82 731 -37 c 2,30,-1
 731 329 l 2,31,32
 731 375 731 375 763 407 c 128,-1,33
 795 439 795 439 841 439 c 2,34,-1
 951 439 l 1,35,-1
 951 658 l 1,36,-1
 366 658 l 1,37,-1
 366 439 l 1,38,-1
 475 439 l 2,39,40
 521 439 521 439 553 407 c 128,-1,41
 585 375 585 375 585 329 c 2,42,-1
 585 -37 l 2,43,44
 585 -84 585 -84 553 -114 c 1,45,46
 522 -146 522 -146 475 -146 c 2,47,-1
 110 -146 l 2,48,49
 64 -146 64 -146 32 -114 c 128,-1,50
 0 -82 0 -82 0 -37 c 2,51,-1
 0 329 l 2,52,53
 0 375 0 375 32 407 c 128,-1,54
 64 439 64 439 110 439 c 2,55,-1
 219 439 l 1,56,-1
 219 658 l 2,57,58
 219 716 219 716 262 761 c 1,59,60
 308 805 308 805 366 805 c 2,61,-1
 951 805 l 1,62,-1
 951 1024 l 1,63,-1
 841 1024 l 2,64,65
 795 1024 795 1024 763 1056 c 128,-1,66
 731 1088 731 1088 731 1134 c 2,67,-1
 731 1499 l 2,68,69
 731 1545 731 1545 763 1577 c 128,-1,70
 795 1609 795 1609 841 1609 c 2,71,-1
 1207 1609 l 2,72,73
 1253 1609 1253 1609 1285 1577 c 128,-1,74
 1317 1545 1317 1545 1317 1499 c 2,75,-1
 1317 1134 l 2,76,77
 1317 1088 1317 1088 1285 1056 c 128,-1,78
 1253 1024 1253 1024 1207 1024 c 2,79,-1
 1097 1024 l 1,80,-1
 1097 805 l 1,81,-1
 1682 805 l 2,82,83
 1740 805 1740 805 1785 762 c 1,84,85
 1829 716 1829 716 1829 658 c 2,86,-1
 1829 439 l 1,87,-1
 1938 439 l 2,88,89
 1984 439 1984 439 2016 407 c 128,-1,90
 2048 375 2048 375 2048 329 c 2,0,-1
EndSplineSet
Validated: 1
EndChar

StartChar: U
Encoding: 85 85 51
Width: 1536
Flags: W
LayerCount: 2
Fore
SplineSet
512 1280 m 1,0,-1
 512 1024 l 1,1,-1
 1504 1024 l 2,2,3
 1536 1024 1536 1024 1536 992 c 2,4,-1
 1536 32 l 2,5,6
 1536 0 1536 0 1504 0 c 2,7,-1
 288 0 l 2,8,9
 256 0 256 0 256 32 c 2,10,-1
 256 224 l 2,11,12
 256 256 256 256 288 256 c 2,13,-1
 1280 256 l 1,14,-1
 1280 768 l 1,15,-1
 512 768 l 1,16,-1
 512 512 l 1,17,-1
 0 896 l 1,18,-1
 512 1280 l 1,0,-1
EndSplineSet
Validated: 1
EndChar

StartChar: V
Encoding: 86 86 52
Width: 1316
Flags: W
LayerCount: 2
Fore
SplineSet
1229 402 m 128,-1,1
 1229 387 1229 387 1217 376 c 2,2,-1
 1160 319 l 2,3,4
 1149 308 1149 308 1134 307.5 c 128,-1,5
 1119 307 1119 307 1107 319 c 2,6,-1
 658 768 l 1,7,-1
 209 319 l 2,8,9
 198 308 198 308 183 307.5 c 128,-1,10
 168 307 168 307 157 319 c 2,11,-1
 99 376 l 2,12,13
 88 387 88 387 88 402 c 128,-1,14
 88 417 88 417 99 429 c 2,15,-1
 632 961 l 2,16,17
 643 972 643 972 658 972.5 c 128,-1,18
 673 973 673 973 685 961 c 2,19,-1
 1217 429 l 2,20,0
 1229 417 1229 417 1229 402 c 128,-1,1
EndSplineSet
Validated: 1
EndChar

StartChar: W
Encoding: 87 87 53
Width: 1316
Flags: W
LayerCount: 2
Fore
SplineSet
1229 914 m 128,-1,1
 1229 899 1229 899 1217 888 c 2,2,-1
 685 355 l 2,3,4
 674 344 674 344 658.5 344 c 128,-1,5
 643 344 643 344 632 355 c 2,6,-1
 99 888 l 2,7,8
 88 899 88 899 88 914 c 128,-1,9
 88 929 88 929 99 941 c 2,10,-1
 157 998 l 2,11,12
 168 1009 168 1009 183 1009 c 128,-1,13
 198 1009 198 1009 209 998 c 2,14,-1
 658 549 l 1,15,-1
 1107 998 l 2,16,17
 1118 1009 1118 1009 1133.5 1009 c 128,-1,18
 1149 1009 1149 1009 1160 998 c 2,19,-1
 1217 941 l 2,20,0
 1229 929 1229 929 1229 914 c 128,-1,1
EndSplineSet
Validated: 1
EndChar

StartChar: X
Encoding: 88 88 54
Width: 1830
Flags: W
LayerCount: 2
Fore
SplineSet
704 -77 m 1,0,-1
 273 -77 l 1,1,-1
 273 768 l 1,2,-1
 0 768 l 1,3,-1
 915 1613 l 1,4,-1
 1830 768 l 1,5,-1
 1558 768 l 1,6,-1
 1558 -77 l 1,7,-1
 1126 -77 l 1,8,-1
 1126 486 l 1,9,-1
 704 486 l 1,10,-1
 704 -77 l 1,0,-1
EndSplineSet
Validated: 1
EndChar

StartChar: Y
Encoding: 89 89 55
Width: 1901
Flags: W
LayerCount: 2
Fore
SplineSet
439 186 m 132,-1,1
 439 216 439 216 417 237.5 c 132,-1,2
 395 259 395 259 365.5 259 c 132,-1,3
 336 259 336 259 314.5 237.5 c 132,-1,4
 293 216 293 216 293 186 c 132,-1,5
 293 156 293 156 314.5 134.5 c 132,-1,6
 336 113 336 113 365.5 113 c 132,-1,7
 395 113 395 113 417 134.5 c 132,-1,0
 439 156 439 156 439 186 c 132,-1,1
1175 666 m 5,8,-1
 395 -113 l 6,9,10
 353 -155 353 -155 293 -156 c 4,11,12
 234 -156 234 -156 189 -113 c 6,13,-1
 67 10 l 6,14,15
 24 51 24 51 24 113 c 4,16,17
 24 174 24 174 67 217 c 6,18,-1
 846 995 l 5,19,20
 891 883 891 883 977 797 c 132,-1,21
 1063 711 1063 711 1175 666 c 5,8,-1
1899 1163 m 4,22,23
 1899 1118 1899 1118 1873 1042 c 4,24,25
 1819 889 1819 889 1685 793.5 c 132,-1,26
 1551 698 1551 698 1390 698 c 4,27,28
 1179 698 1179 698 1028.5 848.5 c 132,-1,29
 878 999 878 999 878 1210.5 c 132,-1,30
 878 1422 878 1422 1028 1572 c 132,-1,31
 1178 1722 1178 1722 1390 1722 c 4,32,33
 1456 1722 1456 1722 1528.5 1703 c 132,-1,34
 1601 1684 1601 1684 1651 1650 c 4,35,36
 1669 1637 1669 1637 1669.5 1618 c 132,-1,37
 1670 1599 1670 1599 1651 1586 c 6,38,-1
 1317 1393 l 5,39,-1
 1317 1137 l 5,40,-1
 1537 1015 l 5,41,42
 1543 1018 1543 1018 1627.5 1070 c 132,-1,43
 1712 1122 1712 1122 1782.5 1162.5 c 132,-1,44
 1853 1203 1853 1203 1863 1203 c 4,45,46
 1880 1203 1880 1203 1889.5 1191.5 c 132,-1,47
 1899 1180 1899 1180 1899 1163 c 4,22,23
EndSplineSet
Validated: 1
EndChar

StartChar: Z
Encoding: 90 90 56
Width: 1536
Flags: W
LayerCount: 2
Fore
SplineSet
1412 755 m 2,0,1
 1464 755 1464 755 1500 717 c 0,2,3
 1536 680 1536 680 1536 627 c 128,-1,4
 1536 574 1536 574 1500 537 c 0,5,6
 1464 499 1464 499 1412 499 c 2,7,-1
 124 499 l 2,8,9
 72 499 72 499 36 537 c 0,10,11
 0 574 0 574 0 627 c 128,-1,12
 0 680 0 680 36 717 c 0,13,14
 72 755 72 755 124 755 c 2,15,-1
 1412 755 l 2,0,1
1412 1267 m 2,16,17
 1464 1267 1464 1267 1500 1229 c 0,18,19
 1536 1192 1536 1192 1536 1139 c 128,-1,20
 1536 1086 1536 1086 1500 1049 c 0,21,22
 1464 1011 1464 1011 1412 1011 c 2,23,-1
 124 1011 l 2,24,25
 72 1011 72 1011 36 1049 c 0,26,27
 0 1086 0 1086 0 1139 c 128,-1,28
 0 1192 0 1192 36 1229 c 0,29,30
 72 1267 72 1267 124 1267 c 2,31,-1
 1412 1267 l 2,16,17
1412 243 m 2,32,33
 1464 243 1464 243 1500 205 c 0,34,35
 1536 168 1536 168 1536 115 c 128,-1,36
 1536 62 1536 62 1500 25 c 0,37,38
 1464 -13 1464 -13 1412 -13 c 2,39,-1
 124 -13 l 2,40,41
 72 -13 72 -13 36 25 c 0,42,43
 0 62 0 62 0 115 c 128,-1,44
 0 168 0 168 36 205 c 0,45,46
 72 243 72 243 124 243 c 2,47,-1
 1412 243 l 2,32,33
EndSplineSet
Validated: 1
EndChar

StartChar: bracketleft
Encoding: 91 91 57
Width: 921
Flags: W
LayerCount: 2
Fore
SplineSet
819 0 m 1,0,1
 653 0 653 0 501 65 c 128,-1,2
 349 130 349 130 239.5 239.5 c 128,-1,3
 130 349 130 349 65 501 c 128,-1,4
 0 653 0 653 0 819 c 128,-1,5
 0 985 0 985 65 1137 c 128,-1,6
 130 1289 130 1289 239.5 1398.5 c 128,-1,7
 349 1508 349 1508 501 1573 c 128,-1,8
 653 1638 653 1638 819 1638 c 1,9,-1
 819 0 l 1,0,1
EndSplineSet
Validated: 1
EndChar

StartChar: backslash
Encoding: 92 92 58
Width: 614
Flags: W
LayerCount: 2
Fore
SplineSet
102 614 m 1,0,-1
 102 1024 l 1,1,-1
 512 1024 l 1,2,-1
 512 614 l 1,3,-1
 102 614 l 1,0,-1
EndSplineSet
Validated: 1
EndChar

StartChar: bracketright
Encoding: 93 93 59
Width: 921
Flags: W
LayerCount: 2
Fore
SplineSet
102 0 m 1,0,-1
 102 1638 l 1,1,2
 269 1638 269 1638 420.5 1573 c 128,-1,3
 572 1508 572 1508 682 1398.5 c 128,-1,4
 792 1289 792 1289 857 1137 c 128,-1,5
 922 985 922 985 922 819 c 128,-1,6
 922 653 922 653 857 501 c 128,-1,7
 792 349 792 349 682 239.5 c 128,-1,8
 572 130 572 130 420.5 65 c 128,-1,9
 269 0 269 0 102 0 c 1,0,-1
EndSplineSet
Validated: 1
EndChar

StartChar: asciicircum
Encoding: 94 94 60
Width: 2048
Flags: W
LayerCount: 2
Fore
SplineSet
768 2048 m 2,0,-1
 1109 2048 l 2,1,2
 1144 2048 1144 2048 1170 2024 c 1,3,4
 1195 1999 1195 1999 1195 1963 c 2,5,-1
 1195 1365 l 1,6,-1
 1613 1365 l 2,7,8
 1647 1365 1647 1365 1656 1346 c 0,9,10
 1664 1327 1664 1327 1640 1302 c 1,11,-1
 986 575 l 1,12,13
 961 549 961 549 929 550 c 1,14,15
 896 550 896 550 874 575 c 2,16,-1
 227 1302 l 2,17,18
 205 1326 205 1326 212 1346 c 1,19,20
 221 1365 221 1365 256 1365 c 2,21,-1
 683 1365 l 1,22,-1
 683 1963 l 2,23,24
 683 1999 683 1999 708 2024 c 0,25,26
 732 2048 732 2048 768 2048 c 2,0,-1
85 512 m 2,27,-1
 1792 512 l 2,28,29
 1828 512 1828 512 1852 488 c 0,30,31
 1877 463 1877 463 1877 427 c 2,32,-1
 1877 0 l 1,33,-1
 0 0 l 1,34,-1
 0 427 l 2,35,36
 0 462 0 462 24 488 c 1,37,38
 49 512 49 512 85 512 c 2,27,-1
1536 341 m 1,39,-1
 1536 256 l 1,40,-1
 1707 256 l 1,41,-1
 1707 341 l 1,42,-1
 1536 341 l 1,39,-1
EndSplineSet
Validated: 1
EndChar

StartChar: underscore
Encoding: 95 95 61
Width: 2048
Flags: W
LayerCount: 2
Fore
SplineSet
2012 1064 m 1,0,1
 2048 920 2048 920 2048 764 c 0,2,3
 2048 400 2048 400 1866 140 c 128,-1,4
 1684 -120 1684 -120 1428 -120 c 0,5,6
 1236 -120 1236 -120 1082 30 c 0,7,8
 928 179 928 179 856 420 c 1,9,10
 980 484 980 484 1080 608 c 1,11,12
 1117 576 1117 576 1172 576 c 0,13,14
 1220 576 1220 576 1256 618 c 128,-1,15
 1292 660 1292 660 1292 696 c 0,16,17
 1292 717 1292 717 1276 724 c 0,18,19
 1256 733 1256 733 1244 734 c 0,20,21
 1222 736 1222 736 1192 736 c 2,22,-1
 1172 736 l 1,23,-1
 1170 736 l 1,24,-1
 1164 736 l 1,25,26
 1244 874 1244 874 1280 1036 c 1,27,28
 1348 1032 1348 1032 1428 1032 c 0,29,30
 1744 1032 1744 1032 1944 1104 c 1,31,32
 1964 1109 1964 1109 1984 1098 c 0,33,34
 2005 1087 2005 1087 2012 1064 c 1,0,1
1676 140 m 1,35,36
 1680 165 1680 165 1680 192 c 0,37,38
 1680 296 1680 296 1606 370 c 128,-1,39
 1532 444 1532 444 1428 444 c 0,40,41
 1325 444 1325 444 1248 370 c 0,42,43
 1172 297 1172 297 1172 192 c 0,44,45
 1172 170 1172 170 1180 140 c 1,46,47
 1180 132 1180 132 1188 130 c 0,48,49
 1198 128 1198 128 1204 132 c 0,50,51
 1284 200 1284 200 1428 200 c 128,-1,52
 1572 200 1572 200 1652 132 c 0,53,54
 1658 128 1658 128 1666 130 c 0,55,56
 1671 131 1671 131 1676 140 c 1,35,36
1680 576 m 0,57,58
 1732 576 1732 576 1766 600 c 128,-1,59
 1800 624 1800 624 1800 656 c 128,-1,60
 1800 688 1800 688 1766 712 c 128,-1,61
 1732 736 1732 736 1680 736 c 0,62,63
 1612 736 1612 736 1588 730 c 128,-1,64
 1564 724 1564 724 1564 696 c 0,65,66
 1564 660 1564 660 1600 618 c 128,-1,67
 1636 576 1636 576 1680 576 c 0,57,58
1240 1316 m 0,68,69
 1240 949 1240 949 1058 690 c 0,70,71
 876 432 876 432 620 432 c 128,-1,72
 364 432 364 432 182 690 c 0,73,74
 0 949 0 949 0 1316 c 0,75,76
 0 1472 0 1472 36 1616 c 1,77,78
 44 1640 44 1640 64 1648 c 1,79,80
 77 1656 77 1656 88 1656 c 0,81,82
 97 1656 97 1656 104 1652 c 1,83,84
 305 1584 305 1584 622 1584 c 0,85,86
 938 1584 938 1584 1136 1652 c 1,87,88
 1143 1656 1143 1656 1156 1656 c 0,89,90
 1167 1656 1167 1656 1180 1648 c 1,91,92
 1199 1641 1199 1641 1204 1616 c 1,93,94
 1240 1472 1240 1472 1240 1316 c 0,68,69
248 1206 m 128,-1,96
 248 1172 248 1172 282 1150 c 128,-1,97
 316 1128 316 1128 368 1128 c 0,98,99
 439 1128 439 1128 460 1132 c 0,100,101
 484 1136 484 1136 484 1164 c 0,102,103
 484 1204 484 1204 448 1244 c 128,-1,104
 412 1284 412 1284 368 1284 c 0,105,106
 316 1284 316 1284 282 1262 c 128,-1,95
 248 1240 248 1240 248 1206 c 128,-1,96
620 600 m 0,107,108
 723 600 723 600 800 674 c 0,109,110
 876 747 876 747 876 852 c 0,111,112
 876 874 876 874 868 904 c 1,113,114
 868 912 868 912 860 914 c 0,115,116
 850 916 850 916 844 912 c 0,117,118
 764 844 764 844 620 844 c 128,-1,119
 476 844 476 844 396 912 c 0,120,121
 390 916 390 916 382 914 c 0,122,123
 377 913 377 913 372 904 c 1,124,125
 368 879 368 879 368 852 c 0,126,127
 368 748 368 748 442 674 c 128,-1,128
 516 600 516 600 620 600 c 0,107,108
756 1164 m 0,129,130
 756 1148 756 1148 772 1138 c 128,-1,131
 788 1128 788 1128 804 1128 c 2,132,-1
 856 1128 l 1,133,-1
 876 1128 l 2,134,135
 924 1128 924 1128 958 1150 c 128,-1,136
 992 1172 992 1172 992 1206 c 128,-1,137
 992 1240 992 1240 958 1262 c 128,-1,138
 924 1284 924 1284 876 1284 c 128,-1,139
 828 1284 828 1284 792 1244 c 128,-1,140
 756 1204 756 1204 756 1164 c 0,129,130
EndSplineSet
Validated: 1
EndChar

StartChar: a
Encoding: 97 97 62
Width: 2048
Flags: W
LayerCount: 2
Fore
SplineSet
170 -45 m 1,0,-1
 342 -45 l 1,1,-1
 342 -215 l 1,2,-1
 1706 -215 l 1,3,-1
 1706 -45 l 1,4,-1
 1878 -45 l 1,5,-1
 1878 -387 l 1,6,-1
 170 -387 l 1,7,-1
 170 -45 l 1,0,-1
426 723 m 1,8,-1
 1024 1321 l 1,9,-1
 1622 723 l 1,10,-1
 1237 723 l 1,11,-1
 1237 41 l 1,12,-1
 811 41 l 1,13,-1
 811 723 l 1,14,-1
 426 723 l 1,8,-1
EndSplineSet
Validated: 1
EndChar

StartChar: b
Encoding: 98 98 63
Width: 1536
Flags: W
LayerCount: 2
Fore
SplineSet
1411 747 m 2,0,1
 1462 747 1462 747 1499 708 c 0,2,3
 1536 670 1536 670 1536 618 c 0,4,5
 1536 567 1536 567 1500 528 c 128,-1,6
 1464 489 1464 489 1411 489 c 2,7,-1
 897 489 l 1,8,-1
 897 -25 l 2,9,10
 897 -76 897 -76 858 -113 c 0,11,12
 820 -150 820 -150 768 -150 c 0,13,14
 717 -150 717 -150 678 -114 c 128,-1,15
 639 -78 639 -78 639 -25 c 2,16,-1
 639 489 l 1,17,-1
 125 489 l 2,18,19
 74 489 74 489 37 528 c 0,20,21
 0 566 0 566 0 618 c 0,22,23
 0 669 0 669 36 708 c 128,-1,24
 72 747 72 747 125 747 c 2,25,-1
 639 747 l 1,26,-1
 639 1261 l 2,27,28
 639 1312 639 1312 678 1349 c 0,29,30
 716 1386 716 1386 768 1386 c 0,31,32
 819 1386 819 1386 858 1350 c 128,-1,33
 897 1314 897 1314 897 1261 c 2,34,-1
 897 747 l 1,35,-1
 1411 747 l 2,0,1
EndSplineSet
Validated: 1
EndChar

StartChar: c
Encoding: 99 99 64
Width: 2048
Flags: W
LayerCount: 2
Fore
SplineSet
170 -45 m 1,0,-1
 342 -45 l 1,1,-1
 342 -215 l 1,2,-1
 1706 -215 l 1,3,-1
 1706 -45 l 1,4,-1
 1878 -45 l 1,5,-1
 1878 -387 l 1,6,-1
 170 -387 l 1,7,-1
 170 -45 l 1,0,-1
426 637 m 1,8,-1
 811 637 l 1,9,-1
 811 1321 l 1,10,-1
 1237 1321 l 1,11,-1
 1237 637 l 1,12,-1
 1622 637 l 1,13,-1
 1024 41 l 1,14,-1
 426 637 l 1,8,-1
EndSplineSet
Validated: 1
EndChar

StartChar: d
Encoding: 100 100 65
Width: 1536
Flags: W
LayerCount: 2
Fore
SplineSet
0 904 m 1,0,-1
 340 904 l 1,1,-1
 768 1353 l 1,2,-1
 768 -57 l 1,3,-1
 340 392 l 1,4,-1
 0 392 l 1,5,-1
 0 904 l 1,0,-1
EndSplineSet
Validated: 1
EndChar

StartChar: e
Encoding: 101 101 66
Width: 1536
Flags: W
LayerCount: 2
Fore
SplineSet
0 904 m 1,0,-1
 340 904 l 1,1,-1
 768 1353 l 1,2,-1
 768 -57 l 1,3,-1
 340 392 l 1,4,-1
 0 392 l 1,5,-1
 0 904 l 1,0,-1
1151 648 m 0,6,7
 1151 530 1151 530 1094 436 c 0,8,9
 1037 341 1037 341 940 296 c 1,10,-1
 940 1004 l 1,11,12
 1038 957 1038 957 1094 859 c 0,13,14
 1151 760 1151 760 1151 648 c 0,6,7
EndSplineSet
Validated: 1
EndChar

StartChar: f
Encoding: 102 102 67
Width: 1536
Flags: W
LayerCount: 2
Fore
SplineSet
0 904 m 1,0,-1
 340 904 l 1,1,-1
 768 1353 l 1,2,-1
 768 -57 l 1,3,-1
 340 392 l 1,4,-1
 0 392 l 1,5,-1
 0 904 l 1,0,-1
1151 648 m 0,6,7
 1151 530 1151 530 1094 436 c 0,8,9
 1037 341 1037 341 940 296 c 1,10,-1
 940 1004 l 1,11,12
 1038 957 1038 957 1094 859 c 0,13,14
 1151 760 1151 760 1151 648 c 0,6,7
940 1416 m 1,15,16
 1197 1356 1197 1356 1366 1141 c 0,17,18
 1536 924 1536 924 1536 648 c 128,-1,19
 1536 372 1536 372 1366 155 c 0,20,21
 1197 -60 1197 -60 940 -120 c 1,22,-1
 940 60 l 1,23,24
 1127 115 1127 115 1246 279 c 0,25,26
 1364 442 1364 442 1364 648 c 128,-1,27
 1364 854 1364 854 1246 1017 c 0,28,29
 1127 1181 1127 1181 940 1236 c 1,30,-1
 940 1416 l 1,15,16
EndSplineSet
Validated: 1
EndChar

StartChar: g
Encoding: 103 103 68
Width: 1536
Flags: W
LayerCount: 2
Fore
SplineSet
1368 648 m 0,0,1
 1368 854 1368 854 1248 1017 c 0,2,3
 1128 1181 1128 1181 940 1236 c 1,4,-1
 940 1416 l 1,5,6
 1197 1356 1197 1356 1366 1141 c 0,7,8
 1536 924 1536 924 1536 648 c 0,9,10
 1536 433 1536 433 1440 265 c 1,11,-1
 1313 392 l 1,12,13
 1368 512 1368 512 1368 648 c 0,0,1
768 1353 m 1,14,-1
 768 937 l 1,15,-1
 563 1140 l 1,16,-1
 768 1353 l 1,14,-1
1427 85 m 1,17,-1
 1524 -11 l 1,18,-1
 1427 -108 l 1,19,-1
 1268 52 l 1,20,21
 1122 -80 1122 -80 940 -120 c 1,22,-1
 940 60 l 1,23,24
 1064 100 1064 100 1149 173 c 1,25,-1
 768 552 l 1,26,-1
 768 -57 l 1,27,-1
 340 392 l 1,28,-1
 0 392 l 1,29,-1
 0 904 l 1,30,-1
 340 904 l 1,31,-1
 377 945 l 1,32,-1
 12 1307 l 1,33,-1
 109 1404 l 1,34,-1
 1427 85 l 1,17,-1
1151 648 m 0,35,36
 1151 588 1151 588 1145 560 c 1,37,-1
 940 765 l 1,38,-1
 940 1004 l 1,39,40
 1038 957 1038 957 1094 859 c 0,41,42
 1151 760 1151 760 1151 648 c 0,35,36
EndSplineSet
Validated: 1
EndChar

StartChar: h
Encoding: 104 104 69
Width: 1609
Flags: W
LayerCount: 2
Fore
SplineSet
585 914 m 2,0,-1
 585 256 l 2,1,2
 585 239 585 239 575 230 c 1,3,4
 565 219 565 219 549 219 c 2,5,-1
 475 219 l 2,6,7
 459 219 459 219 449 230 c 1,8,9
 439 239 439 239 439 256 c 2,10,-1
 439 914 l 2,11,12
 439 931 439 931 449 940 c 1,13,14
 459 951 459 951 475 951 c 2,15,-1
 549 951 l 2,16,17
 565 951 565 951 575 940 c 1,18,19
 585 931 585 931 585 914 c 2,0,-1
878 914 m 2,20,-1
 878 256 l 2,21,22
 878 240 878 240 868 230 c 0,23,24
 857 219 857 219 841 219 c 2,25,-1
 768 219 l 2,26,27
 750 219 750 219 742 230 c 1,28,29
 731 238 731 238 731 256 c 2,30,-1
 731 914 l 2,31,32
 731 932 731 932 742 940 c 1,33,34
 750 951 750 951 768 951 c 2,35,-1
 841 951 l 2,36,37
 857 951 857 951 868 940 c 0,38,39
 878 930 878 930 878 914 c 2,20,-1
1170 914 m 2,40,-1
 1170 256 l 2,41,42
 1170 239 1170 239 1160 230 c 1,43,44
 1150 219 1150 219 1134 219 c 2,45,-1
 1061 219 l 2,46,47
 1045 219 1045 219 1034 230 c 0,48,49
 1024 240 1024 240 1024 256 c 2,50,-1
 1024 914 l 2,51,52
 1024 930 1024 930 1034 940 c 0,53,54
 1045 951 1045 951 1061 951 c 2,55,-1
 1134 951 l 2,56,57
 1150 951 1150 951 1160 940 c 1,58,59
 1170 931 1170 931 1170 914 c 2,40,-1
1317 87 m 2,60,-1
 1317 1170 l 1,61,-1
 293 1170 l 1,62,-1
 293 87 l 2,63,64
 293 64 293 64 301 40 c 0,65,66
 308 20 308 20 318 10 c 1,67,68
 325 0 325 0 329 0 c 2,69,-1
 1280 0 l 2,70,71
 1283 0 1283 0 1292 10 c 0,72,73
 1302 20 1302 20 1309 40 c 0,74,75
 1317 64 1317 64 1317 87 c 2,60,-1
549 1317 m 1,76,-1
 1061 1317 l 1,77,-1
 1006 1450 l 1,78,79
 999 1460 999 1460 986 1463 c 1,80,-1
 624 1463 l 1,81,82
 613 1461 613 1461 605 1450 c 1,83,-1
 549 1317 l 1,76,-1
1609 1280 m 2,84,-1
 1609 1207 l 2,85,86
 1609 1191 1609 1191 1599 1180 c 1,87,88
 1587 1170 1587 1170 1573 1170 c 2,89,-1
 1463 1170 l 1,90,-1
 1463 87 l 2,91,92
 1463 -8 1463 -8 1409 -77 c 128,-1,93
 1355 -146 1355 -146 1280 -146 c 2,94,-1
 329 -146 l 2,95,96
 254 -146 254 -146 200 -80 c 1,97,98
 146 -12 146 -12 146 82 c 2,99,-1
 146 1170 l 1,100,-1
 37 1170 l 2,101,102
 23 1170 23 1170 10 1180 c 1,103,104
 0 1193 0 1193 0 1207 c 2,105,-1
 0 1280 l 2,106,107
 0 1296 0 1296 10 1306 c 0,108,109
 21 1317 21 1317 37 1317 c 2,110,-1
 390 1317 l 1,111,-1
 470 1507 l 1,112,113
 486 1549 486 1549 532 1579 c 1,114,115
 576 1609 576 1609 622 1609 c 2,116,-1
 987 1609 l 2,117,118
 1032 1609 1032 1609 1078 1580 c 1,119,120
 1123 1549 1123 1549 1139 1507 c 1,121,-1
 1219 1317 l 1,122,-1
 1573 1317 l 2,123,124
 1589 1317 1589 1317 1599 1306 c 1,125,126
 1609 1297 1609 1297 1609 1280 c 2,84,-1
EndSplineSet
Validated: 1
EndChar

StartChar: i
Encoding: 105 105 70
Width: 1792
Flags: W
LayerCount: 2
Fore
SplineSet
1780 104 m 2,0,1
 1795 79 1795 79 1795 58 c 0,2,3
 1795 47 1795 47 1788 33 c 1,4,5
 1767 0 1767 0 1733 0 c 2,6,-1
 59 0 l 2,7,8
 22 0 22 0 4 33 c 0,9,10
 -3 47 -3 47 -3 58 c 0,11,12
 -3 78 -3 78 12 104 c 2,13,-1
 840 1499 l 2,14,15
 861 1536 861 1536 896 1536 c 128,-1,16
 931 1536 931 1536 952 1499 c 2,17,-1
 1780 104 l 2,0,1
1024 193 m 1,18,-1
 1024 385 l 1,19,-1
 768 385 l 1,20,-1
 768 193 l 1,21,-1
 1024 193 l 1,18,-1
1024 512 m 1,22,-1
 1024 1087 l 1,23,-1
 768 1087 l 1,24,-1
 768 512 l 1,25,-1
 1024 512 l 1,22,-1
EndSplineSet
Validated: 1
EndChar

StartChar: j
Encoding: 106 106 71
Width: 1755
Flags: W
LayerCount: 2
Fore
SplineSet
1170 183 m 2,0,-1
 1170 366 l 2,1,2
 1170 382 1170 382 1160 392 c 128,-1,3
 1150 402 1150 402 1134 402 c 2,4,-1
 1024 402 l 1,5,-1
 1024 987 l 2,6,7
 1024 1001 1024 1001 1014 1014 c 1,8,9
 1001 1024 1001 1024 987 1024 c 2,10,-1
 622 1024 l 2,11,12
 606 1024 606 1024 596 1014 c 0,13,14
 585 1003 585 1003 585 987 c 2,15,-1
 585 805 l 2,16,17
 585 789 585 789 596 778 c 0,18,19
 606 768 606 768 622 768 c 2,20,-1
 731 768 l 1,21,-1
 731 402 l 1,22,-1
 622 402 l 2,23,24
 605 402 605 402 596 392 c 1,25,26
 585 382 585 382 585 366 c 2,27,-1
 585 183 l 2,28,29
 585 167 585 167 596 156 c 0,30,31
 606 146 606 146 622 146 c 2,32,-1
 1134 146 l 2,33,34
 1148 146 1148 146 1160 156 c 1,35,36
 1170 167 1170 167 1170 183 c 2,0,-1
1024 1207 m 2,37,-1
 1024 1390 l 2,38,39
 1024 1404 1024 1404 1014 1416 c 1,40,41
 1003 1426 1003 1426 987 1426 c 2,42,-1
 768 1426 l 2,43,44
 751 1426 751 1426 742 1416 c 1,45,46
 731 1406 731 1406 731 1390 c 2,47,-1
 731 1207 l 2,48,49
 731 1191 731 1191 742 1180 c 0,50,51
 752 1170 752 1170 768 1170 c 2,52,-1
 987 1170 l 2,53,54
 1001 1170 1001 1170 1014 1180 c 1,55,56
 1024 1193 1024 1193 1024 1207 c 2,37,-1
1755 732 m 0,57,58
 1755 494 1755 494 1638 291 c 1,59,60
 1519 88 1519 88 1318 -28 c 1,61,62
 1118 -146 1118 -146 878 -146 c 0,63,64
 639 -146 639 -146 437 -28 c 0,65,66
 235 89 235 89 118 291 c 0,67,68
 0 493 0 493 0 732 c 0,69,70
 0 970 0 970 118 1172 c 1,71,72
 234 1373 234 1373 437 1492 c 1,73,74
 640 1609 640 1609 878 1609 c 0,75,76
 1117 1609 1117 1609 1318 1492 c 0,77,78
 1520 1374 1520 1374 1638 1172 c 1,79,80
 1755 969 1755 969 1755 732 c 0,57,58
EndSplineSet
Validated: 1
EndChar

StartChar: k
Encoding: 107 107 72
Width: 1664
Flags: W
LayerCount: 2
Fore
SplineSet
1656 1352 m 1,0,1
 1664 1334 1664 1334 1664 1328 c 128,-1,2
 1664 1322 1664 1322 1656 1304 c 1,3,-1
 660 24 l 1,4,5
 636 0 636 0 624 0 c 0,6,7
 604 0 604 0 584 20 c 2,8,-1
 20 564 l 1,9,-1
 8 576 l 1,10,11
 0 594 0 594 0 600 c 0,12,13
 0 602 0 602 8 620 c 1,14,-1
 16 628 l 1,15,16
 136 756 136 756 192 812 c 0,17,18
 216 836 216 836 224 836 c 0,19,20
 240 836 240 836 264 812 c 2,21,-1
 584 500 l 1,22,-1
 1384 1528 l 1,23,24
 1392 1536 1392 1536 1408 1536 c 0,25,26
 1418 1536 1418 1536 1436 1528 c 1,27,-1
 1656 1352 l 1,0,1
EndSplineSet
Validated: 1
EndChar

StartChar: l
Encoding: 108 108 73
Width: 2048
Flags: W
LayerCount: 2
Fore
SplineSet
2008 1292 m 1,0,1
 2042 1184 2042 1184 2047 1077 c 0,2,3
 2048 1064 2048 1064 2048 1038 c 0,4,5
 2048 952 2048 952 2030 868 c 0,6,7
 2007 765 2007 765 1964 671 c 128,-1,8
 1921 577 1921 577 1860 492 c 1,9,10
 1823 443 1823 443 1774 384 c 0,11,12
 1745 349 1745 349 1683 283 c 0,13,14
 1640 237 1640 237 1587 189 c 0,15,16
 1525 132 1525 132 1490 102 c 1,17,18
 1427 45 1427 45 1375 1 c 0,19,20
 1294 -67 1294 -67 1237 -111 c 0,21,22
 1162 -168 1162 -168 1109 -202 c 0,23,24
 1049 -241 1049 -241 1022 -242 c 1,25,26
 997 -237 997 -237 974 -223 c 0,27,28
 954 -211 954 -211 925 -190 c 0,29,30
 902 -174 902 -174 878 -153 c 0,31,32
 856 -134 856 -134 836 -120 c 0,33,34
 740 -48 740 -48 622 50 c 0,35,36
 511 143 511 143 415 237 c 0,37,38
 314 337 314 337 232 436 c 0,39,40
 149 536 149 536 90 646 c 1,41,42
 42 749 42 749 18 863 c 0,43,44
 -1 955 -1 955 -1 1035 c 0,45,46
 -1 1052 -1 1052 1 1086 c 0,47,48
 9 1198 9 1198 47 1297 c 0,49,50
 87 1399 87 1399 162 1476 c 1,51,52
 262 1566 262 1566 380 1603 c 0,53,54
 470 1632 470 1632 564 1632 c 0,55,56
 599 1632 599 1632 616 1630 c 0,57,58
 736 1619 736 1619 841 1566 c 0,59,60
 949 1511 949 1511 1022 1420 c 1,61,62
 1059 1463 1059 1463 1066 1469 c 0,63,64
 1096 1499 1096 1499 1113 1513 c 0,65,66
 1141 1536 1141 1536 1165 1552 c 0,67,68
 1188 1567 1188 1567 1222 1586 c 1,69,70
 1339 1631 1339 1631 1461 1633 c 1,71,-1
 1469 1633 l 2,72,73
 1583 1633 1583 1633 1685 1595 c 0,74,75
 1789 1556 1789 1556 1874 1479 c 0,76,77
 1958 1402 1958 1402 2008 1292 c 1,0,1
EndSplineSet
Validated: 1
EndChar

StartChar: m
Encoding: 109 109 74
Width: 2048
Flags: W
LayerCount: 2
Fore
SplineSet
0 1536 m 1,0,-1
 2048 1536 l 1,1,-1
 2048 0 l 1,2,-1
 0 0 l 1,3,-1
 0 1536 l 1,0,-1
1856 768 m 0,4,5
 1856 948 1856 948 1840 1088 c 0,6,7
 1816 1304 1816 1304 1604 1328 c 0,8,9
 1464 1344 1464 1344 1052 1344 c 2,10,-1
 1024 1344 l 1,11,-1
 996 1344 l 2,12,13
 584 1344 584 1344 444 1328 c 0,14,15
 232 1304 232 1304 208 1088 c 0,16,17
 192 948 192 948 192 768 c 0,18,19
 192 704 192 704 208 448 c 1,20,21
 220 232 220 232 444 208 c 0,22,23
 600 192 600 192 1024 192 c 128,-1,24
 1448 192 1448 192 1604 208 c 0,25,26
 1828 232 1828 232 1840 448 c 1,27,28
 1856 704 1856 704 1856 768 c 0,4,5
1488 656 m 1,29,-1
 1488 672 l 1,30,-1
 1700 672 l 1,31,32
 1700 512 1700 512 1624 424 c 0,33,34
 1552 340 1552 340 1380 340 c 0,35,36
 1305 340 1305 340 1236 360 c 0,37,38
 1178 377 1178 377 1136 428 c 0,39,40
 1096 476 1096 476 1076 560 c 1,41,42
 1056 654 1056 654 1056 764 c 0,43,44
 1056 882 1056 882 1084 976 c 1,45,46
 1108 1064 1108 1064 1152 1108 c 0,47,48
 1203 1159 1203 1159 1260 1176 c 0,49,50
 1329 1196 1329 1196 1396 1196 c 0,51,52
 1544 1196 1544 1196 1624 1112 c 0,53,54
 1700 1033 1700 1033 1700 864 c 1,55,-1
 1492 864 l 1,56,-1
 1492 868 l 2,57,58
 1492 927 1492 927 1460 964 c 0,59,60
 1428 1000 1428 1000 1384 1000 c 0,61,62
 1292 1000 1292 1000 1272 880 c 0,63,64
 1264 834 1264 834 1264 764 c 1,65,-1
 1272 652 l 1,66,67
 1277 599 1277 599 1306 568 c 0,68,69
 1336 536 1336 536 1380 536 c 0,70,71
 1488 536 1488 536 1488 652 c 2,72,-1
 1488 656 l 1,29,-1
780 656 m 1,73,-1
 780 672 l 1,74,-1
 992 672 l 1,75,76
 992 512 992 512 916 424 c 0,77,78
 844 340 844 340 672 340 c 0,79,80
 597 340 597 340 528 360 c 0,81,82
 470 377 470 377 428 428 c 1,83,84
 384 476 384 476 368 560 c 1,85,86
 348 654 348 654 348 764 c 0,87,88
 348 882 348 882 376 976 c 1,89,90
 400 1064 400 1064 444 1108 c 0,91,92
 495 1159 495 1159 552 1176 c 0,93,94
 621 1196 621 1196 688 1196 c 0,95,96
 840 1196 840 1196 916 1112 c 1,97,98
 992 1033 992 1033 992 864 c 1,99,-1
 784 864 l 1,100,-1
 784 868 l 2,101,102
 784 927 784 927 752 964 c 0,103,104
 720 1000 720 1000 676 1000 c 0,105,106
 584 1000 584 1000 564 880 c 0,107,108
 556 834 556 834 556 764 c 1,109,-1
 564 652 l 1,110,111
 569 599 569 599 598 568 c 0,112,113
 628 536 628 536 672 536 c 0,114,115
 780 536 780 536 780 652 c 2,116,-1
 780 656 l 1,73,-1
EndSplineSet
Validated: 1
EndChar

StartChar: n
Encoding: 110 110 75
Width: 1792
Flags: W
LayerCount: 2
Fore
SplineSet
512 288 m 2,0,-1
 512 96 l 2,1,2
 512 56 512 56 484 28 c 128,-1,3
 456 0 456 0 416 0 c 2,4,-1
 96 0 l 2,5,6
 56 0 56 0 28 28 c 128,-1,7
 0 56 0 56 0 96 c 2,8,-1
 0 288 l 2,9,10
 0 328 0 328 28 356 c 128,-1,11
 56 384 56 384 96 384 c 2,12,-1
 416 384 l 2,13,14
 456 384 456 384 484 356 c 128,-1,15
 512 328 512 328 512 288 c 2,0,-1
512 800 m 2,16,-1
 512 608 l 2,17,18
 512 568 512 568 484 540 c 128,-1,19
 456 512 456 512 416 512 c 2,20,-1
 96 512 l 2,21,22
 56 512 56 512 28 540 c 128,-1,23
 0 568 0 568 0 608 c 2,24,-1
 0 800 l 2,25,26
 0 840 0 840 28 868 c 128,-1,27
 56 896 56 896 96 896 c 2,28,-1
 416 896 l 2,29,30
 456 896 456 896 484 868 c 128,-1,31
 512 840 512 840 512 800 c 2,16,-1
1152 288 m 2,32,-1
 1152 96 l 2,33,34
 1152 56 1152 56 1124 28 c 128,-1,35
 1096 0 1096 0 1056 0 c 2,36,-1
 736 0 l 2,37,38
 696 0 696 0 668 28 c 128,-1,39
 640 56 640 56 640 96 c 2,40,-1
 640 288 l 2,41,42
 640 328 640 328 668 356 c 128,-1,43
 696 384 696 384 736 384 c 2,44,-1
 1056 384 l 2,45,46
 1096 384 1096 384 1124 356 c 128,-1,47
 1152 328 1152 328 1152 288 c 2,32,-1
512 1312 m 2,48,-1
 512 1120 l 2,49,50
 512 1080 512 1080 484 1052 c 128,-1,51
 456 1024 456 1024 416 1024 c 2,52,-1
 96 1024 l 2,53,54
 56 1024 56 1024 28 1052 c 128,-1,55
 0 1080 0 1080 0 1120 c 2,56,-1
 0 1312 l 2,57,58
 0 1352 0 1352 28 1380 c 128,-1,59
 56 1408 56 1408 96 1408 c 2,60,-1
 416 1408 l 2,61,62
 456 1408 456 1408 484 1380 c 128,-1,63
 512 1352 512 1352 512 1312 c 2,48,-1
1152 800 m 2,64,-1
 1152 608 l 2,65,66
 1152 568 1152 568 1124 540 c 128,-1,67
 1096 512 1096 512 1056 512 c 2,68,-1
 736 512 l 2,69,70
 696 512 696 512 668 540 c 128,-1,71
 640 568 640 568 640 608 c 2,72,-1
 640 800 l 2,73,74
 640 840 640 840 668 868 c 128,-1,75
 696 896 696 896 736 896 c 2,76,-1
 1056 896 l 2,77,78
 1096 896 1096 896 1124 868 c 128,-1,79
 1152 840 1152 840 1152 800 c 2,64,-1
1792 288 m 2,80,-1
 1792 96 l 2,81,82
 1792 56 1792 56 1764 28 c 128,-1,83
 1736 0 1736 0 1696 0 c 2,84,-1
 1376 0 l 2,85,86
 1336 0 1336 0 1308 28 c 128,-1,87
 1280 56 1280 56 1280 96 c 2,88,-1
 1280 288 l 2,89,90
 1280 328 1280 328 1308 356 c 128,-1,91
 1336 384 1336 384 1376 384 c 2,92,-1
 1696 384 l 2,93,94
 1736 384 1736 384 1764 356 c 128,-1,95
 1792 328 1792 328 1792 288 c 2,80,-1
1152 1312 m 2,96,-1
 1152 1120 l 2,97,98
 1152 1080 1152 1080 1124 1052 c 128,-1,99
 1096 1024 1096 1024 1056 1024 c 2,100,-1
 736 1024 l 2,101,102
 696 1024 696 1024 668 1052 c 128,-1,103
 640 1080 640 1080 640 1120 c 2,104,-1
 640 1312 l 2,105,106
 640 1352 640 1352 668 1380 c 128,-1,107
 696 1408 696 1408 736 1408 c 2,108,-1
 1056 1408 l 2,109,110
 1096 1408 1096 1408 1124 1380 c 128,-1,111
 1152 1352 1152 1352 1152 1312 c 2,96,-1
1792 800 m 2,112,-1
 1792 608 l 2,113,114
 1792 568 1792 568 1764 540 c 128,-1,115
 1736 512 1736 512 1696 512 c 2,116,-1
 1376 512 l 2,117,118
 1336 512 1336 512 1308 540 c 128,-1,119
 1280 568 1280 568 1280 608 c 2,120,-1
 1280 800 l 2,121,122
 1280 840 1280 840 1308 868 c 128,-1,123
 1336 896 1336 896 1376 896 c 2,124,-1
 1696 896 l 2,125,126
 1736 896 1736 896 1764 868 c 128,-1,127
 1792 840 1792 840 1792 800 c 2,112,-1
1792 1312 m 2,128,-1
 1792 1120 l 2,129,130
 1792 1080 1792 1080 1764 1052 c 128,-1,131
 1736 1024 1736 1024 1696 1024 c 2,132,-1
 1376 1024 l 2,133,134
 1336 1024 1336 1024 1308 1052 c 128,-1,135
 1280 1080 1280 1080 1280 1120 c 2,136,-1
 1280 1312 l 2,137,138
 1280 1352 1280 1352 1308 1380 c 128,-1,139
 1336 1408 1336 1408 1376 1408 c 2,140,-1
 1696 1408 l 2,141,142
 1736 1408 1736 1408 1764 1380 c 128,-1,143
 1792 1352 1792 1352 1792 1312 c 2,128,-1
EndSplineSet
Validated: 1
EndChar

StartChar: o
Encoding: 111 111 76
Width: 1536
Flags: W
LayerCount: 2
Fore
SplineSet
0 512 m 1,0,-1
 0 768 l 1,1,-1
 256 768 l 1,2,-1
 256 512 l 1,3,-1
 0 512 l 1,0,-1
0 1024 m 1,4,-1
 0 1280 l 1,5,-1
 256 1280 l 1,6,-1
 256 1024 l 1,7,-1
 0 1024 l 1,4,-1
0 0 m 1,8,-1
 0 256 l 1,9,-1
 256 256 l 1,10,-1
 256 0 l 1,11,-1
 0 0 l 1,8,-1
512 512 m 1,12,-1
 512 768 l 1,13,-1
 1536 768 l 1,14,-1
 1536 512 l 1,15,-1
 512 512 l 1,12,-1
512 1024 m 1,16,-1
 512 1280 l 1,17,-1
 1536 1280 l 1,18,-1
 1536 1024 l 1,19,-1
 512 1024 l 1,16,-1
512 0 m 1,20,-1
 512 256 l 1,21,-1
 1536 256 l 1,22,-1
 1536 0 l 1,23,-1
 512 0 l 1,20,-1
EndSplineSet
Validated: 1
EndChar

StartChar: p
Encoding: 112 112 77
Width: 1792
Flags: W
LayerCount: 2
Fore
SplineSet
1792 1184 m 2,0,-1
 1792 96 l 2,1,2
 1792 54 1792 54 1753 37 c 1,3,4
 1738 32 1738 32 1728 32 c 0,5,6
 1701 32 1701 32 1683 51 c 2,7,-1
 1280 454 l 1,8,-1
 1280 288 l 2,9,10
 1280 170 1280 170 1196 84 c 1,11,12
 1110 0 1110 0 992 0 c 2,13,-1
 288 0 l 2,14,15
 170 0 170 0 84 84 c 1,16,17
 0 170 0 170 0 288 c 2,18,-1
 0 992 l 2,19,20
 0 1110 0 1110 84 1196 c 1,21,22
 170 1280 170 1280 288 1280 c 2,23,-1
 992 1280 l 2,24,25
 1110 1280 1110 1280 1196 1196 c 1,26,27
 1280 1110 1280 1110 1280 992 c 2,28,-1
 1280 827 l 1,29,-1
 1683 1229 l 2,30,31
 1701 1248 1701 1248 1728 1248 c 0,32,33
 1738 1248 1738 1248 1753 1243 c 1,34,35
 1792 1226 1792 1226 1792 1184 c 2,0,-1
EndSplineSet
Validated: 1
EndChar

StartChar: q
Encoding: 113 113 78
Width: 731
Flags: W
LayerCount: 2
Fore
SplineSet
717 1134 m 128,-1,1
 717 1119 717 1119 705 1107 c 2,2,-1
 256 658 l 1,3,-1
 705 209 l 2,4,5
 716 198 716 198 716.5 183 c 128,-1,6
 717 168 717 168 705 157 c 2,7,-1
 648 99 l 2,8,9
 637 88 637 88 622 88 c 128,-1,10
 607 88 607 88 595 99 c 2,11,-1
 63 632 l 2,12,13
 52 643 52 643 51.5 658 c 128,-1,14
 51 673 51 673 63 685 c 2,15,-1
 595 1217 l 2,16,17
 606 1228 606 1228 621.5 1228.5 c 128,-1,18
 637 1229 637 1229 648 1217 c 2,19,-1
 705 1160 l 2,20,0
 717 1149 717 1149 717 1134 c 128,-1,1
EndSplineSet
Validated: 1
EndChar

StartChar: r
Encoding: 114 114 79
Width: 731
Flags: W
LayerCount: 2
Fore
SplineSet
680 658 m 128,-1,1
 680 643 680 643 669 632 c 2,2,-1
 136 99 l 2,3,4
 125 88 125 88 110 88 c 128,-1,5
 95 88 95 88 83 99 c 2,6,-1
 26 157 l 2,7,8
 15 168 15 168 15 183 c 128,-1,9
 15 198 15 198 26 209 c 2,10,-1
 475 658 l 1,11,-1
 26 1107 l 2,12,13
 15 1118 15 1118 15 1133.5 c 128,-1,14
 15 1149 15 1149 26 1160 c 2,15,-1
 83 1217 l 2,16,17
 94 1228 94 1228 109.5 1228.5 c 128,-1,18
 125 1229 125 1229 136 1217 c 2,19,-1
 669 685 l 2,20,0
 680 673 680 673 680 658 c 128,-1,1
EndSplineSet
Validated: 1
EndChar

StartChar: s
Encoding: 115 115 80
Width: 1536
Flags: W
LayerCount: 2
Fore
SplineSet
854 989 m 1,0,-1
 1162 1296 l 1,1,-1
 922 1536 l 1,2,-1
 1536 1536 l 1,3,-1
 1536 922 l 1,4,-1
 1296 1162 l 1,5,-1
 989 854 l 1,6,-1
 854 989 l 1,0,-1
854 547 m 1,7,-1
 989 682 l 1,8,-1
 1296 374 l 1,9,-1
 1536 614 l 1,10,-1
 1536 0 l 1,11,-1
 922 0 l 1,12,-1
 1162 240 l 1,13,-1
 854 547 l 1,7,-1
682 547 m 1,14,-1
 374 240 l 1,15,-1
 614 0 l 1,16,-1
 0 0 l 1,17,-1
 0 614 l 1,18,-1
 240 374 l 1,19,-1
 547 682 l 1,20,-1
 682 547 l 1,14,-1
682 989 m 1,21,-1
 547 854 l 1,22,-1
 240 1162 l 1,23,-1
 0 922 l 1,24,-1
 0 1536 l 1,25,-1
 614 1536 l 1,26,-1
 374 1296 l 1,27,-1
 682 989 l 1,21,-1
EndSplineSet
Validated: 1
EndChar

StartChar: t
Encoding: 116 116 81
Width: 1792
Flags: W
LayerCount: 2
Fore
SplineSet
1792 992 m 1,0,-1
 1236 576 l 1,1,-1
 1456 -128 l 1,2,-1
 896 320 l 1,3,-1
 336 -128 l 1,4,-1
 556 576 l 1,5,-1
 0 992 l 1,6,-1
 688 992 l 1,7,-1
 896 1664 l 1,8,-1
 1108 992 l 1,9,-1
 1792 992 l 1,0,-1
EndSplineSet
Validated: 1
EndChar

StartChar: u
Encoding: 117 117 82
Width: 1536
Flags: W
LayerCount: 2
Fore
SplineSet
128 384 m 1,0,1
 78 386 78 386 40 424 c 128,-1,2
 2 462 2 462 0 512 c 1,3,-1
 0 768 l 1,4,5
 2 818 2 818 40 856 c 128,-1,6
 78 894 78 894 128 896 c 1,7,-1
 1408 896 l 1,8,9
 1457 894 1457 894 1496 856 c 0,10,11
 1534 818 1534 818 1536 768 c 1,12,-1
 1536 512 l 1,13,14
 1534 462 1534 462 1498 424 c 0,15,16
 1461 385 1461 385 1408 384 c 1,17,-1
 128 384 l 1,0,1
128 1024 m 1,18,19
 78 1026 78 1026 40 1064 c 128,-1,20
 2 1102 2 1102 0 1152 c 1,21,-1
 0 1408 l 1,22,23
 2 1458 2 1458 40 1496 c 128,-1,24
 78 1534 78 1534 128 1536 c 1,25,-1
 1408 1536 l 1,26,27
 1458 1534 1458 1534 1496 1496 c 128,-1,28
 1534 1458 1534 1458 1536 1408 c 1,29,-1
 1536 1152 l 1,30,31
 1534 1102 1534 1102 1498 1064 c 0,32,33
 1461 1025 1461 1025 1408 1024 c 1,34,-1
 128 1024 l 1,18,19
128 -256 m 1,35,36
 78 -254 78 -254 40 -216 c 128,-1,37
 2 -178 2 -178 0 -128 c 1,38,-1
 0 128 l 1,39,40
 2 178 2 178 40 216 c 128,-1,41
 78 254 78 254 128 256 c 1,42,-1
 1408 256 l 1,43,44
 1458 254 1458 254 1496 216 c 128,-1,45
 1534 178 1534 178 1536 128 c 1,46,-1
 1536 -128 l 1,47,48
 1534 -178 1534 -178 1498 -216 c 0,49,50
 1461 -255 1461 -255 1408 -256 c 1,51,-1
 128 -256 l 1,35,36
1252 -1 m 1,52,-1
 1252 -155 l 1,53,-1
 1406 -155 l 1,54,-1
 1406 -1 l 1,55,-1
 1252 -1 l 1,52,-1
EndSplineSet
Validated: 1
EndChar

StartChar: v
Encoding: 118 118 83
Width: 1408
Flags: W
LayerCount: 2
Fore
SplineSet
1298 214 m 128,-1,1
 1298 174 1298 174 1270 146 c 2,2,-1
 1134 10 l 2,3,4
 1106 -18 1106 -18 1066 -18 c 128,-1,5
 1026 -18 1026 -18 998 10 c 2,6,-1
 704 304 l 1,7,-1
 410 10 l 2,8,9
 382 -18 382 -18 342 -18 c 128,-1,10
 302 -18 302 -18 274 10 c 2,11,-1
 138 146 l 2,12,13
 110 174 110 174 110 214 c 128,-1,14
 110 254 110 254 138 282 c 2,15,-1
 432 576 l 1,16,-1
 138 870 l 2,17,18
 110 898 110 898 110 938 c 128,-1,19
 110 978 110 978 138 1006 c 2,20,-1
 274 1142 l 2,21,22
 302 1170 302 1170 342 1170 c 128,-1,23
 382 1170 382 1170 410 1142 c 2,24,-1
 704 848 l 1,25,-1
 998 1142 l 2,26,27
 1026 1170 1026 1170 1066 1170 c 128,-1,28
 1106 1170 1106 1170 1134 1142 c 2,29,-1
 1270 1006 l 2,30,31
 1298 978 1298 978 1298 938 c 128,-1,32
 1298 898 1298 898 1270 870 c 2,33,-1
 976 576 l 1,34,-1
 1270 282 l 2,35,0
 1298 254 1298 254 1298 214 c 128,-1,1
EndSplineSet
Validated: 1
EndChar

StartChar: w
Encoding: 119 119 84
Width: 1536
Flags: W
LayerCount: 2
Fore
SplineSet
1364 1364 m 1,0,-1
 172 1364 l 1,1,-1
 172 172 l 1,2,-1
 1364 172 l 1,3,-1
 1364 1364 l 1,0,-1
1364 1536 m 2,4,5
 1432 1536 1432 1536 1484 1484 c 128,-1,6
 1536 1432 1536 1432 1536 1364 c 2,7,-1
 1536 172 l 2,8,9
 1536 104 1536 104 1484 52 c 128,-1,10
 1432 0 1432 0 1364 0 c 2,11,-1
 172 0 l 2,12,13
 104 0 104 0 52 52 c 128,-1,14
 0 104 0 104 0 172 c 2,15,-1
 0 1364 l 2,16,17
 0 1432 0 1432 52 1484 c 128,-1,18
 104 1536 104 1536 172 1536 c 2,19,-1
 1364 1536 l 2,4,5
EndSplineSet
Validated: 1
EndChar

StartChar: x
Encoding: 120 120 85
Width: 1536
Flags: W
LayerCount: 2
Fore
SplineSet
420 932 m 1,0,-1
 684 668 l 1,1,-1
 1416 1400 l 1,2,-1
 1536 1280 l 1,3,-1
 684 428 l 1,4,-1
 300 812 l 1,5,-1
 420 932 l 1,0,-1
1364 172 m 1,6,-1
 1364 852 l 1,7,-1
 1536 852 l 1,8,-1
 1536 172 l 2,9,10
 1536 104 1536 104 1484 52 c 128,-1,11
 1432 0 1432 0 1364 0 c 2,12,-1
 172 0 l 2,13,14
 104 0 104 0 52 52 c 128,-1,15
 0 104 0 104 0 172 c 2,16,-1
 0 1364 l 2,17,18
 0 1432 0 1432 52 1484 c 128,-1,19
 104 1536 104 1536 172 1536 c 2,20,-1
 1024 1536 l 1,21,-1
 1024 1364 l 1,22,-1
 172 1364 l 1,23,-1
 172 172 l 1,24,-1
 1364 172 l 1,6,-1
EndSplineSet
Validated: 1
EndChar

StartChar: y
Encoding: 121 121 86
Width: 1664
Flags: W
LayerCount: 2
Fore
SplineSet
832 1600 m 128,-1,1
 1176 1600 1176 1600 1420 1356 c 128,-1,2
 1664 1112 1664 1112 1664 768 c 128,-1,3
 1664 424 1664 424 1420 180 c 128,-1,4
 1176 -64 1176 -64 832 -64 c 128,-1,5
 488 -64 488 -64 244 180 c 128,-1,6
 0 424 0 424 0 768 c 128,-1,7
 0 1112 0 1112 244 1356 c 128,-1,0
 488 1600 488 1600 832 1600 c 128,-1,1
832 104 m 128,-1,9
 1108 104 1108 104 1302 298 c 128,-1,10
 1496 492 1496 492 1496 768 c 128,-1,11
 1496 1044 1496 1044 1302 1238 c 128,-1,12
 1108 1432 1108 1432 832 1432 c 128,-1,13
 556 1432 556 1432 362 1238 c 128,-1,14
 168 1044 168 1044 168 768 c 128,-1,15
 168 492 168 492 362 298 c 128,-1,8
 556 104 556 104 832 104 c 128,-1,9
1124 852 m 128,-1,17
 1071 852 1071 852 1036 886 c 0,18,19
 1000 920 1000 920 1000 976 c 128,-1,20
 1000 1032 1000 1032 1036 1066 c 0,21,22
 1071 1100 1071 1100 1124 1100 c 128,-1,23
 1177 1100 1177 1100 1212 1066 c 0,24,25
 1248 1032 1248 1032 1248 976 c 128,-1,26
 1248 920 1248 920 1212 886 c 0,27,16
 1177 852 1177 852 1124 852 c 128,-1,17
540 852 m 128,-1,29
 487 852 487 852 452 886 c 0,30,31
 416 920 416 920 416 976 c 128,-1,32
 416 1032 416 1032 452 1066 c 0,33,34
 487 1100 487 1100 540 1100 c 128,-1,35
 593 1100 593 1100 628 1066 c 0,36,37
 664 1032 664 1032 664 976 c 128,-1,38
 664 920 664 920 628 886 c 0,39,28
 593 852 593 852 540 852 c 128,-1,29
832 312 m 128,-1,41
 688 312 688 312 574 390 c 0,42,43
 461 468 461 468 408 600 c 1,44,-1
 1256 600 l 1,45,46
 1203 468 1203 468 1090 390 c 0,47,40
 976 312 976 312 832 312 c 128,-1,41
EndSplineSet
Validated: 1
EndChar

StartChar: z
Encoding: 122 122 87
Width: 1536
Flags: W
LayerCount: 2
Fore
SplineSet
1524 244 m 2,0,1
 1552 216 1552 216 1524 188 c 2,2,-1
 1352 12 l 2,3,4
 1340 0 1340 0 1320 0 c 0,5,6
 1304 0 1304 0 1292 12 c 2,7,-1
 956 356 l 1,8,9
 804 264 804 264 636 264 c 0,10,11
 376 264 376 264 188 450 c 128,-1,12
 0 636 0 636 0 900 c 128,-1,13
 0 1164 0 1164 188 1350 c 0,14,15
 375 1536 375 1536 636 1536 c 0,16,17
 896 1536 896 1536 1082 1350 c 128,-1,18
 1268 1164 1268 1164 1268 900 c 0,19,20
 1268 732 1268 732 1184 588 c 1,21,-1
 1524 244 l 2,0,1
636 1288 m 128,-1,23
 476 1288 476 1288 362 1174 c 128,-1,24
 248 1060 248 1060 248 900 c 128,-1,25
 248 740 248 740 362 626 c 128,-1,26
 476 512 476 512 636 512 c 128,-1,27
 796 512 796 512 908 626 c 0,28,29
 1020 739 1020 739 1020 900 c 128,-1,30
 1020 1061 1020 1061 908 1174 c 0,31,22
 796 1288 796 1288 636 1288 c 128,-1,23
EndSplineSet
Validated: 1
EndChar

StartChar: bar
Encoding: 124 124 88
Width: 614
Flags: W
LayerCount: 2
Fore
SplineSet
102 0 m 1,0,-1
 102 1638 l 1,1,-1
 512 1638 l 1,2,-1
 512 0 l 1,3,-1
 102 0 l 1,0,-1
EndSplineSet
Validated: 1
EndChar

StartChar: asciitilde
Encoding: 126 126 89
Width: 2048
Flags: W
LayerCount: 2
Fore
SplineSet
172 684 m 1,0,-1
 172 852 l 1,1,-1
 852 852 l 1,2,-1
 852 684 l 1,3,-1
 172 684 l 1,0,-1
1536 852 m 1,4,-1
 1876 852 l 1,5,-1
 1876 684 l 1,6,-1
 1536 684 l 1,7,-1
 1536 340 l 1,8,-1
 1364 340 l 1,9,-1
 1364 684 l 1,10,-1
 1024 684 l 1,11,-1
 1024 852 l 1,12,-1
 1364 852 l 1,13,-1
 1364 1196 l 1,14,-1
 1536 1196 l 1,15,-1
 1536 852 l 1,4,-1
1196 1536 m 1,16,-1
 1196 1364 l 1,17,-1
 172 1364 l 1,18,-1
 172 1536 l 1,19,-1
 1196 1536 l 1,16,-1
1196 1196 m 1,20,-1
 1196 1024 l 1,21,-1
 172 1024 l 1,22,-1
 172 1196 l 1,23,-1
 1196 1196 l 1,20,-1
EndSplineSet
Validated: 1
EndChar

StartChar: exclamdown
Encoding: 161 161 90
Width: 2048
Flags: W
LayerCount: 2
Fore
SplineSet
300 86 m 1,0,1
 102 282 102 282 33 547 c 0,2,3
 -2 681 -2 681 -2 811 c 0,4,5
 -2 940 -2 940 33 1074 c 0,6,7
 102 1339 102 1339 300 1535 c 1,8,9
 496 1731 496 1731 760 1802 c 0,10,11
 890 1836 890 1836 1024 1836 c 1,12,-1
 1288 1802 l 1,13,14
 1552 1731 1552 1731 1748 1535 c 1,15,16
 1946 1339 1946 1339 2015 1074 c 0,17,18
 2050 940 2050 940 2050 811 c 0,19,20
 2050 681 2050 681 2015 547 c 0,21,22
 1946 282 1946 282 1748 86 c 1,23,24
 1551 -111 1551 -111 1288 -180 c 0,25,26
 1158 -214 1158 -214 1024 -214 c 1,27,-1
 760 -180 l 1,28,29
 497 -111 497 -111 300 86 c 1,0,1
400 187 m 0,30,31
 527 60 527 60 692 -6 c 1,32,33
 856 -73 856 -73 1024 -73 c 128,-1,34
 1192 -73 1192 -73 1356 -6 c 1,35,36
 1522 60 1522 60 1649 186 c 1,37,38
 1818 356 1818 356 1878 584 c 0,39,40
 1909 702 1909 702 1909 811 c 128,-1,41
 1909 920 1909 920 1878 1038 c 0,42,43
 1818 1266 1818 1266 1648 1434 c 1,44,45
 1480 1603 1480 1603 1251 1664 c 0,46,47
 1135 1695 1135 1695 1024 1695 c 128,-1,48
 913 1695 913 1695 797 1664 c 0,49,50
 569 1604 569 1604 399 1435 c 1,51,52
 274 1309 274 1309 206 1142 c 0,53,54
 140 978 140 978 140 810 c 0,55,56
 140 643 140 643 206 478 c 1,57,58
 274 313 274 313 400 187 c 0,30,31
500 241 m 1,59,-1
 454 287 l 1,60,-1
 869 966 l 1,61,-1
 1548 1381 l 1,62,-1
 1594 1335 l 1,63,-1
 1179 655 l 1,64,-1
 500 241 l 1,59,-1
EndSplineSet
Validated: 1
EndChar

StartChar: cent
Encoding: 162 162 91
Width: 2048
Flags: W
LayerCount: 2
Fore
SplineSet
854 1537 m 2,0,-1
 1536 1537 l 2,1,2
 1816 1537 1816 1537 1976 1380 c 1,3,4
 2134 1219 2134 1219 2134 940 c 2,5,-1
 2134 257 l 2,6,7
 2134 -24 2134 -24 1976 -182 c 128,-1,8
 1818 -340 1818 -340 1536 -340 c 2,9,-1
 854 -340 l 2,10,11
 819 -340 819 -340 792 -316 c 1,12,13
 768 -290 768 -290 768 -255 c 2,14,-1
 768 -84 l 2,15,16
 768 -48 768 -48 792 -24 c 0,17,18
 818 1 818 1 854 1 c 2,19,-1
 1622 1 l 2,20,21
 1691 1 1691 1 1742 52 c 1,22,23
 1792 104 1792 104 1792 172 c 2,24,-1
 1792 1025 l 2,25,26
 1792 1093 1792 1093 1742 1146 c 1,27,28
 1690 1196 1690 1196 1622 1196 c 2,29,-1
 854 1196 l 2,30,31
 819 1196 819 1196 792 1220 c 1,32,33
 768 1246 768 1246 768 1281 c 2,34,-1
 768 1452 l 2,35,36
 768 1488 768 1488 792 1512 c 0,37,38
 818 1537 818 1537 854 1537 c 2,0,-1
492 1140 m 2,39,-1
 1044 655 l 2,40,41
 1072 630 1072 630 1072 598 c 0,42,43
 1072 567 1072 567 1044 542 c 2,44,-1
 492 58 l 2,45,46
 465 34 465 34 446 42 c 0,47,48
 426 51 426 51 426 87 c 2,49,-1
 426 343 l 1,50,-1
 0 343 l 2,51,52
 -36 343 -36 343 -62 368 c 0,53,54
 -86 392 -86 392 -86 428 c 2,55,-1
 -86 769 l 2,56,57
 -86 804 -86 804 -62 830 c 1,58,59
 -36 855 -36 855 0 855 c 2,60,-1
 426 855 l 1,61,-1
 426 1111 l 2,62,63
 426 1147 426 1147 446 1156 c 0,64,65
 465 1164 465 1164 492 1140 c 2,39,-1
EndSplineSet
Validated: 1
EndChar

StartChar: sterling
Encoding: 163 163 92
Width: 2048
Flags: W
LayerCount: 2
Fore
SplineSet
530 1535 m 2,0,-1
 1214 1535 l 2,1,2
 1250 1535 1250 1535 1274 1510 c 0,3,4
 1298 1486 1298 1486 1298 1450 c 2,5,-1
 1298 1279 l 2,6,7
 1298 1244 1298 1244 1274 1218 c 1,8,9
 1250 1194 1250 1194 1214 1194 c 2,10,-1
 446 1194 l 2,11,12
 374 1194 374 1194 326 1144 c 1,13,14
 274 1092 274 1092 274 1023 c 2,15,-1
 274 170 l 2,16,17
 274 100 274 100 326 50 c 1,18,19
 374 -1 374 -1 446 -1 c 2,20,-1
 1214 -1 l 2,21,22
 1250 -1 1250 -1 1274 -26 c 0,23,24
 1298 -50 1298 -50 1298 -86 c 2,25,-1
 1298 -257 l 2,26,27
 1298 -292 1298 -292 1274 -318 c 1,28,29
 1250 -342 1250 -342 1214 -342 c 2,30,-1
 530 -342 l 2,31,32
 248 -342 248 -342 92 -184 c 1,33,34
 -66 -27 -66 -27 -66 255 c 2,35,-1
 -66 938 l 2,36,37
 -66 1220 -66 1220 92 1378 c 0,38,39
 249 1535 249 1535 530 1535 c 2,0,-1
1534 1138 m 2,40,-1
 2088 653 l 2,41,42
 2114 630 2114 630 2114 596 c 0,43,44
 2114 563 2114 563 2088 540 c 2,45,-1
 1534 56 l 2,46,47
 1508 33 1508 33 1488 40 c 1,48,49
 1470 49 1470 49 1470 85 c 2,50,-1
 1470 341 l 1,51,-1
 1042 341 l 2,52,53
 1006 341 1006 341 982 366 c 0,54,55
 958 390 958 390 958 426 c 2,56,-1
 958 767 l 2,57,58
 958 802 958 802 982 828 c 0,59,60
 1006 853 1006 853 1042 853 c 2,61,-1
 1470 853 l 1,62,-1
 1470 1109 l 2,63,64
 1470 1145 1470 1145 1488 1154 c 1,65,66
 1508 1161 1508 1161 1534 1138 c 2,40,-1
EndSplineSet
Validated: 1
EndChar

StartChar: currency
Encoding: 164 164 93
Width: 1901
Flags: W
LayerCount: 2
Fore
SplineSet
1873 1209 m 1,0,1
 1903 1167 1903 1167 1903 1118 c 0,2,3
 1903 1090 1903 1090 1894 1062 c 2,4,-1
 1579 26 l 2,5,6
 1556 -48 1556 -48 1492 -96 c 0,7,8
 1427 -146 1427 -146 1352 -146 c 2,9,-1
 297 -146 l 2,10,11
 208 -146 208 -146 128 -85 c 1,12,13
 46 -24 46 -24 14 65 c 0,14,15
 0 103 0 103 0 144 c 0,16,17
 0 181 0 181 11 210 c 1,18,19
 11 216 11 216 14 241 c 0,20,21
 16 255 16 255 19 283 c 0,22,23
 20 287 20 287 16 308 c 1,24,25
 11 320 11 320 13 330 c 1,26,27
 14 344 14 344 22 354 c 1,28,29
 30 367 30 367 41 382 c 0,30,31
 52 396 52 396 59 408 c 0,32,33
 89 458 89 458 110 512 c 1,34,35
 136 572 136 572 145 617 c 1,36,37
 148 626 148 626 146 651 c 1,38,39
 143 672 143 672 145 683 c 0,40,41
 147 692 147 692 164 716 c 1,42,43
 180 732 180 732 184 742 c 1,44,45
 208 782 208 782 232 847 c 0,46,47
 257 914 257 914 261 950 c 0,48,49
 262 960 262 960 258 986 c 0,50,51
 253 1013 253 1013 258 1018 c 1,52,53
 263 1033 263 1033 284 1053 c 0,54,55
 306 1075 306 1075 309 1079 c 0,56,57
 331 1108 331 1108 358 1176 c 0,58,59
 385 1245 385 1245 389 1286 c 0,60,61
 390 1291 390 1291 386 1315 c 1,62,63
 381 1331 381 1331 383 1345 c 0,64,65
 384 1352 384 1352 393 1366 c 0,66,67
 402 1379 402 1379 414 1392 c 0,68,69
 417 1396 417 1396 423.5 1404.5 c 128,-1,70
 430 1413 430 1413 433 1416 c 0,71,72
 439 1425 439 1425 452 1451 c 0,73,74
 456 1459 456 1459 462 1473 c 128,-1,75
 468 1487 468 1487 470 1491 c 0,76,77
 475 1508 475 1508 488 1532 c 1,78,79
 496 1552 496 1552 510 1568 c 1,80,81
 520 1582 520 1582 540 1596 c 1,82,83
 560 1608 560 1608 581 1608 c 1,84,85
 604 1610 604 1610 635 1602 c 1,86,-1
 634 1599 l 1,87,88
 675 1609 675 1609 693 1609 c 2,89,-1
 1562 1609 l 2,90,91
 1647 1609 1647 1609 1692 1545 c 0,92,93
 1722 1503 1722 1503 1722 1454 c 0,94,95
 1722 1427 1722 1427 1713 1397 c 2,96,-1
 1400 361 l 1,97,98
 1360 225 1360 225 1318 186 c 1,99,100
 1279 146 1279 146 1171 146 c 2,101,-1
 178 146 l 2,102,103
 147 146 147 146 135 129 c 0,104,105
 122 112 122 112 134 80 c 1,106,107
 161 0 161 0 298 0 c 2,108,-1
 1353 0 l 2,109,110
 1386 0 1386 0 1417 18 c 1,111,112
 1448 34 1448 34 1457 65 c 2,113,-1
 1800 1193 l 2,114,115
 1806 1214 1806 1214 1806 1245 c 2,116,-1
 1806 1258 l 1,117,118
 1848 1242 1848 1242 1873 1209 c 1,0,1
657 1207 m 2,119,120
 652 1191 652 1191 659 1181 c 0,121,122
 667 1170 667 1170 682 1170 c 2,123,-1
 1377 1170 l 2,124,125
 1392 1170 1392 1170 1406 1181 c 0,126,127
 1420 1191 1420 1191 1425 1207 c 2,128,-1
 1449 1280 l 2,129,130
 1454 1296 1454 1296 1447 1306 c 0,131,132
 1439 1317 1439 1317 1424 1317 c 2,133,-1
 729 1317 l 2,134,135
 714 1317 714 1317 700 1306 c 0,136,137
 685 1295 685 1295 681 1280 c 2,138,-1
 657 1207 l 2,119,120
562 914 m 2,139,140
 557 899 557 899 564 888 c 1,141,142
 572 878 572 878 587 878 c 2,143,-1
 1282 878 l 2,144,145
 1295 878 1295 878 1312 888 c 1,146,147
 1326 900 1326 900 1330 914 c 2,148,-1
 1354 987 l 2,149,150
 1359 1003 1359 1003 1352 1013 c 0,151,152
 1344 1024 1344 1024 1329 1024 c 2,153,-1
 634 1024 l 2,154,155
 619 1024 619 1024 605 1013 c 0,156,157
 590 1002 590 1002 586 987 c 2,158,-1
 562 914 l 2,139,140
EndSplineSet
Validated: 1
EndChar

StartChar: yen
Encoding: 165 165 94
Width: 1755
Flags: W
LayerCount: 2
Fore
SplineSet
1189 366 m 0,0,1
 1189 328 1189 328 1162 301 c 128,-1,2
 1135 274 1135 274 1097 274 c 128,-1,3
 1059 274 1059 274 1032 301 c 1,4,5
 1006 329 1006 329 1006 366 c 0,6,7
 1006 402 1006 402 1032 430 c 1,8,9
 1059 457 1059 457 1097 457 c 128,-1,10
 1135 457 1135 457 1162 430 c 128,-1,11
 1189 403 1189 403 1189 366 c 0,0,1
1481 366 m 0,12,13
 1481 328 1481 328 1454 301 c 128,-1,14
 1427 274 1427 274 1390 274 c 0,15,16
 1352 274 1352 274 1325 301 c 128,-1,17
 1298 328 1298 328 1298 366 c 0,18,19
 1298 403 1298 403 1325 430 c 128,-1,20
 1352 457 1352 457 1390 457 c 0,21,22
 1427 457 1427 457 1454 430 c 128,-1,23
 1481 403 1481 403 1481 366 c 0,12,13
1609 183 m 2,24,-1
 1609 549 l 2,25,26
 1609 565 1609 565 1598 574 c 1,27,28
 1588 585 1588 585 1573 585 c 2,29,-1
 183 585 l 2,30,31
 168 585 168 585 157 574 c 128,-1,32
 146 563 146 563 146 549 c 2,33,-1
 146 183 l 2,34,35
 146 168 146 168 157 157 c 128,-1,36
 168 146 168 146 183 146 c 2,37,-1
 1573 146 l 2,38,39
 1589 146 1589 146 1598 157 c 1,40,41
 1609 167 1609 167 1609 183 c 2,24,-1
203 731 m 1,42,-1
 1552 731 l 1,43,-1
 1373 1282 l 2,44,45
 1369 1297 1369 1297 1354 1307 c 1,46,47
 1343 1317 1343 1317 1325 1317 c 2,48,-1
 431 1317 l 2,49,50
 414 1317 414 1317 401 1307 c 0,51,52
 387 1296 387 1296 383 1282 c 2,53,-1
 203 731 l 1,42,-1
1755 549 m 2,54,-1
 1755 183 l 2,55,56
 1755 109 1755 109 1702 54 c 1,57,58
 1648 0 1648 0 1573 0 c 2,59,-1
 183 0 l 2,60,61
 108 0 108 0 54 54 c 1,62,63
 0 106 0 106 0 183 c 2,64,-1
 0 549 l 2,65,66
 0 578 0 578 18 634 c 2,67,-1
 243 1327 l 2,68,69
 262 1387 262 1387 315 1426 c 1,70,71
 369 1463 369 1463 431 1463 c 2,72,-1
 1325 1463 l 2,73,74
 1388 1463 1388 1463 1440 1425 c 1,75,76
 1492 1389 1492 1389 1512 1327 c 2,77,-1
 1737 634 l 2,78,79
 1755 578 1755 578 1755 549 c 2,54,-1
EndSplineSet
Validated: 1
EndChar

StartChar: brokenbar
Encoding: 166 166 95
Width: 2048
Flags: W
LayerCount: 2
Fore
SplineSet
1097 731 m 128,-1,1
 1127 731 1127 731 1148 710 c 0,2,3
 1170 688 1170 688 1170 658 c 0,4,5
 1170 629 1170 629 1148 607 c 0,6,7
 1127 585 1127 585 1097 585 c 128,-1,8
 1067 585 1067 585 1046 607 c 0,9,10
 1024 629 1024 629 1024 658 c 0,11,12
 1024 688 1024 688 1046 710 c 0,13,0
 1067 731 1067 731 1097 731 c 128,-1,1
1440 658 m 1,14,-1
 2019 203 l 1,15,16
 2048 182 2048 182 2048 146 c 2,17,-1
 2048 139 l 1,18,19
 2042 99 2042 99 2008 81 c 2,20,-1
 1862 8 l 2,21,22
 1846 0 1846 0 1829 0 c 0,23,24
 1810 0 1810 0 1793 9 c 2,25,-1
 1005 451 l 1,26,-1
 879 376 l 2,27,28
 871 372 871 372 865 370 c 1,29,30
 878 328 878 328 878 283 c 0,31,32
 878 267 878 267 877 259 c 0,33,34
 870 173 870 173 813 90 c 0,35,36
 758 11 758 11 662 -50 c 0,37,38
 510 -146 510 -146 345 -146 c 0,39,40
 191 -146 191 -146 91 -57 c 1,41,42
 -1 29 -1 29 -1 147 c 0,43,44
 -1 157 -1 157 1 179 c 0,45,46
 8 264 8 264 65 348 c 0,47,48
 120 429 120 429 215 489 c 0,49,50
 366 585 366 585 533 585 c 0,51,52
 627 585 627 585 705 550 c 1,53,54
 715 565 715 565 730 575 c 2,55,-1
 870 658 l 1,56,-1
 730 742 l 2,57,58
 715 752 715 752 705 767 c 1,59,60
 627 732 627 732 533 731 c 1,61,62
 366 731 366 731 215 827 c 1,63,64
 120 889 120 889 65 969 c 0,65,66
 8 1052 8 1052 1 1137 c 0,67,68
 0 1146 0 1146 0 1164 c 0,69,70
 0 1216 0 1216 18 1266 c 1,71,72
 43 1329 43 1329 91 1373 c 0,73,74
 188 1463 188 1463 345 1463 c 0,75,76
 510 1463 510 1463 662 1367 c 0,77,78
 758 1307 758 1307 813 1226 c 0,79,80
 870 1143 870 1143 877 1057 c 0,81,82
 878 1049 878 1049 878 1033 c 0,83,84
 878 988 878 988 865 946 c 1,85,86
 877 942 877 942 879 941 c 2,87,-1
 1005 865 l 1,88,-1
 1793 1307 l 2,89,90
 1808 1315 1808 1315 1829 1317 c 1,91,92
 1846 1317 1846 1317 1862 1309 c 2,93,-1
 2008 1235 l 2,94,95
 2042 1217 2042 1217 2048 1177 c 1,96,-1
 2048 1170 l 2,97,98
 2048 1134 2048 1134 2019 1113 c 1,99,-1
 1440 658 l 1,14,-1
662 955 m 0,100,101
 696 986 696 986 696 1029 c 0,102,103
 696 1052 696 1052 686 1078 c 0,104,105
 658 1154 658 1154 565 1213 c 0,106,107
 461 1280 461 1280 345 1280 c 0,108,109
 260 1280 260 1280 216 1239 c 0,110,111
 182 1208 182 1208 182 1165 c 0,112,113
 182 1142 182 1142 192 1116 c 0,114,115
 220 1042 220 1042 313 982 c 0,116,117
 416 916 416 916 533 914 c 1,118,119
 616 914 616 914 662 955 c 0,100,101
565 104 m 1,120,121
 658 162 658 162 686 238 c 0,122,123
 696 264 696 264 696 287 c 0,124,125
 696 330 696 330 662 361 c 0,126,127
 616 402 616 402 533 402 c 0,128,129
 419 402 419 402 313 335 c 0,130,131
 218 276 218 276 192 202 c 0,132,133
 182 176 182 176 182 152 c 0,134,135
 182 109 182 109 216 78 c 0,136,137
 262 37 262 37 345 37 c 0,138,139
 461 37 461 37 565 104 c 1,120,121
768 805 m 1,140,-1
 878 738 l 1,141,-1
 878 751 l 2,142,143
 878 793 878 793 915 815 c 1,144,-1
 931 824 l 1,145,-1
 841 878 l 1,146,-1
 811 848 l 2,147,148
 805 842 805 842 800 836 c 1,149,150
 795 828 795 828 786 822 c 1,151,-1
 782 818 l 2,152,153
 780 817 780 817 778 815 c 2,154,-1
 768 805 l 1,140,-1
1024 549 m 1,155,-1
 1134 512 l 1,156,-1
 1975 1170 l 1,157,-1
 1829 1243 l 1,158,-1
 951 751 l 1,159,-1
 951 622 l 1,160,-1
 768 512 l 1,161,-1
 778 503 l 2,162,163
 782 499 782 499 786 496 c 0,164,165
 794 488 794 488 799 482 c 128,-1,166
 804 476 804 476 811 469 c 2,167,-1
 841 439 l 1,168,-1
 1024 549 l 1,155,-1
1829 73 m 1,169,-1
 1975 146 l 1,170,-1
 1381 613 l 1,171,-1
 1178 455 l 1,172,173
 1176 451 1176 451 1163 447 c 1,174,-1
 1829 73 l 1,169,-1
EndSplineSet
Validated: 1
EndChar

StartChar: section
Encoding: 167 167 96
Width: 2048
Flags: W
LayerCount: 2
Fore
SplineSet
1938 1317 m 2,0,1
 1984 1317 1984 1317 2016 1285 c 128,-1,2
 2048 1253 2048 1253 2048 1207 c 2,3,-1
 2048 -183 l 2,4,5
 2048 -229 2048 -229 2016 -261 c 128,-1,6
 1984 -293 1984 -293 1938 -293 c 2,7,-1
 841 -293 l 2,8,9
 795 -293 795 -293 763 -261 c 128,-1,10
 731 -229 731 -229 731 -183 c 2,11,-1
 731 146 l 1,12,-1
 110 146 l 2,13,14
 64 146 64 146 32 178 c 128,-1,15
 0 210 0 210 0 256 c 2,16,-1
 0 1024 l 2,17,18
 0 1069 0 1069 23 1124 c 0,19,20
 45 1178 45 1178 78 1211 c 2,21,-1
 544 1678 l 2,22,23
 578 1712 578 1712 631 1732 c 1,24,25
 684 1755 684 1755 731 1755 c 2,26,-1
 1207 1755 l 2,27,28
 1253 1755 1253 1755 1285 1723 c 128,-1,29
 1317 1691 1317 1691 1317 1646 c 2,30,-1
 1317 1271 l 1,31,32
 1394 1317 1394 1317 1463 1317 c 2,33,-1
 1938 1317 l 2,0,1
1317 1073 m 1,34,-1
 975 731 l 1,35,-1
 1317 731 l 1,36,-1
 1317 1073 l 1,34,-1
585 1512 m 1,37,-1
 243 1170 l 1,38,-1
 585 1170 l 1,39,-1
 585 1512 l 1,37,-1
809 773 m 2,40,-1
 1170 1134 l 1,41,-1
 1170 1609 l 1,42,-1
 731 1609 l 1,43,-1
 731 1134 l 2,44,45
 731 1088 731 1088 699 1056 c 128,-1,46
 667 1024 667 1024 622 1024 c 2,47,-1
 146 1024 l 1,48,-1
 146 293 l 1,49,-1
 731 293 l 1,50,-1
 731 585 l 2,51,52
 731 629 731 629 754 686 c 0,53,54
 776 740 776 740 809 773 c 2,40,-1
1902 -146 m 1,55,-1
 1902 1170 l 1,56,-1
 1463 1170 l 1,57,-1
 1463 695 l 2,58,59
 1463 649 1463 649 1431 617 c 128,-1,60
 1399 585 1399 585 1353 585 c 2,61,-1
 878 585 l 1,62,-1
 878 -146 l 1,63,-1
 1902 -146 l 1,55,-1
EndSplineSet
Validated: 1
EndChar

StartChar: dieresis
Encoding: 168 168 97
Width: 2048
Flags: W
LayerCount: 2
Fore
SplineSet
878 -146 m 1,0,-1
 1902 -146 l 1,1,-1
 1902 585 l 1,2,-1
 1426 585 l 2,3,4
 1382 585 1382 585 1348 617 c 1,5,6
 1317 650 1317 650 1317 695 c 2,7,-1
 1317 1170 l 1,8,-1
 878 1170 l 1,9,-1
 878 -146 l 1,0,-1
1170 1499 m 2,10,-1
 1170 1573 l 2,11,12
 1170 1588 1170 1588 1160 1598 c 0,13,14
 1149 1609 1149 1609 1134 1609 c 2,15,-1
 329 1609 l 2,16,17
 313 1609 313 1609 304 1598 c 1,18,19
 293 1588 293 1588 293 1573 c 2,20,-1
 293 1499 l 2,21,22
 293 1482 293 1482 304 1474 c 1,23,24
 312 1463 312 1463 329 1463 c 2,25,-1
 1134 1463 l 2,26,27
 1149 1463 1149 1463 1160 1474 c 0,28,29
 1170 1484 1170 1484 1170 1499 c 2,10,-1
1463 731 m 1,30,-1
 1805 731 l 1,31,-1
 1463 1073 l 1,32,-1
 1463 731 l 1,30,-1
2048 585 m 2,33,-1
 2048 -183 l 2,34,35
 2048 -229 2048 -229 2016 -261 c 128,-1,36
 1984 -293 1984 -293 1938 -293 c 2,37,-1
 841 -293 l 2,38,39
 795 -293 795 -293 763 -261 c 128,-1,40
 731 -229 731 -229 731 -183 c 2,41,-1
 731 0 l 1,42,-1
 110 0 l 2,43,44
 64 0 64 0 32 32 c 128,-1,45
 0 64 0 64 0 110 c 2,46,-1
 0 1646 l 2,47,48
 0 1690 0 1690 32 1724 c 1,49,50
 65 1755 65 1755 110 1755 c 2,51,-1
 1353 1755 l 2,52,53
 1399 1755 1399 1755 1431 1723 c 128,-1,54
 1463 1691 1463 1691 1463 1646 c 2,55,-1
 1463 1271 l 1,56,57
 1487 1256 1487 1256 1504 1239 c 2,58,-1
 1970 773 l 2,59,60
 2003 740 2003 740 2025 686 c 0,61,62
 2048 629 2048 629 2048 585 c 2,33,-1
EndSplineSet
Validated: 1
EndChar

StartChar: copyright
Encoding: 169 169 98
Width: 1901
Flags: W
LayerCount: 2
Fore
SplineSet
1361 1289 m 1,0,-1
 1563 1289 l 1,1,-1
 1481 1538 l 1,2,-1
 1467 1592 l 1,3,4
 1467 1596 1467 1596 1466.5 1600 c 128,-1,5
 1466 1604 1466 1604 1465.5 1607 c 128,-1,6
 1465 1610 1465 1610 1465 1612 c 128,-1,7
 1465 1614 1465 1614 1465 1615 c 1,8,-1
 1461 1615 l 1,9,-1
 1457 1592 l 2,10,11
 1457 1588 1457 1588 1453 1572 c 0,12,13
 1447 1544 1447 1544 1445 1538 c 2,14,-1
 1361 1289 l 1,0,-1
841 110 m 0,15,16
 841 96 841 96 830 82 c 1,17,-1
 465 -282 l 2,18,19
 456 -291 456 -291 439 -293 c 1,20,21
 426 -293 426 -293 413 -282 c 1,22,-1
 47 83 l 2,23,24
 30 101 30 101 39 123 c 0,25,26
 48 146 48 146 73 146 c 2,27,-1
 293 146 l 1,28,-1
 293 1719 l 2,29,30
 293 1735 293 1735 303 1745 c 128,-1,31
 313 1755 313 1755 329 1755 c 2,32,-1
 549 1755 l 2,33,34
 565 1755 565 1755 575 1745 c 128,-1,35
 585 1735 585 1735 585 1719 c 2,36,-1
 585 146 l 1,37,-1
 805 146 l 2,38,39
 821 146 821 146 831 136 c 128,-1,40
 841 126 841 126 841 110 c 0,15,16
1797 -26 m 1,41,-1
 1797 -293 l 1,42,-1
 1129 -293 l 1,43,-1
 1129 -190 l 1,44,-1
 1551 415 l 2,45,46
 1564 435 1564 435 1575 446 c 1,47,-1
 1587 456 l 1,48,-1
 1587 459 l 1,49,50
 1583 459 1583 459 1580 458 c 1,51,-1
 1571 458 l 1,52,53
 1558 455 1558 455 1537 455 c 2,54,-1
 1272 455 l 1,55,-1
 1272 323 l 1,56,-1
 1135 323 l 1,57,-1
 1135 585 l 1,58,-1
 1783 585 l 1,59,-1
 1783 483 l 1,60,-1
 1361 -122 l 2,61,62
 1354 -131 1354 -131 1337 -152 c 1,63,-1
 1325 -165 l 1,64,-1
 1325 -167 l 1,65,-1
 1341 -165 l 2,66,67
 1352 -163 1352 -163 1375 -162 c 1,68,-1
 1658 -162 l 1,69,-1
 1658 -26 l 1,70,-1
 1797 -26 l 1,41,-1
1898 999 m 1,71,-1
 1898 878 l 1,72,-1
 1569 878 l 1,73,-1
 1569 999 l 1,74,-1
 1655 999 l 1,75,-1
 1601 1163 l 1,76,-1
 1323 1163 l 1,77,-1
 1270 999 l 1,78,-1
 1355 999 l 1,79,-1
 1355 878 l 1,80,-1
 1027 878 l 1,81,-1
 1027 999 l 1,82,-1
 1107 999 l 1,83,-1
 1370 1755 l 1,84,-1
 1555 1755 l 1,85,-1
 1818 999 l 1,86,-1
 1898 999 l 1,71,-1
EndSplineSet
Validated: 1
EndChar

StartChar: ordfeminine
Encoding: 170 170 99
Width: 2048
Flags: W
LayerCount: 2
Fore
SplineSet
1024 1642 m 132,-1,1
 1300 1642 1300 1642 1538 1505 c 5,2,3
 1775 1365 1775 1365 1910 1131 c 5,4,5
 2048 897 2048 897 2048 617 c 4,6,7
 2048 340 2048 340 1910 103 c 4,8,9
 1773 -132 1773 -132 1538 -269 c 5,10,11
 1300 -406 1300 -406 1024 -406 c 132,-1,12
 748 -406 748 -406 510 -269 c 5,13,14
 276 -133 276 -133 138 103 c 4,15,16
 0 338 0 338 0 617 c 4,17,18
 0 897 0 897 138 1131 c 5,19,20
 273 1365 273 1365 510 1505 c 5,21,0
 748 1642 748 1642 1024 1642 c 132,-1,1
770 1363 m 5,22,23
 639 1318 639 1318 531 1232 c 5,24,25
 555 1235 555 1235 579 1235 c 6,26,-1
 606 1234 l 5,27,28
 639 1221 639 1221 682 1169 c 5,29,30
 726 1118 726 1118 751 1104 c 4,31,32
 762 1098 762 1098 777 1097 c 5,33,34
 784 1079 784 1079 824 1071 c 5,35,36
 865 1065 865 1065 870 1056 c 5,37,38
 918 1031 918 1031 947 990 c 5,39,40
 943 986 943 986 938 977 c 4,41,42
 935 973 935 973 932 968.5 c 132,-1,43
 929 964 929 964 928 963 c 5,44,45
 928 959 928 959 920 951 c 4,46,47
 915 945 915 945 909 937 c 4,48,49
 908 936 908 936 906.5 935 c 132,-1,50
 905 934 905 934 904 933 c 132,-1,51
 903 932 903 932 901.5 930 c 132,-1,52
 900 928 900 928 899 927 c 4,53,54
 897 925 897 925 895 923 c 132,-1,55
 893 921 893 921 890.5 918.5 c 132,-1,56
 888 916 888 916 887 915 c 132,-1,57
 886 914 886 914 881.5 911.5 c 132,-1,58
 877 909 877 909 874 908 c 5,59,60
 874 906 874 906 875 906 c 132,-1,61
 876 906 876 906 876 904 c 5,62,63
 886 890 886 890 869 882 c 5,64,65
 844 875 844 875 829 871 c 4,66,67
 801 864 801 864 793 861 c 4,68,69
 781 856 781 856 770 841 c 4,70,71
 757 825 757 825 753 799 c 4,72,73
 751 789 751 789 744 782 c 5,74,75
 749 740 749 740 749 712 c 4,76,77
 749 692 749 692 748 683 c 4,78,79
 743 639 743 639 720 635 c 4,80,81
 708 633 708 633 695 640 c 5,82,83
 681 643 681 643 658 655 c 4,84,85
 639 666 639 666 606 691 c 5,86,87
 607 682 607 682 616 661 c 4,88,89
 624 643 624 643 626 633 c 5,90,-1
 638 633 l 5,91,92
 650 638 650 638 660 629 c 5,93,94
 669 619 669 619 660 609 c 5,95,-1
 655 599 l 5,96,-1
 654 594 l 5,97,-1
 667 587 l 5,98,99
 686 571 686 571 704 569 c 4,100,101
 717 568 717 568 753 573 c 5,102,103
 780 583 780 583 807 577 c 5,104,105
 832 574 832 574 852 567 c 4,106,107
 871 561 871 561 893 546 c 4,108,109
 916 531 916 531 932 519 c 4,110,111
 962 495 962 495 970 489 c 4,112,113
 983 478 983 478 1009 459 c 4,114,115
 1010 458 1010 458 1016.5 454.5 c 132,-1,116
 1023 451 1023 451 1032 445 c 132,-1,117
 1041 439 1041 439 1052 433 c 5,118,119
 1088 409 1088 409 1106 393 c 5,120,121
 1125 374 1125 374 1125 351 c 5,122,123
 1124 332 1124 332 1123 306.5 c 132,-1,124
 1122 281 1122 281 1122 273 c 5,125,126
 1118 245 1118 245 1108 215 c 4,127,128
 1096 178 1096 178 1072 153 c 5,129,130
 1050 135 1050 135 1025 115 c 4,131,132
 1001 97 1001 97 977 73 c 5,133,134
 958 51 958 51 947 25 c 5,135,136
 938 1 938 1 939 -29 c 5,137,138
 925 -52 925 -52 916 -71 c 4,139,140
 897 -112 897 -112 894 -119 c 4,141,142
 890 -127 890 -127 886.5 -134 c 132,-1,143
 883 -141 883 -141 879 -148.5 c 132,-1,144
 875 -156 875 -156 874 -159 c 5,145,146
 949 -174 949 -174 1024 -174 c 4,147,148
 1147 -174 1147 -174 1270 -133 c 4,149,150
 1462 -69 1462 -69 1601 82 c 5,151,152
 1704 192 1704 192 1756 327 c 4,153,154
 1810 468 1810 468 1814 611 c 5,155,-1
 1736 563 l 5,156,157
 1688 572 1688 572 1686 551 c 5,158,-1
 1719 537 l 6,159,160
 1727 534 1727 534 1729 529 c 4,161,162
 1736 510 1736 510 1720 485 c 5,163,164
 1709 462 1709 462 1661 413 c 5,165,166
 1658 364 1658 364 1650 346 c 5,167,168
 1638 314 1638 314 1633 304 c 5,169,-1
 1633 276 l 5,170,171
 1630 259 1630 259 1614 227 c 4,172,173
 1599 198 1599 198 1596 179 c 5,174,175
 1592 124 1592 124 1546 75 c 5,176,177
 1494 23 1494 23 1460 23 c 4,178,179
 1454 23 1454 23 1451 24 c 4,180,181
 1431 29 1431 29 1422 48 c 5,182,183
 1395 114 1395 114 1391 123 c 4,184,185
 1385 137 1385 137 1379 150.5 c 132,-1,186
 1373 164 1373 164 1369.5 171.5 c 132,-1,187
 1366 179 1366 179 1365 182 c 4,188,189
 1358 200 1358 200 1358 221 c 5,190,191
 1360 253 1360 253 1363 269 c 4,192,193
 1367 294 1367 294 1367 309 c 4,194,195
 1368 329 1368 329 1355 360 c 4,196,197
 1341 392 1341 392 1340 401 c 4,198,199
 1337 416 1337 416 1347 442 c 4,200,201
 1347 443 1347 443 1329 448 c 4,202,203
 1313 452 1313 452 1265 452 c 6,204,-1
 1248 452 l 5,205,-1
 1241 452 l 6,206,207
 1149 452 1149 452 1125 563 c 4,208,209
 1122 580 1122 580 1122 595 c 4,210,211
 1122 650 1122 650 1154 700 c 5,212,213
 1156 706 1156 706 1156 716 c 5,214,215
 1155 725 1155 725 1157 732 c 5,216,217
 1176 735 1176 735 1191 768 c 5,218,219
 1205 769 1205 769 1234 774 c 4,220,221
 1249 777 1249 777 1285 781 c 5,222,223
 1309 785 1309 785 1336 787 c 5,224,225
 1362 790 1362 790 1385 787 c 5,226,227
 1407 786 1407 786 1423 776 c 4,228,229
 1439 765 1439 765 1454 758 c 5,230,231
 1481 741 1481 741 1505 732 c 5,232,-1
 1567 773 l 5,233,234
 1548 807 1548 807 1529 824 c 5,235,236
 1501 858 1501 858 1471 858 c 132,-1,237
 1441 858 1441 858 1413 824 c 5,238,-1
 1271 838 l 5,239,240
 1243 816 1243 816 1191 816 c 5,241,242
 1188 838 1188 838 1181 851 c 4,243,244
 1168 878 1168 878 1166 892 c 5,245,246
 1166 906 1166 906 1172 915 c 5,247,248
 1182 925 1182 925 1188 930 c 4,249,250
 1200 939 1200 939 1206 956 c 4,251,252
 1212 970 1212 970 1216 988 c 4,253,254
 1219 1001 1219 1001 1222 1023 c 4,255,256
 1225 1044 1225 1044 1229 1053 c 4,257,258
 1240 1082 1240 1082 1263 1119 c 4,259,260
 1279 1146 1279 1146 1310 1162 c 4,261,262
 1347 1181 1347 1181 1382 1190 c 4,263,264
 1425 1202 1425 1202 1461 1206 c 4,265,266
 1516 1212 1516 1212 1538 1213 c 5,267,268
 1463 1277 1463 1277 1382 1321 c 5,269,270
 1369 1322 1369 1322 1318 1331 c 5,271,272
 1279 1339 1279 1339 1258 1341 c 4,273,274
 1256 1341 1256 1341 1252.5 1341.5 c 132,-1,275
 1249 1342 1249 1342 1247 1342 c 4,276,277
 1207 1342 1207 1342 1159 1312 c 5,278,279
 1115 1280 1115 1280 1055 1280 c 4,280,281
 980 1280 980 1280 903 1307 c 132,-1,282
 826 1334 826 1334 770 1363 c 5,22,23
247 758 m 5,283,284
 237 697 237 697 237 628 c 4,285,286
 237 588 237 588 242 538 c 4,287,288
 254 425 254 425 297 319 c 4,289,290
 356 172 356 172 468 59 c 4,291,292
 577 -51 577 -51 725 -114 c 5,293,294
 735 17 735 17 736 24 c 4,295,296
 743 118 743 118 753 181 c 5,297,298
 745 216 745 216 706 285 c 5,299,300
 667 357 667 357 664 401 c 5,301,302
 662 448 662 448 666 463 c 5,303,304
 669 484 669 484 669 493 c 5,305,306
 667 494 667 494 650 509 c 4,307,308
 645 513 645 513 638.5 519 c 132,-1,309
 632 525 632 525 630 526 c 4,310,311
 614 542 614 542 606 546 c 4,312,313
 592 552 592 552 538 571 c 4,314,315
 474 593 474 593 468 595 c 6,316,-1
 412 619 l 5,317,318
 371 639 371 639 350 655 c 5,319,320
 336 664 336 664 294 700 c 5,321,322
 267 725 267 725 247 758 c 5,283,284
EndSplineSet
Validated: 1
EndChar

StartChar: guillemotleft
Encoding: 171 171 100
Width: 2048
Flags: W
LayerCount: 2
Fore
SplineSet
53 1082 m 2,0,-1
 53 1676 l 1,1,2
 56 1743 56 1743 102 1789 c 128,-1,3
 148 1835 148 1835 210 1835 c 2,4,-1
 804 1835 l 1,5,6
 878 1831 878 1831 956 1801 c 0,7,8
 1030 1773 1030 1773 1075 1722 c 2,9,-1
 1954 744 l 1,10,11
 1995 691 1995 691 1995 627 c 128,-1,12
 1995 563 1995 563 1954 519 c 1,13,-1
 1266 -169 l 1,14,15
 1214 -213 1214 -213 1150 -213 c 0,16,17
 1085 -213 1085 -213 1041 -169 c 1,18,-1
 166 812 l 1,19,20
 116 870 116 870 84 942 c 0,21,22
 53 1013 53 1013 53 1082 c 2,0,-1
311 1425 m 0,23,24
 312 1362 312 1362 357 1316 c 1,25,26
 402 1273 402 1273 463 1273 c 0,27,28
 527 1274 527 1274 571 1320 c 0,29,30
 614 1364 614 1364 614 1425 c 1,31,32
 611 1489 611 1489 566 1534 c 1,33,34
 521 1577 521 1577 463 1577 c 1,35,36
 400 1574 400 1574 354 1530 c 1,37,38
 311 1484 311 1484 311 1425 c 0,23,24
EndSplineSet
Validated: 1
EndChar

StartChar: logicalnot
Encoding: 172 172 101
Width: 2048
Flags: W
LayerCount: 2
Fore
SplineSet
0 1038 m 1,0,-1
 0 1533 l 1,1,2
 4 1590 4 1590 42 1628 c 0,3,4
 80 1665 80 1665 131 1666 c 1,5,-1
 628 1666 l 1,6,7
 716 1665 716 1665 809 1608 c 1,8,-1
 1587 754 l 1,9,10
 1620 709 1620 709 1622 657 c 1,11,-1
 1622 653 l 2,12,13
 1622 605 1622 605 1587 568 c 1,14,-1
 1012 -5 l 1,15,16
 969 -42 969 -42 915 -44 c 1,17,18
 862 -44 862 -44 826 -5 c 2,19,-1
 94 811 l 1,20,21
 1 926 1 926 0 1038 c 1,0,-1
251 1234 m 1,22,23
 294 1197 294 1197 341 1197 c 2,24,-1
 345 1197 l 1,25,26
 397 1199 397 1199 432 1234 c 1,27,28
 469 1274 469 1274 469 1323 c 2,29,-1
 469 1327 l 1,30,31
 468 1380 468 1380 432 1415 c 1,32,33
 392 1450 392 1450 343 1450 c 2,34,-1
 339 1450 l 1,35,36
 286 1448 286 1448 251 1415 c 1,37,38
 214 1372 214 1372 214 1325 c 2,39,-1
 214 1322 l 1,40,41
 216 1271 216 1271 251 1234 c 1,22,23
864 1662 m 1,42,-1
 1055 1662 l 1,43,44
 1120 1659 1120 1659 1180 1634 c 0,45,46
 1243 1608 1243 1608 1280 1568 c 2,47,-1
 2012 751 l 1,48,49
 2048 708 2048 708 2048 654 c 128,-1,50
 2048 600 2048 600 2012 563 c 2,51,-1
 1439 -9 l 1,52,53
 1382 -42 1382 -42 1336 -42 c 0,54,55
 1280 -42 1280 -42 1237 7 c 1,56,-1
 1799 568 l 1,57,58
 1836 611 1836 611 1836 660 c 2,59,-1
 1836 664 l 1,60,61
 1834 717 1834 717 1799 754 c 1,62,-1
 1145 1487 l 1,63,64
 1093 1552 1093 1552 998 1606 c 1,65,66
 901 1659 901 1659 864 1662 c 1,42,-1
EndSplineSet
Validated: 1
EndChar

StartChar: registered
Encoding: 174 174 102
Width: 1755
Flags: W
LayerCount: 2
Fore
SplineSet
1368 585 m 1,0,-1
 1243 585 l 2,1,2
 1213 585 1213 585 1192 607 c 0,3,4
 1170 629 1170 629 1170 658 c 2,5,-1
 1170 805 l 2,6,7
 1170 835 1170 835 1192 856 c 0,8,9
 1214 878 1214 878 1243 878 c 2,10,-1
 1368 878 l 1,11,12
 1330 1002 1330 1002 1239 1093 c 128,-1,13
 1148 1184 1148 1184 1024 1222 c 1,14,-1
 1024 1097 l 2,15,16
 1024 1067 1024 1067 1002 1046 c 1,17,18
 981 1024 981 1024 951 1024 c 2,19,-1
 805 1024 l 2,20,21
 775 1024 775 1024 753 1046 c 0,22,23
 731 1067 731 1067 731 1097 c 2,24,-1
 731 1222 l 1,25,26
 607 1184 607 1184 516 1093 c 128,-1,27
 425 1002 425 1002 387 878 c 1,28,-1
 512 878 l 2,29,30
 542 878 542 878 564 856 c 0,31,32
 585 834 585 834 585 805 c 2,33,-1
 585 658 l 2,34,35
 585 628 585 628 564 606 c 1,36,37
 542 585 542 585 512 585 c 2,38,-1
 387 585 l 1,39,40
 425 461 425 461 516 370 c 128,-1,41
 607 279 607 279 731 241 c 1,42,-1
 731 366 l 2,43,44
 731 396 731 396 753 418 c 1,45,46
 776 439 776 439 805 439 c 2,47,-1
 951 439 l 2,48,49
 981 439 981 439 1002 417 c 0,50,51
 1024 395 1024 395 1024 366 c 2,52,-1
 1024 241 l 1,53,54
 1148 279 1148 279 1239 370 c 128,-1,55
 1330 461 1330 461 1368 585 c 1,0,-1
1755 805 m 2,56,-1
 1755 658 l 2,57,58
 1755 628 1755 628 1734 606 c 1,59,60
 1712 585 1712 585 1682 585 c 2,61,-1
 1519 585 l 1,62,63
 1477 400 1477 400 1342 267 c 0,64,65
 1208 134 1208 134 1024 90 c 1,66,-1
 1024 -73 l 2,67,68
 1024 -103 1024 -103 1002 -124 c 1,69,70
 981 -146 981 -146 951 -146 c 2,71,-1
 805 -146 l 2,72,73
 775 -146 775 -146 753 -124 c 0,74,75
 731 -103 731 -103 731 -73 c 2,76,-1
 731 90 l 1,77,78
 547 132 547 132 413 266 c 1,79,80
 279 402 279 402 237 585 c 1,81,-1
 73 585 l 2,82,83
 43 585 43 585 22 607 c 0,84,85
 0 629 0 629 0 658 c 2,86,-1
 0 805 l 2,87,88
 0 835 0 835 22 856 c 1,89,90
 43 878 43 878 73 878 c 2,91,-1
 237 878 l 1,92,93
 279 1062 279 1062 413 1196 c 0,94,95
 546 1330 546 1330 731 1373 c 1,96,-1
 731 1536 l 2,97,98
 731 1566 731 1566 753 1588 c 1,99,100
 776 1609 776 1609 805 1609 c 2,101,-1
 951 1609 l 2,102,103
 981 1609 981 1609 1002 1588 c 0,104,105
 1024 1566 1024 1566 1024 1536 c 2,106,-1
 1024 1373 l 1,107,108
 1208 1331 1208 1331 1342 1196 c 1,109,110
 1477 1062 1477 1062 1519 878 c 1,111,-1
 1682 878 l 2,112,113
 1712 878 1712 878 1734 856 c 0,114,115
 1755 835 1755 835 1755 805 c 2,56,-1
EndSplineSet
Validated: 1
EndChar

StartChar: macron
Encoding: 175 175 103
Width: 2048
VWidth: 0
LayerCount: 2
Fore
SplineSet
1456 1638 m 1,0,-1
 2048 1046 l 1,1,-1
 1680 678 l 1,2,-1
 1088 1270 l 1,3,-1
 1456 1638 l 1,0,-1
1472 1162 m 1,4,-1
 1564 1253 l 1,5,-1
 1478 1339 l 1,6,-1
 1387 1248 l 1,7,-1
 1472 1162 l 1,4,-1
1658 977 m 1,8,-1
 1749 1068 l 1,9,-1
 1663 1154 l 1,10,-1
 1572 1062 l 1,11,-1
 1658 977 l 1,8,-1
639 45 m 1,12,-1
 455 229 l 1,13,-1
 953 727 l 1,14,-1
 1137 543 l 1,15,-1
 639 45 l 1,12,-1
1564 622 m 1,16,-1
 1649 537 l 1,17,-1
 848 -265 l 2,18,19
 789 -324 789 -324 720 -358 c 128,-1,20
 651 -392 651 -392 572 -404 c 0,21,22
 536 -409 536 -409 498.5 -409 c 128,-1,23
 461 -409 461 -409 421 -404 c 0,24,25
 346 -394 346 -394 274 -358 c 0,26,27
 200 -321 200 -321 145 -265 c 0,28,29
 50 -168 50 -168 16 -41 c 0,30,31
 -1 22 -1 22 -1 86 c 128,-1,32
 -1 150 -1 150 16 215 c 0,33,34
 49 342 49 342 145 438 c 2,35,-1
 947 1239 l 1,36,-1
 1032 1154 l 1,37,-1
 1564 622 l 1,16,-1
639 -126 m 1,38,-1
 1308 543 l 1,39,-1
 953 898 l 1,40,-1
 284 229 l 1,41,-1
 639 -126 l 1,38,-1
EndSplineSet
Validated: 1
EndChar

StartChar: degree
Encoding: 176 176 104
Width: 1820
Flags: W
LayerCount: 2
Fore
SplineSet
910 459 m 0,0,1
 846 459 846 459 798 507.5 c 128,-1,2
 750 556 750 556 750 621 c 0,3,4
 750 691 750 691 796 738 c 128,-1,5
 842 785 842 785 910 785 c 0,6,7
 981 785 981 785 1028.5 738 c 128,-1,8
 1076 691 1076 691 1076 621 c 0,9,10
 1076 555 1076 555 1028 507 c 128,-1,11
 980 459 980 459 910 459 c 0,0,1
910 704 m 0,12,13
 874 704 874 704 852 681 c 128,-1,14
 830 658 830 658 830 621 c 128,-1,15
 830 584 830 584 852 561.5 c 128,-1,16
 874 539 874 539 910 539 c 0,17,18
 948 539 948 539 972 561.5 c 128,-1,19
 996 584 996 584 996 621 c 128,-1,20
 996 658 996 658 972 681 c 128,-1,21
 948 704 948 704 910 704 c 0,12,13
908 1494 m 0,22,23
 1086 1494 1086 1494 1248.5 1425 c 128,-1,24
 1411 1356 1411 1356 1528 1239 c 128,-1,25
 1645 1122 1645 1122 1714.5 960.5 c 128,-1,26
 1784 799 1784 799 1784 621 c 128,-1,27
 1784 443 1784 443 1714.5 281 c 128,-1,28
 1645 119 1645 119 1528 2 c 128,-1,29
 1411 -115 1411 -115 1248.5 -184 c 128,-1,30
 1086 -253 1086 -253 908 -253 c 128,-1,31
 730 -253 730 -253 568.5 -184 c 128,-1,32
 407 -115 407 -115 290.5 2 c 128,-1,33
 174 119 174 119 105 281 c 128,-1,34
 36 443 36 443 36 621 c 0,35,36
 36 763 36 763 80 896.5 c 128,-1,37
 124 1030 124 1030 204.5 1137 c 128,-1,38
 285 1244 285 1244 392.5 1325 c 128,-1,39
 500 1406 500 1406 633 1450 c 128,-1,40
 766 1494 766 1494 908 1494 c 0,22,23
274 134 m 1,41,42
 283 120 283 120 293.5 107.5 c 128,-1,43
 304 95 304 95 321.5 76.5 c 128,-1,44
 339 58 339 58 344 52 c 0,45,46
 410 -16 410 -16 516 -77 c 1,47,-1
 714 296 l 1,48,49
 800 242 800 242 910 242 c 0,50,51
 1070 242 1070 242 1180 352 c 128,-1,52
 1290 462 1290 462 1290 621 c 0,53,54
 1290 774 1290 774 1184 885 c 1,55,-1
 1542 1112 l 1,56,57
 1516 1151 1516 1151 1476 1186 c 1,58,59
 1405 1257 1405 1257 1300 1321 c 1,60,-1
 1104 947 l 1,61,62
 1019 999 1019 999 910 999 c 0,63,64
 753 999 753 999 643.5 889 c 128,-1,65
 534 779 534 779 534 621 c 0,66,67
 534 467 534 467 632 361 c 1,68,-1
 274 134 l 1,41,42
EndSplineSet
Validated: 1
EndChar

StartChar: plusminus
Encoding: 177 177 105
Width: 2048
VWidth: 0
LayerCount: 2
Fore
SplineSet
1728 1198 m 2,0,1
 1758 1168 1758 1168 1758 1126 c 2,2,-1
 1758 -308 l 2,3,4
 1758 -350 1758 -350 1728 -380 c 128,-1,5
 1698 -410 1698 -410 1655 -410 c 2,6,-1
 393 -410 l 2,7,8
 350 -410 350 -410 320 -380 c 128,-1,9
 290 -350 290 -350 290 -308 c 2,10,-1
 290 1536 l 2,11,12
 290 1578 290 1578 320 1608 c 128,-1,13
 350 1638 350 1638 393 1638 c 2,14,-1
 1246 1638 l 2,15,16
 1288 1638 1288 1638 1318 1608 c 2,17,-1
 1728 1198 l 2,0,1
1655 -308 m 1,18,-1
 1655 1126 l 1,19,-1
 1246 1536 l 1,20,-1
 393 1536 l 1,21,-1
 393 -308 l 1,22,-1
 1655 -308 l 1,18,-1
495 1058 m 1,23,-1
 495 1433 l 1,24,-1
 597 1433 l 1,25,-1
 597 1058 l 1,26,-1
 495 1058 l 1,23,-1
700 1058 m 1,27,-1
 700 1433 l 1,28,-1
 802 1433 l 1,29,-1
 802 1058 l 1,30,-1
 700 1058 l 1,27,-1
905 1058 m 1,31,-1
 905 1433 l 1,32,-1
 1007 1433 l 1,33,-1
 1007 1058 l 1,34,-1
 905 1058 l 1,31,-1
1109 1058 m 1,35,-1
 1109 1433 l 1,36,-1
 1212 1433 l 1,37,-1
 1212 1058 l 1,38,-1
 1109 1058 l 1,35,-1
1314 1058 m 1,39,-1
 1314 1263 l 1,40,-1
 1417 1263 l 1,41,-1
 1417 1058 l 1,42,-1
 1314 1058 l 1,39,-1
EndSplineSet
Validated: 1
EndChar

StartChar: uni00B2
Encoding: 178 178 106
Width: 2048
Flags: W
LayerCount: 2
Fore
SplineSet
1364 234 m 5,0,-1
 1364 1430 l 5,1,-1
 596 1430 l 5,2,-1
 596 234 l 5,3,-1
 1364 234 l 5,0,-1
980 -106 m 132,-1,5
 1032 -106 1032 -106 1070 -68 c 132,-1,6
 1108 -30 1108 -30 1108 22 c 132,-1,7
 1108 74 1108 74 1070 112 c 132,-1,8
 1032 150 1032 150 980 150 c 132,-1,9
 928 150 928 150 890 112 c 132,-1,10
 852 74 852 74 852 22 c 132,-1,11
 852 -30 852 -30 890 -68 c 132,-1,4
 928 -106 928 -106 980 -106 c 132,-1,5
1324 1686 m 6,12,13
 1412 1686 1412 1686 1474 1622 c 132,-1,14
 1536 1558 1536 1558 1536 1470 c 6,15,-1
 1536 22 l 6,16,17
 1536 -66 1536 -66 1474 -130 c 132,-1,18
 1412 -194 1412 -194 1324 -194 c 6,19,-1
 640 -194 l 6,20,21
 552 -194 552 -194 490 -130 c 132,-1,22
 428 -66 428 -66 428 22 c 6,23,-1
 428 1470 l 6,24,25
 428 1558 428 1558 490 1622 c 132,-1,26
 552 1686 552 1686 640 1686 c 6,27,-1
 1324 1686 l 6,12,13
EndSplineSet
Validated: 1
EndChar

StartChar: uni00B3
Encoding: 179 179 107
Width: 1316
Flags: W
LayerCount: 2
Fore
SplineSet
366 878 m 1,0,-1
 951 878 l 1,1,-1
 951 1097 l 2,2,3
 951 1218 951 1218 865 1304 c 128,-1,4
 779 1390 779 1390 658 1390 c 128,-1,5
 537 1390 537 1390 451.5 1304 c 128,-1,6
 366 1218 366 1218 366 1097 c 2,7,-1
 366 878 l 1,0,-1
1317 768 m 2,8,-1
 1317 110 l 2,9,10
 1317 64 1317 64 1285 32 c 128,-1,11
 1253 0 1253 0 1207 0 c 2,12,-1
 110 0 l 2,13,14
 64 0 64 0 32 32 c 128,-1,15
 0 64 0 64 0 110 c 2,16,-1
 0 768 l 2,17,18
 0 814 0 814 32 846 c 128,-1,19
 64 878 64 878 110 878 c 2,20,-1
 146 878 l 1,21,-1
 146 1097 l 2,22,23
 146 1307 146 1307 297 1458 c 128,-1,24
 448 1609 448 1609 658.5 1609 c 128,-1,25
 869 1609 869 1609 1019.5 1458 c 128,-1,26
 1170 1307 1170 1307 1170 1097 c 2,27,-1
 1170 878 l 1,28,-1
 1207 878 l 2,29,30
 1253 878 1253 878 1285 846 c 128,-1,31
 1317 814 1317 814 1317 768 c 2,8,-1
EndSplineSet
Validated: 1
EndChar

StartChar: acute
Encoding: 180 180 108
Width: 2048
Flags: W
LayerCount: 2
Fore
SplineSet
1024 1835 m 128,-1,1
 1302 1835 1302 1835 1537.5 1697.5 c 128,-1,2
 1773 1560 1773 1560 1910.5 1324.5 c 128,-1,3
 2048 1089 2048 1089 2048 810.5 c 128,-1,4
 2048 532 2048 532 1910.5 296.5 c 128,-1,5
 1773 61 1773 61 1537.5 -76 c 128,-1,6
 1302 -213 1302 -213 1024 -213 c 128,-1,7
 746 -213 746 -213 510.5 -76 c 128,-1,8
 275 61 275 61 137.5 296.5 c 128,-1,9
 0 532 0 532 0 810.5 c 128,-1,10
 0 1089 0 1089 137.5 1324.5 c 128,-1,11
 275 1560 275 1560 510.5 1697.5 c 128,-1,0
 746 1835 746 1835 1024 1835 c 128,-1,1
1005 1579 m 0,12,13
 944 1579 944 1579 861 1544.5 c 128,-1,14
 778 1510 778 1510 715 1456.5 c 128,-1,15
 652 1403 652 1403 649 1352 c 0,16,17
 648 1333 648 1333 648 1317 c 0,18,19
 648 1290 648 1290 650 1276 c 0,20,21
 654 1249 654 1249 660 1244 c 0,22,23
 664 1239 664 1239 672 1234 c 2,24,-1
 788 1234 l 1,25,26
 810 1283 810 1283 842 1306 c 0,27,28
 873 1328 873 1328 929 1328 c 0,29,30
 932 1328 932 1328 934 1328 c 0,31,32
 1002 1328 1002 1328 1051 1262 c 0,33,34
 1083 1219 1083 1219 1083 1176 c 0,35,36
 1082 1151 1082 1151 1072 1126 c 0,37,38
 1053 1079 1053 1079 1012 1011 c 0,39,40
 971 946 971 946 949 898 c 0,41,42
 906 806 906 806 906 715 c 0,43,44
 906 708 906 708 906 700 c 0,45,46
 909 601 909 601 947 514 c 1,47,-1
 1091 510 l 1,48,49
 1088 528 1088 528 1087 557 c 0,50,51
 1086 585 1086 585 1094 617 c 0,52,53
 1106 671 1106 671 1136 720.5 c 128,-1,54
 1166 770 1166 770 1195.5 811 c 128,-1,55
 1225 852 1225 852 1263.5 898 c 128,-1,56
 1302 944 1302 944 1319 969 c 0,57,58
 1355 1025 1355 1025 1373 1064.5 c 128,-1,59
 1391 1104 1391 1104 1396 1135 c 128,-1,60
 1401 1166 1401 1166 1401 1219 c 0,61,62
 1401 1362 1401 1362 1299 1466 c 0,63,64
 1191 1577 1191 1577 1005 1579 c 0,12,13
1012.5 391 m 128,-1,66
 940 391 940 391 889 340.5 c 128,-1,67
 838 290 838 290 838 217.5 c 128,-1,68
 838 145 838 145 889 94 c 128,-1,69
 940 43 940 43 1012.5 43 c 128,-1,70
 1085 43 1085 43 1135.5 94 c 128,-1,71
 1186 145 1186 145 1186 217.5 c 128,-1,72
 1186 290 1186 290 1135.5 340.5 c 128,-1,65
 1085 391 1085 391 1012.5 391 c 128,-1,66
EndSplineSet
Validated: 1
EndChar

StartChar: mu
Encoding: 181 181 109
Width: 2048
Flags: W
LayerCount: 2
Fore
SplineSet
1902 658 m 1,0,1
 1728 928 1728 928 1466 1062 c 1,2,3
 1536 943 1536 943 1536 805 c 0,4,5
 1536 594 1536 594 1385.5 443.5 c 128,-1,6
 1235 293 1235 293 1024 293 c 128,-1,7
 813 293 813 293 662.5 443 c 128,-1,8
 512 593 512 593 512 805 c 0,9,10
 512 943 512 943 582 1062 c 1,11,12
 320 928 320 928 146 658 c 1,13,14
 298 424 298 424 527.5 285 c 128,-1,15
 757 146 757 146 1024 146 c 128,-1,16
 1291 146 1291 146 1520.5 285 c 128,-1,17
 1750 424 1750 424 1902 658 c 1,0,1
1079 1097 m 128,-1,19
 1079 1120 1079 1120 1063 1136 c 128,-1,20
 1047 1152 1047 1152 1024 1152 c 0,21,22
 881 1152 881 1152 779 1049.5 c 128,-1,23
 677 947 677 947 677 805 c 0,24,25
 677 782 677 782 693 766 c 128,-1,26
 709 750 709 750 731.5 750 c 128,-1,27
 754 750 754 750 770 766 c 128,-1,28
 786 782 786 782 786 805 c 0,29,30
 786 903 786 903 856 972.5 c 128,-1,31
 926 1042 926 1042 1024 1042 c 0,32,33
 1047 1042 1047 1042 1063 1058 c 128,-1,18
 1079 1074 1079 1074 1079 1097 c 128,-1,19
2048 658 m 128,-1,35
 2048 619 2048 619 2025 579 c 0,36,37
 1865 316 1865 316 1595 158 c 128,-1,38
 1325 0 1325 0 1024 0 c 128,-1,39
 723 0 723 0 453 159 c 128,-1,40
 183 318 183 318 23 579 c 0,41,42
 0 619 0 619 0 658 c 128,-1,43
 0 697 0 697 23 737 c 0,44,45
 183 999 183 999 453 1158 c 128,-1,46
 723 1317 723 1317 1024 1317 c 128,-1,47
 1325 1317 1325 1317 1595 1158 c 128,-1,48
 1865 999 1865 999 2025 737 c 0,49,34
 2048 697 2048 697 2048 658 c 128,-1,35
EndSplineSet
Validated: 1
EndChar

StartChar: periodcentered
Encoding: 183 183 110
Width: 2048
Flags: W
LayerCount: 2
Fore
SplineSet
1708 765 m 5,0,-1
 1708 1105 l 5,1,-1
 340 1105 l 5,2,-1
 340 765 l 5,3,-1
 1364 765 l 5,4,-1
 1364 937 l 5,5,-1
 1536 937 l 5,6,-1
 1536 765 l 5,7,-1
 1708 765 l 5,0,-1
596 81 m 132,-1,9
 700 81 700 81 776 157 c 132,-1,10
 852 233 852 233 852 337 c 132,-1,11
 852 441 852 441 776 517 c 132,-1,12
 700 593 700 593 596 593 c 132,-1,13
 492 593 492 593 416 517 c 132,-1,14
 340 441 340 441 340 337 c 132,-1,15
 340 233 340 233 416 157 c 132,-1,8
 492 81 492 81 596 81 c 132,-1,9
276 1265 m 6,16,-1
 1356 1705 l 5,17,-1
 1412 1561 l 5,18,-1
 708 1277 l 5,19,-1
 1708 1277 l 6,20,21
 1780 1277 1780 1277 1828 1227 c 132,-1,22
 1876 1177 1876 1177 1876 1105 c 6,23,-1
 1876 81 l 6,24,25
 1876 13 1876 13 1828 -37 c 132,-1,26
 1780 -87 1780 -87 1708 -87 c 6,27,-1
 340 -87 l 6,28,29
 268 -87 268 -87 220 -37 c 132,-1,30
 172 13 172 13 172 81 c 6,31,-1
 172 1105 l 6,32,33
 172 1225 172 1225 276 1265 c 6,16,-1
EndSplineSet
Validated: 1
EndChar

StartChar: cedilla
Encoding: 184 184 111
Width: 1755
Flags: W
LayerCount: 2
Fore
SplineSet
1755 1463 m 2,0,-1
 1755 951 l 2,1,2
 1755 921 1755 921 1733.5 899.5 c 128,-1,3
 1712 878 1712 878 1682 878 c 2,4,-1
 1170 878 l 2,5,6
 1123 878 1123 878 1103 923 c 0,7,8
 1096 939 1096 939 1096 953 c 0,9,10
 1097 981 1097 981 1119 1002 c 2,11,-1
 1277 1160 l 1,12,13
 1108 1317 1108 1317 878 1317 c 0,14,15
 759 1317 759 1317 651 1270.5 c 128,-1,16
 543 1224 543 1224 464 1145 c 128,-1,17
 385 1066 385 1066 339 958 c 128,-1,18
 293 850 293 850 293 731.5 c 128,-1,19
 293 613 293 613 339 505 c 128,-1,20
 385 397 385 397 464 318 c 128,-1,21
 543 239 543 239 651 192.5 c 128,-1,22
 759 146 759 146 878 146 c 0,23,24
 1014 146 1014 146 1135 205.5 c 128,-1,25
 1256 265 1256 265 1339 374 c 0,26,27
 1347 385 1347 385 1366 387 c 0,28,29
 1382 387 1382 387 1394 377 c 2,30,-1
 1551 219 l 2,31,32
 1561 210 1561 210 1561.5 196 c 128,-1,33
 1562 182 1562 182 1553 170 c 0,34,35
 1428 19 1428 19 1251 -63.5 c 128,-1,36
 1074 -146 1074 -146 878 -146 c 0,37,38
 700 -146 700 -146 537.5 -76.5 c 128,-1,39
 375 -7 375 -7 257 111 c 128,-1,40
 139 229 139 229 69.5 391 c 128,-1,41
 0 553 0 553 0 731.5 c 128,-1,42
 0 910 0 910 69.5 1072 c 128,-1,43
 139 1234 139 1234 257 1352 c 128,-1,44
 375 1470 375 1470 537 1539.5 c 128,-1,45
 699 1609 699 1609 878 1609 c 0,46,47
 1046 1609 1046 1609 1203 1545.5 c 128,-1,48
 1360 1482 1360 1482 1482 1367 c 1,49,-1
 1631 1514 l 2,50,51
 1652 1537 1652 1537 1680 1537 c 0,52,53
 1695 1537 1695 1537 1711 1530 c 0,54,55
 1755 1511 1755 1511 1755 1463 c 2,0,-1
EndSplineSet
Validated: 1
EndChar

StartChar: uni00B9
Encoding: 185 185 112
Width: 1755
Flags: W
LayerCount: 2
Fore
SplineSet
1755 731 m 0,0,1
 1755 553 1755 553 1685.5 391 c 128,-1,2
 1616 229 1616 229 1498.5 111 c 128,-1,3
 1381 -7 1381 -7 1218.5 -76.5 c 128,-1,4
 1056 -146 1056 -146 877.5 -146 c 128,-1,5
 699 -146 699 -146 537 -76.5 c 128,-1,6
 375 -7 375 -7 257 111 c 128,-1,7
 139 229 139 229 69.5 391 c 128,-1,8
 0 553 0 553 0 731 c 0,9,10
 0 939 0 939 92 1123 c 128,-1,11
 184 1307 184 1307 351 1432 c 0,12,13
 391 1462 391 1462 439 1462 c 0,14,15
 449 1463 449 1463 460 1461 c 0,16,17
 518 1451 518 1451 555 1403 c 0,18,19
 585 1364 585 1364 585 1317 c 0,20,21
 585 1306 585 1306 584 1295 c 0,22,23
 575 1235 575 1235 527 1199 c 0,24,25
 416 1116 416 1116 354 992 c 0,26,27
 293 870 293 870 293 731 c 0,28,29
 293 612 293 612 339 504.5 c 128,-1,30
 385 397 385 397 464 318 c 128,-1,31
 543 239 543 239 651 192.5 c 128,-1,32
 759 146 759 146 878 146 c 128,-1,33
 997 146 997 146 1105 192.5 c 128,-1,34
 1213 239 1213 239 1291.5 318 c 128,-1,35
 1370 397 1370 397 1416.5 505 c 128,-1,36
 1463 613 1463 613 1463 731 c 0,37,38
 1463 869 1463 869 1402 992 c 0,39,40
 1342 1112 1342 1112 1229 1199 c 0,41,42
 1183 1234 1183 1234 1172 1296 c 0,43,44
 1170 1307 1170 1307 1170 1318 c 0,45,46
 1171 1366 1171 1366 1200 1403 c 0,47,48
 1236 1449 1236 1449 1296 1460 c 0,49,50
 1307 1462 1307 1462 1318 1462 c 0,51,52
 1365 1462 1365 1462 1405 1432 c 0,53,54
 1572 1307 1572 1307 1663.5 1123 c 128,-1,55
 1755 939 1755 939 1755 731 c 0,0,1
1024 1609 m 2,56,-1
 1024 878 l 2,57,58
 1024 819 1024 819 980.5 775 c 128,-1,59
 937 731 937 731 877.5 731 c 128,-1,60
 818 731 818 731 774.5 774.5 c 128,-1,61
 731 818 731 818 731 878 c 2,62,-1
 731 1609 l 2,63,64
 731 1668 731 1668 774.5 1711.5 c 128,-1,65
 818 1755 818 1755 877.5 1755 c 128,-1,66
 937 1755 937 1755 980.5 1711.5 c 128,-1,67
 1024 1668 1024 1668 1024 1609 c 2,56,-1
EndSplineSet
Validated: 1
EndChar

StartChar: ordmasculine
Encoding: 186 186 113
Width: 1609
Flags: W
LayerCount: 2
Fore
SplineSet
439 219.5 m 128,-1,1
 439 128 439 128 375 64 c 128,-1,2
 311 0 311 0 219.5 0 c 128,-1,3
 128 0 128 0 64 64 c 128,-1,4
 0 128 0 128 0 219.5 c 128,-1,5
 0 311 0 311 64 375 c 128,-1,6
 128 439 128 439 219.5 439 c 128,-1,7
 311 439 311 439 375 375 c 128,-1,0
 439 311 439 311 439 219.5 c 128,-1,1
1024 79 m 0,8,9
 1026 47 1026 47 1005 24 c 0,10,11
 984 0 984 0 951 0 c 2,12,-1
 797 0 l 2,13,14
 768 0 768 0 747.5 19 c 128,-1,15
 727 38 727 38 725 66 c 0,16,17
 700 328 700 328 514 513.5 c 128,-1,18
 328 699 328 699 66 725 c 0,19,20
 37 727 37 727 18.5 747.5 c 128,-1,21
 0 768 0 768 0 797 c 2,22,-1
 0 951 l 2,23,24
 0 984 0 984 24 1005 c 0,25,26
 43 1024 43 1024 73 1024 c 2,27,-1
 79 1024 l 1,28,29
 262 1009 262 1009 428.5 932 c 128,-1,30
 595 855 595 855 725 725 c 0,31,32
 855 596 855 596 932 429 c 128,-1,33
 1009 262 1009 262 1024 79 c 0,8,9
1609 77 m 0,34,35
 1611 46 1611 46 1589 23 c 0,36,37
 1568 0 1568 0 1536 0 c 2,38,-1
 1373 0 l 2,39,40
 1343 0 1343 0 1322 20 c 128,-1,41
 1301 40 1301 40 1299 69 c 0,42,43
 1285 315 1285 315 1183.5 536 c 128,-1,44
 1082 757 1082 757 919.5 919.5 c 128,-1,45
 757 1082 757 1082 535.5 1184 c 128,-1,46
 314 1286 314 1286 69 1301 c 0,47,48
 40 1302 40 1302 20 1323 c 128,-1,49
 0 1344 0 1344 0 1373 c 2,50,-1
 0 1536 l 2,51,52
 0 1568 0 1568 23 1589 c 0,53,54
 44 1610 44 1610 73 1609 c 2,55,-1
 77 1609 l 1,56,57
 376 1594 376 1594 649.5 1472 c 128,-1,58
 923 1350 923 1350 1136 1136 c 0,59,60
 1350 923 1350 923 1472 649.5 c 128,-1,61
 1594 376 1594 376 1609 77 c 0,34,35
EndSplineSet
Validated: 1
EndChar

StartChar: guillemotright
Encoding: 187 187 114
Width: 1792
Flags: W
LayerCount: 2
Fore
SplineSet
1340 1052 m 2,0,-1
 1340 788 l 1,1,-1
 1792 928 l 1,2,-1
 1792 572 l 1,3,-1
 1792 220 l 1,4,-1
 1340 360 l 1,5,-1
 1340 100 l 2,6,7
 1340 64 1340 64 1304 64 c 2,8,-1
 36 64 l 2,9,10
 0 64 0 64 0 100 c 2,11,-1
 0 148 l 1,12,-1
 0 368 l 1,13,-1
 0 1052 l 2,14,15
 0 1088 0 1088 36 1088 c 2,16,-1
 868 1088 l 1,17,-1
 868 1240 l 2,18,19
 868 1252 868 1252 854 1266 c 128,-1,20
 840 1280 840 1280 828 1280 c 2,21,-1
 124 1280 l 1,22,-1
 124 1472 l 1,23,-1
 836 1472 l 2,24,25
 944 1472 944 1472 1020 1396 c 128,-1,26
 1096 1320 1096 1320 1096 1216 c 2,27,-1
 1096 1088 l 1,28,-1
 1304 1088 l 2,29,30
 1340 1088 1340 1088 1340 1052 c 2,0,-1
904 428 m 2,31,32
 964 428 964 428 1006 470 c 128,-1,33
 1048 512 1048 512 1048 572 c 128,-1,34
 1048 632 1048 632 1006 672 c 128,-1,35
 964 712 964 712 904 712 c 128,-1,36
 844 712 844 712 802 672 c 128,-1,37
 760 632 760 632 760 572 c 128,-1,38
 760 512 760 512 804 468 c 1,39,-1
 532 468 l 1,40,41
 576 512 576 512 576 572 c 128,-1,42
 576 632 576 632 534 674 c 128,-1,43
 492 716 492 716 432 716 c 128,-1,44
 372 716 372 716 330 674 c 128,-1,45
 288 632 288 632 288 572 c 128,-1,46
 288 512 288 512 330 470 c 128,-1,47
 372 428 372 428 432 428 c 2,48,-1
 480 428 l 1,49,-1
 860 428 l 1,50,-1
 904 428 l 2,31,32
EndSplineSet
Validated: 1
EndChar

StartChar: onequarter
Encoding: 188 188 115
Width: 1170
Flags: W
LayerCount: 2
Fore
SplineSet
717 183 m 128,-1,1
 717 168 717 168 705 157 c 2,2,-1
 648 99 l 2,3,4
 637 88 637 88 622 88 c 128,-1,5
 607 88 607 88 595 99 c 2,6,-1
 63 632 l 2,7,8
 52 643 52 643 51.5 658 c 128,-1,9
 51 673 51 673 63 685 c 2,10,-1
 595 1217 l 2,11,12
 606 1228 606 1228 621.5 1228.5 c 128,-1,13
 637 1229 637 1229 648 1217 c 2,14,-1
 705 1160 l 2,15,16
 716 1149 716 1149 716.5 1134 c 128,-1,17
 717 1119 717 1119 705 1107 c 2,18,-1
 256 658 l 1,19,-1
 705 209 l 2,20,0
 717 198 717 198 717 183 c 128,-1,1
1155 183 m 128,-1,22
 1155 168 1155 168 1144 157 c 2,23,-1
 1087 99 l 2,24,25
 1076 88 1076 88 1061 88 c 128,-1,26
 1046 88 1046 88 1034 99 c 2,27,-1
 502 632 l 2,28,29
 491 643 491 643 490.5 658 c 128,-1,30
 490 673 490 673 502 685 c 2,31,-1
 1034 1217 l 2,32,33
 1045 1228 1045 1228 1060 1228.5 c 128,-1,34
 1075 1229 1075 1229 1087 1217 c 2,35,-1
 1144 1160 l 2,36,37
 1155 1149 1155 1149 1155 1134 c 128,-1,38
 1155 1119 1155 1119 1144 1107 c 2,39,-1
 695 658 l 1,40,-1
 1144 209 l 2,41,21
 1155 198 1155 198 1155 183 c 128,-1,22
EndSplineSet
Validated: 1
EndChar

StartChar: onehalf
Encoding: 189 189 116
Width: 1170
Flags: W
LayerCount: 2
Fore
SplineSet
680 658 m 128,-1,1
 680 643 680 643 669 632 c 2,2,-1
 136 99 l 2,3,4
 125 88 125 88 110 88 c 128,-1,5
 95 88 95 88 83 99 c 2,6,-1
 26 157 l 2,7,8
 15 168 15 168 15 183 c 128,-1,9
 15 198 15 198 26 209 c 2,10,-1
 475 658 l 1,11,-1
 26 1107 l 2,12,13
 15 1118 15 1118 15 1133.5 c 128,-1,14
 15 1149 15 1149 26 1160 c 2,15,-1
 83 1217 l 2,16,17
 94 1228 94 1228 109.5 1228.5 c 128,-1,18
 125 1229 125 1229 136 1217 c 2,19,-1
 669 685 l 2,20,0
 680 673 680 673 680 658 c 128,-1,1
1119 658 m 128,-1,22
 1119 643 1119 643 1107 632 c 2,23,-1
 575 99 l 2,24,25
 564 88 564 88 549 88 c 128,-1,26
 534 88 534 88 522 99 c 2,27,-1
 465 157 l 2,28,29
 454 168 454 168 454 183 c 128,-1,30
 454 198 454 198 465 209 c 2,31,-1
 914 658 l 1,32,-1
 465 1107 l 2,33,34
 454 1118 454 1118 454 1133.5 c 128,-1,35
 454 1149 454 1149 465 1160 c 2,36,-1
 522 1217 l 2,37,38
 533 1228 533 1228 548 1228.5 c 128,-1,39
 563 1229 563 1229 575 1217 c 2,40,-1
 1107 685 l 2,41,21
 1119 673 1119 673 1119 658 c 128,-1,22
EndSplineSet
Validated: 1
EndChar

StartChar: threequarters
Encoding: 190 190 117
Width: 1316
Flags: W
LayerCount: 2
Fore
SplineSet
1229 256 m 128,-1,1
 1229 241 1229 241 1217 230 c 2,2,-1
 1160 173 l 2,3,4
 1149 162 1149 162 1134 161.5 c 128,-1,5
 1119 161 1119 161 1107 173 c 2,6,-1
 658 622 l 1,7,-1
 209 173 l 2,8,9
 198 162 198 162 183 161.5 c 128,-1,10
 168 161 168 161 157 173 c 2,11,-1
 99 230 l 2,12,13
 88 241 88 241 88 256 c 128,-1,14
 88 271 88 271 99 282 c 2,15,-1
 632 815 l 2,16,17
 643 826 643 826 658 826 c 128,-1,18
 673 826 673 826 685 815 c 2,19,-1
 1217 282 l 2,20,0
 1229 271 1229 271 1229 256 c 128,-1,1
1229 695 m 128,-1,22
 1229 680 1229 680 1217 669 c 2,23,-1
 1160 611 l 2,24,25
 1149 600 1149 600 1134 600 c 128,-1,26
 1119 600 1119 600 1107 611 c 2,27,-1
 658 1061 l 1,28,-1
 209 611 l 2,29,30
 198 600 198 600 183 600 c 128,-1,31
 168 600 168 600 157 611 c 2,32,-1
 99 669 l 2,33,34
 88 680 88 680 88 695 c 128,-1,35
 88 710 88 710 99 721 c 2,36,-1
 632 1254 l 2,37,38
 643 1265 643 1265 658 1265 c 128,-1,39
 673 1265 673 1265 685 1254 c 2,40,-1
 1217 721 l 2,41,21
 1229 710 1229 710 1229 695 c 128,-1,22
EndSplineSet
Validated: 1
EndChar

StartChar: questiondown
Encoding: 191 191 118
Width: 1316
Flags: W
LayerCount: 2
Fore
SplineSet
1229 768 m 128,-1,1
 1229 753 1229 753 1217 742 c 2,2,-1
 685 209 l 2,3,4
 674 198 674 198 658.5 198 c 128,-1,5
 643 198 643 198 632 209 c 2,6,-1
 99 742 l 2,7,8
 88 753 88 753 88 768 c 128,-1,9
 88 783 88 783 99 794 c 2,10,-1
 157 851 l 2,11,12
 168 862 168 862 183 862.5 c 128,-1,13
 198 863 198 863 209 851 c 2,14,-1
 658 402 l 1,15,-1
 1107 851 l 2,16,17
 1118 862 1118 862 1133.5 862.5 c 128,-1,18
 1149 863 1149 863 1160 851 c 2,19,-1
 1217 794 l 2,20,0
 1229 783 1229 783 1229 768 c 128,-1,1
1229 1207 m 128,-1,22
 1229 1192 1229 1192 1217 1181 c 2,23,-1
 685 648 l 2,24,25
 674 637 674 637 658.5 637 c 128,-1,26
 643 637 643 637 632 648 c 2,27,-1
 99 1181 l 2,28,29
 88 1192 88 1192 88 1207 c 128,-1,30
 88 1222 88 1222 99 1233 c 2,31,-1
 157 1290 l 2,32,33
 168 1301 168 1301 183 1301.5 c 128,-1,34
 198 1302 198 1302 209 1290 c 2,35,-1
 658 841 l 1,36,-1
 1107 1290 l 2,37,38
 1118 1301 1118 1301 1133.5 1301.5 c 128,-1,39
 1149 1302 1149 1302 1160 1290 c 2,40,-1
 1217 1233 l 2,41,21
 1229 1222 1229 1222 1229 1207 c 128,-1,22
EndSplineSet
Validated: 1
EndChar

StartChar: Agrave
Encoding: 192 192 119
Width: 1755
Flags: W
LayerCount: 2
Fore
SplineSet
1170 731.5 m 132,-1,1
 1170 853 1170 853 1084.5 938.5 c 132,-1,2
 999 1024 999 1024 878 1024 c 132,-1,3
 757 1024 757 1024 671 938.5 c 132,-1,4
 585 853 585 853 585 731.5 c 132,-1,5
 585 610 585 610 671 524.5 c 132,-1,6
 757 439 757 439 878 439 c 132,-1,7
 999 439 999 439 1084.5 524.5 c 132,-1,0
 1170 610 1170 610 1170 731.5 c 132,-1,1
1755 856 m 6,8,-1
 1755 602 l 6,9,10
 1755 588 1755 588 1746 575.5 c 132,-1,11
 1737 563 1737 563 1723 561 c 6,12,-1
 1512 529 l 5,13,14
 1490 467 1490 467 1467 425 c 5,15,16
 1507 368 1507 368 1590 267 c 4,17,18
 1601 253 1601 253 1601 238.5 c 132,-1,19
 1601 224 1601 224 1591 213 c 4,20,21
 1560 171 1560 171 1477.5 89.5 c 132,-1,22
 1395 8 1395 8 1370 8 c 4,23,24
 1356 8 1356 8 1341 18 c 6,25,-1
 1183 142 l 5,26,27
 1133 116 1133 116 1079 98 c 5,28,29
 1061 -57 1061 -57 1046 -114 c 4,30,31
 1038 -146 1038 -146 1005 -146 c 6,32,-1
 751 -146 l 6,33,34
 735 -146 735 -146 723 -136.5 c 132,-1,35
 711 -127 711 -127 710 -112 c 6,36,-1
 678 98 l 5,37,38
 622 116 622 116 575 141 c 5,39,-1
 414 18 l 6,40,41
 403 8 403 8 385 8 c 4,42,43
 369 8 369 8 357 21 c 4,44,45
 213 151 213 151 168 213 c 4,46,47
 160 224 160 224 160 239 c 4,48,49
 160 253 160 253 169 265 c 4,50,51
 186 289 186 289 227.5 341 c 132,-1,52
 269 393 269 393 289 422 c 5,53,54
 258 479 258 479 242 535 c 5,55,-1
 33 566 l 6,56,57
 18 568 18 568 9 580 c 132,-1,58
 0 592 0 592 0 607 c 6,59,-1
 0 861 l 6,60,61
 0 875 0 875 9 887 c 132,-1,62
 18 899 18 899 31 902 c 6,63,-1
 243 934 l 5,64,65
 259 987 259 987 288 1039 c 5,66,67
 242 1104 242 1104 166 1197 c 4,68,69
 155 1211 155 1211 154 1224 c 4,70,71
 154 1235 154 1235 165 1250 c 4,72,73
 195 1291 195 1291 277.5 1373 c 132,-1,74
 360 1455 360 1455 385 1455 c 4,75,76
 400 1455 400 1455 415 1443 c 6,77,-1
 573 1321 l 5,78,79
 623 1347 623 1347 677 1365 c 5,80,81
 695 1520 695 1520 710 1577 c 4,82,83
 718 1609 718 1609 751 1609 c 6,84,-1
 1005 1609 l 6,85,86
 1021 1609 1021 1609 1033 1599.5 c 132,-1,87
 1045 1590 1045 1590 1046 1575 c 6,88,-1
 1078 1365 l 5,89,90
 1134 1347 1134 1347 1181 1322 c 5,91,-1
 1343 1445 l 6,92,93
 1353 1455 1353 1455 1370 1455 c 4,94,95
 1385 1455 1385 1455 1399 1443 c 4,96,97
 1546 1307 1546 1307 1587 1249 c 4,98,99
 1595 1240 1595 1240 1595 1224 c 4,100,101
 1595 1210 1595 1210 1586 1198 c 4,102,103
 1569 1174 1569 1174 1528 1122 c 132,-1,104
 1487 1070 1487 1070 1466 1041 c 5,105,106
 1496 984 1496 984 1513 929 c 5,107,-1
 1722 897 l 6,108,109
 1737 895 1737 895 1746 883 c 132,-1,110
 1755 871 1755 871 1755 856 c 6,8,-1
EndSplineSet
Validated: 1
EndChar

StartChar: Acircumflex
Encoding: 194 194 120
Width: 1609
Flags: W
LayerCount: 2
Fore
SplineSet
1603 1418 m 0,0,1
 1610 1401 1610 1401 1610 1387 c 0,2,3
 1609 1359 1609 1359 1587 1338 c 2,4,-1
 1024 775 l 1,5,-1
 1024 -73 l 2,6,7
 1024 -121 1024 -121 979 -141 c 0,8,9
 964 -147 964 -147 951 -146 c 0,10,11
 920 -146 920 -146 899 -125 c 2,12,-1
 607 168 l 2,13,14
 585 190 585 190 585 219 c 2,15,-1
 585 775 l 1,16,-1
 22 1338 l 2,17,18
 -1 1359 -1 1359 -1 1387 c 0,19,20
 -1 1402 -1 1402 6 1418 c 0,21,22
 26 1463 26 1463 73 1463 c 2,23,-1
 1536 1463 l 2,24,25
 1584 1463 1584 1463 1603 1418 c 0,0,1
EndSplineSet
Validated: 1
EndChar

StartChar: Atilde
Encoding: 195 195 121
Width: 2048
Flags: W
LayerCount: 2
Fore
SplineSet
435 -96 m 0,0,1
 435 -187 435 -187 373 -240 c 128,-1,2
 311 -293 311 -293 218 -293 c 0,3,4
 97 -293 97 -293 22 -217 c 1,5,-1
 87 -117 l 1,6,7
 143 -168 143 -168 208 -168 c 0,8,9
 241 -168 241 -168 265.5 -151.5 c 128,-1,10
 290 -135 290 -135 290 -103 c 0,11,12
 290 -38 290 -38 195 -38 c 0,13,14
 183 -38 183 -38 170 -39 c 1,15,-1
 141 25 l 1,16,17
 150 36 150 36 178 74.5 c 128,-1,18
 206 113 206 113 226.5 136.5 c 128,-1,19
 247 160 247 160 269 181 c 1,20,-1
 269 182 l 1,21,22
 251 182 251 182 213.5 180.5 c 128,-1,23
 176 179 176 179 158 179 c 1,24,-1
 158 119 l 1,25,-1
 37 119 l 1,26,-1
 37 293 l 1,27,-1
 417 293 l 1,28,-1
 417 192 l 1,29,-1
 309 61 l 1,30,31
 367 47 367 47 401 4.5 c 128,-1,32
 435 -38 435 -38 435 -96 c 0,0,1
438 621 m 1,33,-1
 438 439 l 1,34,-1
 24 439 l 1,35,36
 17 480 17 480 17 501 c 0,37,38
 17 559 17 559 44 607 c 128,-1,39
 71 655 71 655 108.5 684.5 c 128,-1,40
 146 714 146 714 184 738.5 c 128,-1,41
 222 763 222 763 248.5 788.5 c 128,-1,42
 275 814 275 814 275 840 c 0,43,44
 275 869 275 869 258.5 884 c 128,-1,45
 242 899 242 899 214 899 c 0,46,47
 161 899 161 899 121 833 c 1,48,-1
 24 901 l 1,49,50
 51 959 51 959 105.5 991.5 c 128,-1,51
 160 1024 160 1024 226 1024 c 0,52,53
 309 1024 309 1024 366.5 976.5 c 128,-1,54
 424 929 424 929 424 848 c 0,55,56
 424 791 424 791 385 743.5 c 128,-1,57
 346 696 346 696 299.5 669.5 c 128,-1,58
 253 643 253 643 213.5 612 c 128,-1,59
 174 581 174 581 173 552 c 1,60,-1
 318 552 l 1,61,-1
 318 621 l 1,62,-1
 438 621 l 1,33,-1
2048 256 m 2,63,-1
 2048 37 l 2,64,65
 2048 22 2048 22 2037 11 c 128,-1,66
 2026 0 2026 0 2011 0 c 2,67,-1
 622 0 l 2,68,69
 607 0 607 0 596 11 c 128,-1,70
 585 22 585 22 585 37 c 2,71,-1
 585 256 l 2,72,73
 585 272 585 272 595.5 282.5 c 128,-1,74
 606 293 606 293 622 293 c 2,75,-1
 2011 293 l 2,76,77
 2026 293 2026 293 2037 282 c 128,-1,78
 2048 271 2048 271 2048 256 c 2,63,-1
439 1283 m 1,79,-1
 439 1170 l 1,80,-1
 56 1170 l 1,81,-1
 56 1283 l 1,82,-1
 178 1283 l 1,83,84
 178 1330 178 1330 178.5 1422.5 c 128,-1,85
 179 1515 179 1515 179 1561 c 2,86,-1
 179 1575 l 1,87,-1
 177 1575 l 1,88,89
 168 1556 168 1556 120 1513 c 1,90,-1
 39 1600 l 1,91,-1
 194 1745 l 1,92,-1
 315 1745 l 1,93,-1
 315 1283 l 1,94,-1
 439 1283 l 1,79,-1
2048 841 m 2,95,-1
 2048 622 l 2,96,97
 2048 607 2048 607 2037 596 c 128,-1,98
 2026 585 2026 585 2011 585 c 2,99,-1
 622 585 l 2,100,101
 607 585 607 585 596 596 c 128,-1,102
 585 607 585 607 585 622 c 2,103,-1
 585 841 l 2,104,105
 585 857 585 857 595.5 867.5 c 128,-1,106
 606 878 606 878 622 878 c 2,107,-1
 2011 878 l 2,108,109
 2026 878 2026 878 2037 867 c 128,-1,110
 2048 856 2048 856 2048 841 c 2,95,-1
2048 1426 m 2,111,-1
 2048 1207 l 2,112,113
 2048 1192 2048 1192 2037 1181 c 128,-1,114
 2026 1170 2026 1170 2011 1170 c 2,115,-1
 622 1170 l 2,116,117
 607 1170 607 1170 596 1181 c 128,-1,118
 585 1192 585 1192 585 1207 c 2,119,-1
 585 1426 l 2,120,121
 585 1441 585 1441 596 1452 c 128,-1,122
 607 1463 607 1463 622 1463 c 2,123,-1
 2011 1463 l 2,124,125
 2026 1463 2026 1463 2037 1452 c 128,-1,126
 2048 1441 2048 1441 2048 1426 c 2,111,-1
EndSplineSet
Validated: 1
EndChar

StartChar: Adieresis
Encoding: 196 196 122
Width: 2048
Flags: W
LayerCount: 2
Fore
SplineSet
1368 1252 m 5,0,1
 1432 1252 1432 1252 1484 1198 c 132,-1,2
 1536 1144 1536 1144 1536 1080 c 6,3,-1
 1536 612 l 5,4,-1
 1236 312 l 5,5,-1
 1236 56 l 5,6,-1
 812 56 l 5,7,-1
 812 312 l 5,8,-1
 512 612 l 5,9,-1
 512 1080 l 6,10,11
 512 1144 512 1144 564 1198 c 132,-1,12
 616 1252 616 1252 680 1252 c 6,13,-1
 684 1252 l 5,14,-1
 684 1592 l 5,15,-1
 852 1592 l 5,16,-1
 852 1252 l 5,17,-1
 1196 1252 l 5,18,-1
 1196 1592 l 5,19,-1
 1364 1592 l 5,20,-1
 1368 1252 l 5,0,1
EndSplineSet
Validated: 1
EndChar

StartChar: Aacute
Encoding: 193 193 123
Width: 1622
Flags: W
LayerCount: 2
Fore
SplineSet
1583 1343 m 2,0,1
 1622 1304 1622 1304 1622 1252.5 c 128,-1,2
 1622 1201 1622 1201 1583 1163 c 2,3,-1
 1280 859 l 1,4,-1
 1280 91 l 2,5,6
 1280 56 1280 56 1254.5 30.5 c 128,-1,7
 1229 5 1229 5 1194 5 c 2,8,-1
 86 5 l 2,9,10
 51 5 51 5 25.5 31 c 128,-1,11
 0 57 0 57 0 91 c 2,12,-1
 0 1199 l 2,13,14
 0 1234 0 1234 25.5 1259.5 c 128,-1,15
 51 1285 51 1285 86 1285 c 2,16,-1
 854 1285 l 1,17,-1
 1157 1589 l 2,18,19
 1196 1628 1196 1628 1246 1628 c 0,20,21
 1246 1628 1246 1628 1247 1628 c 0,22,23
 1298 1627 1298 1627 1337 1589 c 2,24,-1
 1583 1343 l 2,0,1
725 546 m 1,25,-1
 1262 1083 l 1,26,-1
 1077 1267 l 1,27,-1
 541 730 l 1,28,-1
 725 546 l 1,25,-1
506 659 m 1,29,-1
 512 517 l 1,30,-1
 657 511 l 1,31,-1
 506 659 l 1,29,-1
1110 175 m 1,32,-1
 1110 687 l 1,33,-1
 838 425 l 2,34,35
 805 392 805 392 734.5 369.5 c 128,-1,36
 664 347 664 347 602 347 c 2,37,-1
 342 347 l 1,38,-1
 342 608 l 2,39,40
 342 676 342 676 360.5 743 c 128,-1,41
 379 810 379 810 412 843 c 2,42,-1
 682 1115 l 1,43,-1
 170 1115 l 1,44,-1
 170 175 l 1,45,-1
 1110 175 l 1,32,-1
1323 1142 m 1,46,-1
 1434 1253 l 1,47,-1
 1247 1439 l 1,48,-1
 1137 1328 l 1,49,-1
 1323 1142 l 1,46,-1
EndSplineSet
Validated: 1
EndChar
